%FSLAX34Y34*%
%MOMM*%
%LNCOPPER_INNER1*%
G71*
G01*
%ADD10C,2.420*%
%ADD11C,1.970*%
%ADD12C,2.419*%
%ADD13C,5.119*%
%ADD14C,2.421*%
%ADD15C,2.958*%
%ADD16C,2.960*%
%ADD17C,2.959*%
%ADD18C,1.967*%
%ADD19C,1.966*%
%ADD20C,3.498*%
%ADD21C,3.500*%
%ADD22C,2.743*%
%ADD23C,2.139*%
%ADD24C,5.119*%
%ADD25C,2.960*%
%ADD26C,2.959*%
%ADD27C,2.138*%
%ADD28C,2.140*%
%ADD29C,4.450*%
%ADD30C,2.960*%
%ADD31C,0.734*%
%ADD32C,0.495*%
%ADD33C,0.720*%
%ADD34C,0.502*%
%ADD35C,0.518*%
%ADD36C,0.350*%
%ADD37C,0.504*%
%ADD38C,0.495*%
%ADD39C,1.004*%
%ADD40C,0.998*%
%ADD41C,0.993*%
%ADD42C,1.001*%
%ADD43C,0.997*%
%ADD44C,0.720*%
%ADD45C,0.446*%
%ADD46C,0.446*%
%ADD47C,0.389*%
%ADD48C,1.620*%
%ADD49C,1.170*%
%ADD50C,1.619*%
%ADD51C,4.319*%
%ADD52C,1.621*%
%ADD53C,2.158*%
%ADD54C,2.160*%
%ADD55C,2.159*%
%ADD56C,1.167*%
%ADD57C,1.166*%
%ADD58C,2.698*%
%ADD59C,2.700*%
%ADD60C,1.943*%
%ADD61C,1.339*%
%ADD62C,4.319*%
%ADD63C,2.160*%
%ADD64C,2.159*%
%ADD65C,1.338*%
%ADD66C,1.340*%
%ADD67C,3.650*%
%ADD68C,2.160*%
%LPD*%
G36*
X0Y0D02*
X4550000Y0D01*
X4550000Y-3000012D01*
X0Y-3000012D01*
X0Y0D01*
G37*
%LPC*%
G36*
X3828182Y-462367D02*
X3855182Y-462367D01*
X3855182Y-489367D01*
X3828182Y-489367D01*
X3828182Y-462367D01*
G37*
X3892482Y-475867D02*
G54D10*
D03*
X3867078Y-475867D02*
G54D10*
D03*
X1818334Y-102638D02*
G54D11*
D03*
X1843736Y-102626D02*
G54D11*
D03*
X1869139Y-102626D02*
G54D11*
D03*
X1894523Y-102626D02*
G54D11*
D03*
X1919949Y-102638D02*
G54D11*
D03*
X1945351Y-102626D02*
G54D11*
D03*
X1970754Y-102626D02*
G54D11*
D03*
X1996138Y-102626D02*
G54D11*
D03*
X2021564Y-102638D02*
G54D11*
D03*
X2072348Y-102626D02*
G54D11*
D03*
X2097750Y-102614D02*
G54D11*
D03*
X2123162Y-102614D02*
G54D11*
D03*
X2148553Y-102614D02*
G54D11*
D03*
X2173988Y-102626D02*
G54D11*
D03*
X2199398Y-102614D02*
G54D11*
D03*
X2224808Y-102614D02*
G54D11*
D03*
X2250200Y-102614D02*
G54D11*
D03*
X2275634Y-102626D02*
G54D11*
D03*
X2046948Y-102626D02*
G54D11*
D03*
X2301036Y-102626D02*
G54D11*
D03*
G36*
X2315623Y-91788D02*
X2337323Y-91788D01*
X2337323Y-113488D01*
X2315623Y-113488D01*
X2315623Y-91788D01*
G37*
X1818334Y-255038D02*
G54D11*
D03*
X1843736Y-255026D02*
G54D11*
D03*
X1869139Y-255026D02*
G54D11*
D03*
X1894523Y-255026D02*
G54D11*
D03*
X1919949Y-255038D02*
G54D11*
D03*
X1945351Y-255026D02*
G54D11*
D03*
X1970754Y-255026D02*
G54D11*
D03*
X1996138Y-255026D02*
G54D11*
D03*
X2021564Y-255038D02*
G54D11*
D03*
X2072348Y-255026D02*
G54D11*
D03*
X2097750Y-255014D02*
G54D11*
D03*
X2123162Y-255014D02*
G54D11*
D03*
X2148553Y-255014D02*
G54D11*
D03*
X2173988Y-255026D02*
G54D11*
D03*
X2199398Y-255014D02*
G54D11*
D03*
X2224808Y-255014D02*
G54D11*
D03*
X2250200Y-255014D02*
G54D11*
D03*
X2275634Y-255026D02*
G54D11*
D03*
X2046948Y-255026D02*
G54D11*
D03*
X2301036Y-255026D02*
G54D11*
D03*
X2326473Y-255064D02*
G54D11*
D03*
X1818338Y-293485D02*
G54D11*
D03*
X1843741Y-293472D02*
G54D11*
D03*
X1869144Y-293473D02*
G54D11*
D03*
X1894527Y-293473D02*
G54D11*
D03*
X1919954Y-293485D02*
G54D11*
D03*
X1945356Y-293472D02*
G54D11*
D03*
X1970759Y-293473D02*
G54D11*
D03*
X1996142Y-293473D02*
G54D11*
D03*
X2021569Y-293485D02*
G54D11*
D03*
X2072353Y-293473D02*
G54D11*
D03*
X2097755Y-293460D02*
G54D11*
D03*
X2123166Y-293461D02*
G54D11*
D03*
X2148558Y-293461D02*
G54D11*
D03*
X2173992Y-293473D02*
G54D11*
D03*
X2199402Y-293460D02*
G54D11*
D03*
X2224813Y-293461D02*
G54D11*
D03*
X2250205Y-293461D02*
G54D11*
D03*
X2275640Y-293473D02*
G54D11*
D03*
X2046952Y-293472D02*
G54D11*
D03*
X2301041Y-293473D02*
G54D11*
D03*
G36*
X2315628Y-282635D02*
X2337328Y-282635D01*
X2337328Y-304335D01*
X2315628Y-304335D01*
X2315628Y-282635D01*
G37*
X1818338Y-445908D02*
G54D11*
D03*
X1843740Y-445895D02*
G54D11*
D03*
X1869144Y-445896D02*
G54D11*
D03*
X1894527Y-445896D02*
G54D11*
D03*
X1919954Y-445908D02*
G54D11*
D03*
X1945356Y-445895D02*
G54D11*
D03*
X1970758Y-445896D02*
G54D11*
D03*
X1996142Y-445896D02*
G54D11*
D03*
X2021568Y-445908D02*
G54D11*
D03*
X2072352Y-445896D02*
G54D11*
D03*
X2097755Y-445883D02*
G54D11*
D03*
X2123166Y-445884D02*
G54D11*
D03*
X2148558Y-445884D02*
G54D11*
D03*
X2173992Y-445896D02*
G54D11*
D03*
X2199402Y-445883D02*
G54D11*
D03*
X2224813Y-445884D02*
G54D11*
D03*
X2250204Y-445884D02*
G54D11*
D03*
X2275639Y-445896D02*
G54D11*
D03*
X2046952Y-445896D02*
G54D11*
D03*
X2301041Y-445896D02*
G54D11*
D03*
X2326478Y-445934D02*
G54D11*
D03*
X2512568Y-466727D02*
G54D12*
D03*
X2678959Y-451493D02*
G54D13*
D03*
X2540254Y-466727D02*
G54D12*
D03*
X2567689Y-466727D02*
G54D12*
D03*
X2595390Y-466727D02*
G54D12*
D03*
X2526287Y-438278D02*
G54D14*
D03*
X2428990Y-451493D02*
G54D13*
D03*
X2609354Y-438278D02*
G54D14*
D03*
X2581662Y-438278D02*
G54D14*
D03*
X2553975Y-438278D02*
G54D14*
D03*
G36*
X2485095Y-451778D02*
X2485095Y-424778D01*
X2512095Y-424778D01*
X2512095Y-451778D01*
X2485095Y-451778D01*
G37*
X3635760Y-365064D02*
G54D15*
D03*
X3635760Y-403168D02*
G54D15*
D03*
X3637034Y-530192D02*
G54D16*
D03*
X3587492Y-326960D02*
G54D17*
D03*
X3587492Y-365064D02*
G54D17*
D03*
X3587492Y-403168D02*
G54D17*
D03*
X3586226Y-530191D02*
G54D16*
D03*
X3635760Y-326960D02*
G54D15*
D03*
X3422056Y-483700D02*
G54D18*
D03*
X3422056Y-508595D02*
G54D19*
D03*
X3443142Y-508594D02*
G54D19*
D03*
X3469048Y-508594D02*
G54D19*
D03*
X3490132Y-508594D02*
G54D19*
D03*
X3523411Y-538828D02*
G54D20*
D03*
X3456094Y-546951D02*
G54D21*
D03*
X3388772Y-538828D02*
G54D20*
D03*
X3490132Y-483700D02*
G54D18*
D03*
X3173411Y-568543D02*
G54D22*
D03*
X3173246Y-443809D02*
G54D22*
D03*
X3198395Y-468711D02*
G54D22*
D03*
X3148352Y-568545D02*
G54D12*
D03*
X3148351Y-543649D02*
G54D12*
D03*
X3123450Y-543650D02*
G54D16*
D03*
X3073669Y-568543D02*
G54D22*
D03*
X3098561Y-568545D02*
G54D12*
D03*
X3098562Y-543649D02*
G54D12*
D03*
X3073669Y-443809D02*
G54D22*
D03*
X3048521Y-468712D02*
G54D22*
D03*
X3173500Y-468456D02*
G54D12*
D03*
X3148353Y-443556D02*
G54D12*
D03*
X3098561Y-443556D02*
G54D12*
D03*
X3073414Y-468456D02*
G54D12*
D03*
X3783878Y-215183D02*
G54D23*
D03*
X3885220Y-339130D02*
G54D24*
D03*
X3721898Y-459570D02*
G54D25*
D03*
X4012513Y-357953D02*
G54D26*
D03*
X3707664Y-357953D02*
G54D25*
D03*
X3891838Y-570833D02*
G54D26*
D03*
X3809282Y-215184D02*
G54D27*
D03*
X3834684Y-215184D02*
G54D28*
D03*
X3860089Y-215184D02*
G54D27*
D03*
X4007690Y-459569D02*
G54D26*
D03*
X2829625Y-466727D02*
G54D12*
D03*
X2996015Y-451493D02*
G54D13*
D03*
X2857311Y-466727D02*
G54D12*
D03*
X2884745Y-466727D02*
G54D12*
D03*
X2912447Y-466727D02*
G54D12*
D03*
X2843343Y-438278D02*
G54D14*
D03*
X2746046Y-451493D02*
G54D13*
D03*
X2926410Y-438278D02*
G54D14*
D03*
X2898718Y-438278D02*
G54D14*
D03*
X2871032Y-438278D02*
G54D14*
D03*
G36*
X2802151Y-451778D02*
X2802151Y-424778D01*
X2829151Y-424778D01*
X2829151Y-451778D01*
X2802151Y-451778D01*
G37*
X106759Y-274638D02*
G54D29*
D03*
X3363686Y-517051D02*
G54D30*
D03*
X3283408Y-546721D02*
G54D23*
D03*
X3262314Y-546721D02*
G54D27*
D03*
X3262314Y-572127D02*
G54D27*
D03*
X3296356Y-509054D02*
G54D30*
D03*
X3309316Y-546721D02*
G54D23*
D03*
X3330398Y-546721D02*
G54D23*
D03*
X3330398Y-572127D02*
G54D23*
D03*
X3229038Y-517051D02*
G54D30*
D03*
X3305248Y-572127D02*
G54D28*
D03*
X3287466Y-572127D02*
G54D27*
D03*
X1997728Y-531416D02*
G54D18*
D03*
X1897765Y-531416D02*
G54D18*
D03*
X1877776Y-531416D02*
G54D19*
D03*
X2017716Y-531416D02*
G54D19*
D03*
X2037713Y-531416D02*
G54D19*
D03*
X2057707Y-531416D02*
G54D19*
D03*
X1917753Y-531416D02*
G54D19*
D03*
X1937748Y-531416D02*
G54D19*
D03*
X1957743Y-531416D02*
G54D19*
D03*
X1977739Y-531416D02*
G54D19*
D03*
X1614854Y-551688D02*
G54D19*
D03*
X1818080Y-551688D02*
G54D19*
D03*
X1792681Y-551688D02*
G54D19*
D03*
X1767272Y-551688D02*
G54D19*
D03*
X1779976Y-531623D02*
G54D19*
D03*
X1805382Y-531623D02*
G54D19*
D03*
X1754574Y-577099D02*
G54D19*
D03*
X1754574Y-531622D02*
G54D19*
D03*
X1538642Y-551688D02*
G54D19*
D03*
X1513242Y-551688D02*
G54D19*
D03*
X1525936Y-577099D02*
G54D19*
D03*
X1779976Y-577099D02*
G54D19*
D03*
X1805381Y-577099D02*
G54D19*
D03*
X1627552Y-531623D02*
G54D19*
D03*
X1652964Y-531623D02*
G54D19*
D03*
X1678360Y-531623D02*
G54D19*
D03*
X1703771Y-531623D02*
G54D19*
D03*
X1729168Y-531623D02*
G54D19*
D03*
X1551347Y-531623D02*
G54D19*
D03*
X1576742Y-531623D02*
G54D19*
D03*
X1602156Y-531623D02*
G54D19*
D03*
X1525936Y-531623D02*
G54D19*
D03*
X1703772Y-577099D02*
G54D19*
D03*
X1729168Y-577099D02*
G54D19*
D03*
X1741875Y-551688D02*
G54D19*
D03*
X1691066Y-551688D02*
G54D19*
D03*
X1716464Y-551688D02*
G54D19*
D03*
X1678360Y-577099D02*
G54D19*
D03*
X1627551Y-577099D02*
G54D19*
D03*
X1652964Y-577099D02*
G54D19*
D03*
X1640258Y-551688D02*
G54D19*
D03*
X1665662Y-551688D02*
G54D19*
D03*
X1602156Y-577099D02*
G54D19*
D03*
X1576742Y-577099D02*
G54D19*
D03*
X1551348Y-577099D02*
G54D19*
D03*
X1564052Y-551688D02*
G54D19*
D03*
X1589450Y-551688D02*
G54D19*
D03*
G36*
X1488938Y-543223D02*
X1488938Y-520023D01*
X1512138Y-520023D01*
X1512138Y-543223D01*
X1488938Y-543223D01*
G37*
G36*
X1488937Y-588699D02*
X1488937Y-565499D01*
X1512137Y-565499D01*
X1512137Y-588699D01*
X1488937Y-588699D01*
G37*
%LPD*%
G54D31*
G36*
X3863406Y-475867D02*
X3863406Y-463267D01*
X3870750Y-463267D01*
X3870750Y-475867D01*
X3863406Y-475867D01*
G37*
G36*
X3867078Y-472195D02*
X3879678Y-472195D01*
X3879678Y-479539D01*
X3867078Y-479539D01*
X3867078Y-472195D01*
G37*
G36*
X3870750Y-475867D02*
X3870750Y-488467D01*
X3863406Y-488467D01*
X3863406Y-475867D01*
X3870750Y-475867D01*
G37*
G36*
X3867078Y-479539D02*
X3854478Y-479539D01*
X3854478Y-472195D01*
X3867078Y-472195D01*
X3867078Y-479539D01*
G37*
G54D32*
G36*
X2044472Y-102626D02*
X2044472Y-92276D01*
X2049424Y-92276D01*
X2049424Y-102626D01*
X2044472Y-102626D01*
G37*
G36*
X2045197Y-100875D02*
X2052515Y-93556D01*
X2056018Y-97058D01*
X2048699Y-104377D01*
X2045197Y-100875D01*
G37*
G36*
X2046948Y-100150D02*
X2057298Y-100150D01*
X2057298Y-105102D01*
X2046948Y-105102D01*
X2046948Y-100150D01*
G37*
G36*
X2048699Y-100875D02*
X2056018Y-108194D01*
X2052515Y-111696D01*
X2045197Y-104377D01*
X2048699Y-100875D01*
G37*
G36*
X2049424Y-102626D02*
X2049424Y-112976D01*
X2044472Y-112976D01*
X2044472Y-102626D01*
X2049424Y-102626D01*
G37*
G36*
X2048699Y-104377D02*
X2041381Y-111696D01*
X2037878Y-108194D01*
X2045197Y-100875D01*
X2048699Y-104377D01*
G37*
G36*
X2046948Y-105102D02*
X2036598Y-105102D01*
X2036598Y-100150D01*
X2046948Y-100150D01*
X2046948Y-105102D01*
G37*
G36*
X2045197Y-104377D02*
X2037878Y-97058D01*
X2041381Y-93556D01*
X2048699Y-100875D01*
X2045197Y-104377D01*
G37*
G54D32*
G36*
X2044472Y-255026D02*
X2044472Y-244676D01*
X2049424Y-244676D01*
X2049424Y-255026D01*
X2044472Y-255026D01*
G37*
G36*
X2045197Y-253275D02*
X2052515Y-245956D01*
X2056018Y-249458D01*
X2048699Y-256777D01*
X2045197Y-253275D01*
G37*
G36*
X2046948Y-252550D02*
X2057298Y-252550D01*
X2057298Y-257502D01*
X2046948Y-257502D01*
X2046948Y-252550D01*
G37*
G36*
X2048699Y-253275D02*
X2056018Y-260594D01*
X2052515Y-264096D01*
X2045197Y-256777D01*
X2048699Y-253275D01*
G37*
G36*
X2049424Y-255026D02*
X2049424Y-265376D01*
X2044472Y-265376D01*
X2044472Y-255026D01*
X2049424Y-255026D01*
G37*
G36*
X2048699Y-256777D02*
X2041381Y-264096D01*
X2037878Y-260594D01*
X2045197Y-253275D01*
X2048699Y-256777D01*
G37*
G36*
X2046948Y-257502D02*
X2036598Y-257502D01*
X2036598Y-252550D01*
X2046948Y-252550D01*
X2046948Y-257502D01*
G37*
G36*
X2045197Y-256777D02*
X2037878Y-249458D01*
X2041381Y-245956D01*
X2048699Y-253275D01*
X2045197Y-256777D01*
G37*
G54D32*
G36*
X2044476Y-293472D02*
X2044476Y-283122D01*
X2049429Y-283122D01*
X2049429Y-293472D01*
X2044476Y-293472D01*
G37*
G36*
X2045201Y-291721D02*
X2052520Y-284403D01*
X2056022Y-287905D01*
X2048704Y-295224D01*
X2045201Y-291721D01*
G37*
G36*
X2046952Y-290996D02*
X2057302Y-290996D01*
X2057302Y-295949D01*
X2046952Y-295949D01*
X2046952Y-290996D01*
G37*
G36*
X2048704Y-291721D02*
X2056022Y-299040D01*
X2052520Y-302542D01*
X2045201Y-295224D01*
X2048704Y-291721D01*
G37*
G36*
X2049429Y-293472D02*
X2049429Y-303822D01*
X2044476Y-303822D01*
X2044476Y-293472D01*
X2049429Y-293472D01*
G37*
G36*
X2048704Y-295224D02*
X2041385Y-302542D01*
X2037883Y-299040D01*
X2045201Y-291721D01*
X2048704Y-295224D01*
G37*
G36*
X2046952Y-295949D02*
X2036602Y-295949D01*
X2036602Y-290996D01*
X2046952Y-290996D01*
X2046952Y-295949D01*
G37*
G36*
X2045201Y-295224D02*
X2037883Y-287905D01*
X2041385Y-284403D01*
X2048704Y-291721D01*
X2045201Y-295224D01*
G37*
G54D32*
G36*
X2044476Y-445896D02*
X2044476Y-435546D01*
X2049429Y-435546D01*
X2049429Y-445896D01*
X2044476Y-445896D01*
G37*
G36*
X2045201Y-444144D02*
X2052520Y-436826D01*
X2056022Y-440328D01*
X2048704Y-447647D01*
X2045201Y-444144D01*
G37*
G36*
X2046952Y-443419D02*
X2057302Y-443419D01*
X2057302Y-448372D01*
X2046952Y-448372D01*
X2046952Y-443419D01*
G37*
G36*
X2048704Y-444144D02*
X2056022Y-451463D01*
X2052520Y-454965D01*
X2045201Y-447647D01*
X2048704Y-444144D01*
G37*
G36*
X2049429Y-445896D02*
X2049429Y-456246D01*
X2044476Y-456246D01*
X2044476Y-445896D01*
X2049429Y-445896D01*
G37*
G36*
X2048704Y-447647D02*
X2041385Y-454965D01*
X2037883Y-451463D01*
X2045201Y-444144D01*
X2048704Y-447647D01*
G37*
G36*
X2046952Y-448372D02*
X2036602Y-448372D01*
X2036602Y-443419D01*
X2046952Y-443419D01*
X2046952Y-448372D01*
G37*
G36*
X2045201Y-447647D02*
X2037883Y-440328D01*
X2041385Y-436826D01*
X2048704Y-444144D01*
X2045201Y-447647D01*
G37*
G54D33*
G36*
X2678959Y-455092D02*
X2652864Y-455092D01*
X2652864Y-447894D01*
X2678959Y-447894D01*
X2678959Y-455092D01*
G37*
G36*
X2676414Y-454038D02*
X2657962Y-435586D01*
X2663052Y-430496D01*
X2681504Y-448948D01*
X2676414Y-454038D01*
G37*
G36*
X2675360Y-451493D02*
X2675360Y-425398D01*
X2682558Y-425398D01*
X2682558Y-451493D01*
X2675360Y-451493D01*
G37*
G36*
X2676414Y-448948D02*
X2694866Y-430496D01*
X2699956Y-435586D01*
X2681504Y-454038D01*
X2676414Y-448948D01*
G37*
G36*
X2678959Y-447894D02*
X2705054Y-447894D01*
X2705054Y-455092D01*
X2678959Y-455092D01*
X2678959Y-447894D01*
G37*
G36*
X2681504Y-448948D02*
X2699956Y-467400D01*
X2694866Y-472490D01*
X2676414Y-454038D01*
X2681504Y-448948D01*
G37*
G36*
X2682558Y-451493D02*
X2682558Y-477588D01*
X2675360Y-477588D01*
X2675360Y-451493D01*
X2682558Y-451493D01*
G37*
G36*
X2681504Y-454038D02*
X2663052Y-472490D01*
X2657962Y-467400D01*
X2676414Y-448948D01*
X2681504Y-454038D01*
G37*
G54D34*
G36*
X2567689Y-469236D02*
X2555094Y-469236D01*
X2555094Y-464218D01*
X2567689Y-464218D01*
X2567689Y-469236D01*
G37*
G36*
X2565915Y-468502D02*
X2557009Y-459596D01*
X2560558Y-456046D01*
X2569464Y-464952D01*
X2565915Y-468502D01*
G37*
G36*
X2565180Y-466727D02*
X2565180Y-454132D01*
X2570199Y-454132D01*
X2570199Y-466727D01*
X2565180Y-466727D01*
G37*
G36*
X2565915Y-464952D02*
X2574821Y-456046D01*
X2578370Y-459596D01*
X2569464Y-468502D01*
X2565915Y-464952D01*
G37*
G36*
X2567689Y-464218D02*
X2580284Y-464218D01*
X2580284Y-469236D01*
X2567689Y-469236D01*
X2567689Y-464218D01*
G37*
G36*
X2569464Y-464952D02*
X2578370Y-473858D01*
X2574821Y-477408D01*
X2565915Y-468502D01*
X2569464Y-464952D01*
G37*
G36*
X2570199Y-466727D02*
X2570199Y-479322D01*
X2565180Y-479322D01*
X2565180Y-466727D01*
X2570199Y-466727D01*
G37*
G36*
X2569464Y-468502D02*
X2560558Y-477408D01*
X2557009Y-473858D01*
X2565915Y-464952D01*
X2569464Y-468502D01*
G37*
G54D33*
G36*
X2428990Y-455092D02*
X2402895Y-455092D01*
X2402895Y-447894D01*
X2428990Y-447894D01*
X2428990Y-455092D01*
G37*
G36*
X2426445Y-454038D02*
X2407993Y-435586D01*
X2413083Y-430496D01*
X2431535Y-448948D01*
X2426445Y-454038D01*
G37*
G36*
X2425390Y-451493D02*
X2425390Y-425398D01*
X2432589Y-425398D01*
X2432589Y-451493D01*
X2425390Y-451493D01*
G37*
G36*
X2426445Y-448948D02*
X2444897Y-430496D01*
X2449987Y-435586D01*
X2431535Y-454038D01*
X2426445Y-448948D01*
G37*
G36*
X2428990Y-447894D02*
X2455085Y-447894D01*
X2455085Y-455092D01*
X2428990Y-455092D01*
X2428990Y-447894D01*
G37*
G36*
X2431535Y-448948D02*
X2449987Y-467400D01*
X2444897Y-472490D01*
X2426445Y-454038D01*
X2431535Y-448948D01*
G37*
G36*
X2432589Y-451493D02*
X2432589Y-477588D01*
X2425390Y-477588D01*
X2425390Y-451493D01*
X2432589Y-451493D01*
G37*
G36*
X2431535Y-454038D02*
X2413083Y-472490D01*
X2407993Y-467400D01*
X2426445Y-448948D01*
X2431535Y-454038D01*
G37*
G54D35*
G36*
X3639626Y-530192D02*
X3639626Y-545492D01*
X3634442Y-545492D01*
X3634442Y-530192D01*
X3639626Y-530192D01*
G37*
G36*
X3638867Y-532025D02*
X3628048Y-542844D01*
X3624383Y-539178D01*
X3635202Y-528359D01*
X3638867Y-532025D01*
G37*
G36*
X3637034Y-532784D02*
X3621734Y-532784D01*
X3621734Y-527600D01*
X3637034Y-527600D01*
X3637034Y-532784D01*
G37*
G36*
X3635202Y-532025D02*
X3624383Y-521206D01*
X3628048Y-517540D01*
X3638867Y-528359D01*
X3635202Y-532025D01*
G37*
G36*
X3634442Y-530192D02*
X3634442Y-514892D01*
X3639626Y-514892D01*
X3639626Y-530192D01*
X3634442Y-530192D01*
G37*
G36*
X3635202Y-528359D02*
X3646020Y-517540D01*
X3649686Y-521206D01*
X3638867Y-532025D01*
X3635202Y-528359D01*
G37*
G36*
X3637034Y-527600D02*
X3652334Y-527600D01*
X3652334Y-532784D01*
X3637034Y-532784D01*
X3637034Y-527600D01*
G37*
G36*
X3638867Y-528359D02*
X3649686Y-539178D01*
X3646020Y-542844D01*
X3635202Y-532025D01*
X3638867Y-528359D01*
G37*
G54D35*
G36*
X3588818Y-530191D02*
X3588818Y-545491D01*
X3583634Y-545491D01*
X3583634Y-530191D01*
X3588818Y-530191D01*
G37*
G36*
X3588059Y-532024D02*
X3577240Y-542843D01*
X3573574Y-539177D01*
X3584393Y-528358D01*
X3588059Y-532024D01*
G37*
G36*
X3586226Y-532783D02*
X3570926Y-532783D01*
X3570926Y-527599D01*
X3586226Y-527599D01*
X3586226Y-532783D01*
G37*
G36*
X3584393Y-532024D02*
X3573574Y-521205D01*
X3577240Y-517540D01*
X3588059Y-528358D01*
X3584393Y-532024D01*
G37*
G36*
X3583634Y-530191D02*
X3583634Y-514891D01*
X3588818Y-514891D01*
X3588818Y-530191D01*
X3583634Y-530191D01*
G37*
G36*
X3584393Y-528358D02*
X3595212Y-517540D01*
X3598878Y-521205D01*
X3588059Y-532024D01*
X3584393Y-528358D01*
G37*
G36*
X3586226Y-527599D02*
X3601526Y-527599D01*
X3601526Y-532783D01*
X3586226Y-532783D01*
X3586226Y-527599D01*
G37*
G36*
X3588059Y-528358D02*
X3598878Y-539177D01*
X3595212Y-542843D01*
X3584393Y-532024D01*
X3588059Y-528358D01*
G37*
G54D36*
G36*
X3490132Y-510344D02*
X3479802Y-510344D01*
X3479802Y-506846D01*
X3490132Y-506846D01*
X3490132Y-510344D01*
G37*
G36*
X3488895Y-509831D02*
X3481590Y-502527D01*
X3484064Y-500053D01*
X3491368Y-507358D01*
X3488895Y-509831D01*
G37*
G36*
X3488382Y-508594D02*
X3488382Y-498264D01*
X3491880Y-498264D01*
X3491880Y-508594D01*
X3488382Y-508594D01*
G37*
G36*
X3488895Y-507358D02*
X3496199Y-500053D01*
X3498673Y-502527D01*
X3491368Y-509831D01*
X3488895Y-507358D01*
G37*
G36*
X3490132Y-506846D02*
X3500462Y-506846D01*
X3500462Y-510344D01*
X3490132Y-510344D01*
X3490132Y-506846D01*
G37*
G36*
X3491368Y-507358D02*
X3498673Y-514662D01*
X3496199Y-517136D01*
X3488895Y-509831D01*
X3491368Y-507358D01*
G37*
G36*
X3491880Y-508594D02*
X3491880Y-518924D01*
X3488382Y-518924D01*
X3488382Y-508594D01*
X3491880Y-508594D01*
G37*
G36*
X3491368Y-509831D02*
X3484064Y-517136D01*
X3481590Y-514662D01*
X3488895Y-507358D01*
X3491368Y-509831D01*
G37*
G54D37*
G36*
X3523411Y-541346D02*
X3505421Y-541346D01*
X3505421Y-536309D01*
X3523411Y-536309D01*
X3523411Y-541346D01*
G37*
G36*
X3521630Y-540608D02*
X3508910Y-527887D01*
X3512471Y-524326D01*
X3525192Y-537047D01*
X3521630Y-540608D01*
G37*
G36*
X3520893Y-538828D02*
X3520893Y-520838D01*
X3525929Y-520838D01*
X3525929Y-538828D01*
X3520893Y-538828D01*
G37*
G36*
X3521630Y-537047D02*
X3534351Y-524326D01*
X3537912Y-527887D01*
X3525192Y-540608D01*
X3521630Y-537047D01*
G37*
G36*
X3523411Y-536309D02*
X3541401Y-536309D01*
X3541401Y-541346D01*
X3523411Y-541346D01*
X3523411Y-536309D01*
G37*
G36*
X3525192Y-537047D02*
X3537912Y-549768D01*
X3534351Y-553329D01*
X3521630Y-540608D01*
X3525192Y-537047D01*
G37*
G36*
X3525929Y-538828D02*
X3525929Y-556818D01*
X3520893Y-556818D01*
X3520893Y-538828D01*
X3525929Y-538828D01*
G37*
G36*
X3525192Y-540608D02*
X3512471Y-553329D01*
X3508910Y-549768D01*
X3521630Y-537047D01*
X3525192Y-540608D01*
G37*
G54D38*
G36*
X3456094Y-549426D02*
X3438094Y-549426D01*
X3438094Y-544476D01*
X3456094Y-544476D01*
X3456094Y-549426D01*
G37*
G36*
X3454344Y-548701D02*
X3441616Y-535973D01*
X3445117Y-532473D01*
X3457844Y-545201D01*
X3454344Y-548701D01*
G37*
G36*
X3453620Y-546951D02*
X3453620Y-528951D01*
X3458570Y-528951D01*
X3458570Y-546951D01*
X3453620Y-546951D01*
G37*
G36*
X3454344Y-545201D02*
X3467072Y-532473D01*
X3470572Y-535973D01*
X3457844Y-548701D01*
X3454344Y-545201D01*
G37*
G36*
X3456094Y-544476D02*
X3474094Y-544476D01*
X3474094Y-549426D01*
X3456094Y-549426D01*
X3456094Y-544476D01*
G37*
G36*
X3457844Y-545201D02*
X3470572Y-557929D01*
X3467072Y-561429D01*
X3454344Y-548701D01*
X3457844Y-545201D01*
G37*
G36*
X3458570Y-546951D02*
X3458570Y-564951D01*
X3453620Y-564951D01*
X3453620Y-546951D01*
X3458570Y-546951D01*
G37*
G36*
X3457844Y-548701D02*
X3445117Y-561429D01*
X3441616Y-557929D01*
X3454344Y-545201D01*
X3457844Y-548701D01*
G37*
G54D37*
G36*
X3388772Y-541346D02*
X3370782Y-541346D01*
X3370782Y-536309D01*
X3388772Y-536309D01*
X3388772Y-541346D01*
G37*
G36*
X3386991Y-540608D02*
X3374270Y-527887D01*
X3377832Y-524326D01*
X3390553Y-537047D01*
X3386991Y-540608D01*
G37*
G36*
X3386254Y-538828D02*
X3386254Y-520838D01*
X3391290Y-520838D01*
X3391290Y-538828D01*
X3386254Y-538828D01*
G37*
G36*
X3386991Y-537047D02*
X3399712Y-524326D01*
X3403274Y-527887D01*
X3390553Y-540608D01*
X3386991Y-537047D01*
G37*
G36*
X3388772Y-536309D02*
X3406762Y-536309D01*
X3406762Y-541346D01*
X3388772Y-541346D01*
X3388772Y-536309D01*
G37*
G36*
X3390553Y-537047D02*
X3403274Y-549768D01*
X3399712Y-553329D01*
X3386991Y-540608D01*
X3390553Y-537047D01*
G37*
G36*
X3391290Y-538828D02*
X3391290Y-556818D01*
X3386254Y-556818D01*
X3386254Y-538828D01*
X3391290Y-538828D01*
G37*
G36*
X3390553Y-540608D02*
X3377832Y-553329D01*
X3374270Y-549768D01*
X3386991Y-537047D01*
X3390553Y-540608D01*
G37*
G54D39*
G36*
X3178430Y-568543D02*
X3178430Y-582758D01*
X3168391Y-582758D01*
X3168391Y-568543D01*
X3178430Y-568543D01*
G37*
G36*
X3173411Y-573562D02*
X3159196Y-573562D01*
X3159196Y-563524D01*
X3173411Y-563524D01*
X3173411Y-573562D01*
G37*
G36*
X3168391Y-568543D02*
X3168391Y-554328D01*
X3178430Y-554328D01*
X3178430Y-568543D01*
X3168391Y-568543D01*
G37*
G36*
X3173411Y-563524D02*
X3187626Y-563524D01*
X3187626Y-573562D01*
X3173411Y-573562D01*
X3173411Y-563524D01*
G37*
G54D40*
G36*
X3153344Y-568545D02*
X3153344Y-581140D01*
X3143360Y-581140D01*
X3143360Y-568545D01*
X3153344Y-568545D01*
G37*
G36*
X3148352Y-573537D02*
X3135757Y-573537D01*
X3135757Y-563553D01*
X3148352Y-563553D01*
X3148352Y-573537D01*
G37*
G36*
X3143360Y-568545D02*
X3143360Y-555950D01*
X3153344Y-555950D01*
X3153344Y-568545D01*
X3143360Y-568545D01*
G37*
G36*
X3148352Y-563553D02*
X3160947Y-563553D01*
X3160947Y-573537D01*
X3148352Y-573537D01*
X3148352Y-563553D01*
G37*
G54D41*
G36*
X3153316Y-543649D02*
X3153316Y-556244D01*
X3143386Y-556244D01*
X3143386Y-543649D01*
X3153316Y-543649D01*
G37*
G36*
X3148351Y-548614D02*
X3135756Y-548614D01*
X3135756Y-538684D01*
X3148351Y-538684D01*
X3148351Y-548614D01*
G37*
G36*
X3143386Y-543649D02*
X3143386Y-531054D01*
X3153316Y-531054D01*
X3153316Y-543649D01*
X3143386Y-543649D01*
G37*
G36*
X3148351Y-538684D02*
X3160946Y-538684D01*
X3160946Y-548614D01*
X3148351Y-548614D01*
X3148351Y-538684D01*
G37*
G54D42*
G36*
X3128454Y-543650D02*
X3128454Y-558950D01*
X3118446Y-558950D01*
X3118446Y-543650D01*
X3128454Y-543650D01*
G37*
G36*
X3123450Y-548654D02*
X3108150Y-548654D01*
X3108150Y-538646D01*
X3123450Y-538646D01*
X3123450Y-548654D01*
G37*
G36*
X3118446Y-543650D02*
X3118446Y-528350D01*
X3128454Y-528350D01*
X3128454Y-543650D01*
X3118446Y-543650D01*
G37*
G36*
X3123450Y-538646D02*
X3138750Y-538646D01*
X3138750Y-548654D01*
X3123450Y-548654D01*
X3123450Y-538646D01*
G37*
G54D43*
G36*
X3078656Y-568543D02*
X3078656Y-582758D01*
X3068682Y-582758D01*
X3068682Y-568543D01*
X3078656Y-568543D01*
G37*
G36*
X3073669Y-573530D02*
X3059454Y-573530D01*
X3059454Y-563556D01*
X3073669Y-563556D01*
X3073669Y-573530D01*
G37*
G36*
X3068682Y-568543D02*
X3068682Y-554328D01*
X3078656Y-554328D01*
X3078656Y-568543D01*
X3068682Y-568543D01*
G37*
G36*
X3073669Y-563556D02*
X3087884Y-563556D01*
X3087884Y-573530D01*
X3073669Y-573530D01*
X3073669Y-563556D01*
G37*
G54D40*
G36*
X3103553Y-568545D02*
X3103553Y-581140D01*
X3093569Y-581140D01*
X3093569Y-568545D01*
X3103553Y-568545D01*
G37*
G36*
X3098561Y-573537D02*
X3085966Y-573537D01*
X3085966Y-563553D01*
X3098561Y-563553D01*
X3098561Y-573537D01*
G37*
G36*
X3093569Y-568545D02*
X3093569Y-555950D01*
X3103553Y-555950D01*
X3103553Y-568545D01*
X3093569Y-568545D01*
G37*
G36*
X3098561Y-563553D02*
X3111156Y-563553D01*
X3111156Y-573537D01*
X3098561Y-573537D01*
X3098561Y-563553D01*
G37*
G54D40*
G36*
X3103554Y-543649D02*
X3103554Y-556244D01*
X3093570Y-556244D01*
X3093570Y-543649D01*
X3103554Y-543649D01*
G37*
G36*
X3098562Y-548641D02*
X3085967Y-548641D01*
X3085967Y-538657D01*
X3098562Y-538657D01*
X3098562Y-548641D01*
G37*
G36*
X3093570Y-543649D02*
X3093570Y-531054D01*
X3103554Y-531054D01*
X3103554Y-543649D01*
X3093570Y-543649D01*
G37*
G36*
X3098562Y-538657D02*
X3111157Y-538657D01*
X3111157Y-548641D01*
X3098562Y-548641D01*
X3098562Y-538657D01*
G37*
G54D33*
G36*
X2996015Y-455092D02*
X2969920Y-455092D01*
X2969920Y-447894D01*
X2996015Y-447894D01*
X2996015Y-455092D01*
G37*
G36*
X2993470Y-454038D02*
X2975018Y-435586D01*
X2980108Y-430496D01*
X2998560Y-448948D01*
X2993470Y-454038D01*
G37*
G36*
X2992416Y-451493D02*
X2992416Y-425398D01*
X2999614Y-425398D01*
X2999614Y-451493D01*
X2992416Y-451493D01*
G37*
G36*
X2993470Y-448948D02*
X3011922Y-430496D01*
X3017012Y-435586D01*
X2998560Y-454038D01*
X2993470Y-448948D01*
G37*
G36*
X2996015Y-447894D02*
X3022110Y-447894D01*
X3022110Y-455092D01*
X2996015Y-455092D01*
X2996015Y-447894D01*
G37*
G36*
X2998560Y-448948D02*
X3017012Y-467400D01*
X3011922Y-472490D01*
X2993470Y-454038D01*
X2998560Y-448948D01*
G37*
G36*
X2999614Y-451493D02*
X2999614Y-477588D01*
X2992416Y-477588D01*
X2992416Y-451493D01*
X2999614Y-451493D01*
G37*
G36*
X2998560Y-454038D02*
X2980108Y-472490D01*
X2975018Y-467400D01*
X2993470Y-448948D01*
X2998560Y-454038D01*
G37*
G54D34*
G36*
X2884745Y-469237D02*
X2872150Y-469237D01*
X2872150Y-464218D01*
X2884745Y-464218D01*
X2884745Y-469237D01*
G37*
G36*
X2882971Y-468502D02*
X2874065Y-459596D01*
X2877614Y-456047D01*
X2886520Y-464953D01*
X2882971Y-468502D01*
G37*
G36*
X2882236Y-466727D02*
X2882236Y-454132D01*
X2887255Y-454132D01*
X2887255Y-466727D01*
X2882236Y-466727D01*
G37*
G36*
X2882971Y-464953D02*
X2891877Y-456047D01*
X2895426Y-459596D01*
X2886520Y-468502D01*
X2882971Y-464953D01*
G37*
G36*
X2884745Y-464218D02*
X2897340Y-464218D01*
X2897340Y-469237D01*
X2884745Y-469237D01*
X2884745Y-464218D01*
G37*
G36*
X2886520Y-464953D02*
X2895426Y-473859D01*
X2891877Y-477408D01*
X2882971Y-468502D01*
X2886520Y-464953D01*
G37*
G36*
X2887255Y-466727D02*
X2887255Y-479322D01*
X2882236Y-479322D01*
X2882236Y-466727D01*
X2887255Y-466727D01*
G37*
G36*
X2886520Y-468502D02*
X2877614Y-477408D01*
X2874065Y-473859D01*
X2882971Y-464953D01*
X2886520Y-468502D01*
G37*
G54D33*
G36*
X2746046Y-455092D02*
X2719951Y-455092D01*
X2719951Y-447894D01*
X2746046Y-447894D01*
X2746046Y-455092D01*
G37*
G36*
X2743501Y-454038D02*
X2725049Y-435586D01*
X2730139Y-430496D01*
X2748591Y-448948D01*
X2743501Y-454038D01*
G37*
G36*
X2742447Y-451493D02*
X2742447Y-425398D01*
X2749646Y-425398D01*
X2749646Y-451493D01*
X2742447Y-451493D01*
G37*
G36*
X2743501Y-448948D02*
X2761953Y-430496D01*
X2767043Y-435586D01*
X2748591Y-454038D01*
X2743501Y-448948D01*
G37*
G36*
X2746046Y-447894D02*
X2772141Y-447894D01*
X2772141Y-455092D01*
X2746046Y-455092D01*
X2746046Y-447894D01*
G37*
G36*
X2748591Y-448948D02*
X2767043Y-467400D01*
X2761953Y-472490D01*
X2743501Y-454038D01*
X2748591Y-448948D01*
G37*
G36*
X2749646Y-451493D02*
X2749646Y-477588D01*
X2742447Y-477588D01*
X2742447Y-451493D01*
X2749646Y-451493D01*
G37*
G36*
X2748591Y-454038D02*
X2730139Y-472490D01*
X2725049Y-467400D01*
X2743501Y-448948D01*
X2748591Y-454038D01*
G37*
G54D44*
G36*
X3360086Y-517051D02*
X3360086Y-501751D01*
X3367286Y-501751D01*
X3367286Y-517051D01*
X3360086Y-517051D01*
G37*
G36*
X3363686Y-513451D02*
X3378986Y-513451D01*
X3378986Y-520651D01*
X3363686Y-520651D01*
X3363686Y-513451D01*
G37*
G36*
X3367286Y-517051D02*
X3367286Y-532351D01*
X3360086Y-532351D01*
X3360086Y-517051D01*
X3367286Y-517051D01*
G37*
G36*
X3363686Y-520651D02*
X3348386Y-520651D01*
X3348386Y-513451D01*
X3363686Y-513451D01*
X3363686Y-520651D01*
G37*
G54D45*
G36*
X3260084Y-546721D02*
X3260084Y-535531D01*
X3264544Y-535531D01*
X3264544Y-546721D01*
X3260084Y-546721D01*
G37*
G36*
X3262314Y-544491D02*
X3273504Y-544491D01*
X3273504Y-548951D01*
X3262314Y-548951D01*
X3262314Y-544491D01*
G37*
G36*
X3264544Y-546721D02*
X3264544Y-557911D01*
X3260084Y-557911D01*
X3260084Y-546721D01*
X3264544Y-546721D01*
G37*
G36*
X3262314Y-548951D02*
X3251124Y-548951D01*
X3251124Y-544491D01*
X3262314Y-544491D01*
X3262314Y-548951D01*
G37*
G54D44*
G36*
X3292756Y-509054D02*
X3292756Y-493754D01*
X3299956Y-493754D01*
X3299956Y-509054D01*
X3292756Y-509054D01*
G37*
G36*
X3296356Y-505454D02*
X3311656Y-505454D01*
X3311656Y-512654D01*
X3296356Y-512654D01*
X3296356Y-505454D01*
G37*
G36*
X3299956Y-509054D02*
X3299956Y-524354D01*
X3292756Y-524354D01*
X3292756Y-509054D01*
X3299956Y-509054D01*
G37*
G36*
X3296356Y-512654D02*
X3281056Y-512654D01*
X3281056Y-505454D01*
X3296356Y-505454D01*
X3296356Y-512654D01*
G37*
G54D46*
G36*
X3328166Y-546721D02*
X3328166Y-535526D01*
X3332630Y-535526D01*
X3332630Y-546721D01*
X3328166Y-546721D01*
G37*
G36*
X3330398Y-544489D02*
X3341593Y-544489D01*
X3341593Y-548953D01*
X3330398Y-548953D01*
X3330398Y-544489D01*
G37*
G36*
X3332630Y-546721D02*
X3332630Y-557916D01*
X3328166Y-557916D01*
X3328166Y-546721D01*
X3332630Y-546721D01*
G37*
G36*
X3330398Y-548953D02*
X3319203Y-548953D01*
X3319203Y-544489D01*
X3330398Y-544489D01*
X3330398Y-548953D01*
G37*
G54D44*
G36*
X3225438Y-517051D02*
X3225438Y-501751D01*
X3232638Y-501751D01*
X3232638Y-517051D01*
X3225438Y-517051D01*
G37*
G36*
X3229038Y-513451D02*
X3244338Y-513451D01*
X3244338Y-520651D01*
X3229038Y-520651D01*
X3229038Y-513451D01*
G37*
G36*
X3232638Y-517051D02*
X3232638Y-532351D01*
X3225438Y-532351D01*
X3225438Y-517051D01*
X3232638Y-517051D01*
G37*
G36*
X3229038Y-520651D02*
X3213738Y-520651D01*
X3213738Y-513451D01*
X3229038Y-513451D01*
X3229038Y-520651D01*
G37*
G54D47*
G36*
X1614854Y-553632D02*
X1604524Y-553632D01*
X1604524Y-549744D01*
X1614854Y-549744D01*
X1614854Y-553632D01*
G37*
G36*
X1612910Y-551688D02*
X1612910Y-541358D01*
X1616797Y-541358D01*
X1616797Y-551688D01*
X1612910Y-551688D01*
G37*
G36*
X1614854Y-549744D02*
X1625184Y-549744D01*
X1625184Y-553632D01*
X1614854Y-553632D01*
X1614854Y-549744D01*
G37*
G36*
X1616797Y-551688D02*
X1616797Y-562018D01*
X1612910Y-562018D01*
X1612910Y-551688D01*
X1616797Y-551688D01*
G37*
G54D47*
G36*
X1767272Y-553632D02*
X1756942Y-553632D01*
X1756942Y-549744D01*
X1767272Y-549744D01*
X1767272Y-553632D01*
G37*
G36*
X1765328Y-551688D02*
X1765328Y-541358D01*
X1769215Y-541358D01*
X1769215Y-551688D01*
X1765328Y-551688D01*
G37*
G36*
X1767272Y-549744D02*
X1777602Y-549744D01*
X1777602Y-553632D01*
X1767272Y-553632D01*
X1767272Y-549744D01*
G37*
G36*
X1769215Y-551688D02*
X1769215Y-562018D01*
X1765328Y-562018D01*
X1765328Y-551688D01*
X1769215Y-551688D01*
G37*
G54D47*
G36*
X1538642Y-553632D02*
X1528312Y-553632D01*
X1528312Y-549744D01*
X1538642Y-549744D01*
X1538642Y-553632D01*
G37*
G36*
X1536698Y-551688D02*
X1536698Y-541358D01*
X1540585Y-541358D01*
X1540585Y-551688D01*
X1536698Y-551688D01*
G37*
G36*
X1538642Y-549744D02*
X1548972Y-549744D01*
X1548972Y-553632D01*
X1538642Y-553632D01*
X1538642Y-549744D01*
G37*
G36*
X1540585Y-551688D02*
X1540585Y-562018D01*
X1536698Y-562018D01*
X1536698Y-551688D01*
X1540585Y-551688D01*
G37*
G54D47*
G36*
X1525936Y-579042D02*
X1515606Y-579042D01*
X1515606Y-575156D01*
X1525936Y-575156D01*
X1525936Y-579042D01*
G37*
G36*
X1523993Y-577099D02*
X1523993Y-566769D01*
X1527880Y-566769D01*
X1527880Y-577099D01*
X1523993Y-577099D01*
G37*
G36*
X1525936Y-575156D02*
X1536266Y-575156D01*
X1536266Y-579042D01*
X1525936Y-579042D01*
X1525936Y-575156D01*
G37*
G36*
X1527880Y-577099D02*
X1527880Y-587429D01*
X1523993Y-587429D01*
X1523993Y-577099D01*
X1527880Y-577099D01*
G37*
G54D47*
G36*
X1729168Y-533566D02*
X1718838Y-533566D01*
X1718838Y-529680D01*
X1729168Y-529680D01*
X1729168Y-533566D01*
G37*
G36*
X1727224Y-531623D02*
X1727224Y-521293D01*
X1731111Y-521293D01*
X1731111Y-531623D01*
X1727224Y-531623D01*
G37*
G36*
X1729168Y-529680D02*
X1739498Y-529680D01*
X1739498Y-533566D01*
X1729168Y-533566D01*
X1729168Y-529680D01*
G37*
G36*
X1731111Y-531623D02*
X1731111Y-541953D01*
X1727224Y-541953D01*
X1727224Y-531623D01*
X1731111Y-531623D01*
G37*
G54D47*
G36*
X1525936Y-533566D02*
X1515606Y-533566D01*
X1515606Y-529680D01*
X1525936Y-529680D01*
X1525936Y-533566D01*
G37*
G36*
X1523993Y-531623D02*
X1523993Y-521293D01*
X1527880Y-521293D01*
X1527880Y-531623D01*
X1523993Y-531623D01*
G37*
G36*
X1525936Y-529680D02*
X1536266Y-529680D01*
X1536266Y-533566D01*
X1525936Y-533566D01*
X1525936Y-529680D01*
G37*
G36*
X1527880Y-531623D02*
X1527880Y-541953D01*
X1523993Y-541953D01*
X1523993Y-531623D01*
X1527880Y-531623D01*
G37*
G54D47*
G36*
X1729168Y-579042D02*
X1718838Y-579042D01*
X1718838Y-575156D01*
X1729168Y-575156D01*
X1729168Y-579042D01*
G37*
G36*
X1727224Y-577099D02*
X1727224Y-566769D01*
X1731111Y-566769D01*
X1731111Y-577099D01*
X1727224Y-577099D01*
G37*
G36*
X1729168Y-575156D02*
X1739498Y-575156D01*
X1739498Y-579042D01*
X1729168Y-579042D01*
X1729168Y-575156D01*
G37*
G36*
X1731111Y-577099D02*
X1731111Y-587429D01*
X1727224Y-587429D01*
X1727224Y-577099D01*
X1731111Y-577099D01*
G37*
G54D47*
G36*
X1691066Y-553632D02*
X1680736Y-553632D01*
X1680736Y-549744D01*
X1691066Y-549744D01*
X1691066Y-553632D01*
G37*
G36*
X1689123Y-551688D02*
X1689123Y-541358D01*
X1693010Y-541358D01*
X1693010Y-551688D01*
X1689123Y-551688D01*
G37*
G36*
X1691066Y-549744D02*
X1701396Y-549744D01*
X1701396Y-553632D01*
X1691066Y-553632D01*
X1691066Y-549744D01*
G37*
G36*
X1693010Y-551688D02*
X1693010Y-562018D01*
X1689123Y-562018D01*
X1689123Y-551688D01*
X1693010Y-551688D01*
G37*
G54D47*
G36*
X1564052Y-553632D02*
X1553722Y-553632D01*
X1553722Y-549744D01*
X1564052Y-549744D01*
X1564052Y-553632D01*
G37*
G36*
X1562108Y-551688D02*
X1562108Y-541358D01*
X1565995Y-541358D01*
X1565995Y-551688D01*
X1562108Y-551688D01*
G37*
G36*
X1564052Y-549744D02*
X1574382Y-549744D01*
X1574382Y-553632D01*
X1564052Y-553632D01*
X1564052Y-549744D01*
G37*
G36*
X1565995Y-551688D02*
X1565995Y-562018D01*
X1562108Y-562018D01*
X1562108Y-551688D01*
X1565995Y-551688D01*
G37*
G36*
X3832182Y-466367D02*
X3851182Y-466367D01*
X3851182Y-485367D01*
X3832182Y-485367D01*
X3832182Y-466367D01*
G37*
X3892482Y-475867D02*
G54D48*
D03*
X3867078Y-475867D02*
G54D48*
D03*
X1818334Y-102638D02*
G54D49*
D03*
X1843736Y-102626D02*
G54D49*
D03*
X1869139Y-102626D02*
G54D49*
D03*
X1894523Y-102626D02*
G54D49*
D03*
X1919949Y-102638D02*
G54D49*
D03*
X1945351Y-102626D02*
G54D49*
D03*
X1970754Y-102626D02*
G54D49*
D03*
X1996138Y-102626D02*
G54D49*
D03*
X2021564Y-102638D02*
G54D49*
D03*
X2072348Y-102626D02*
G54D49*
D03*
X2097750Y-102614D02*
G54D49*
D03*
X2123162Y-102614D02*
G54D49*
D03*
X2148553Y-102614D02*
G54D49*
D03*
X2173988Y-102626D02*
G54D49*
D03*
X2199398Y-102614D02*
G54D49*
D03*
X2224808Y-102614D02*
G54D49*
D03*
X2250200Y-102614D02*
G54D49*
D03*
X2275634Y-102626D02*
G54D49*
D03*
X2046948Y-102626D02*
G54D49*
D03*
X2301036Y-102626D02*
G54D49*
D03*
G36*
X2319623Y-95788D02*
X2333323Y-95788D01*
X2333323Y-109488D01*
X2319623Y-109488D01*
X2319623Y-95788D01*
G37*
X1818334Y-255038D02*
G54D49*
D03*
X1843736Y-255026D02*
G54D49*
D03*
X1869139Y-255026D02*
G54D49*
D03*
X1894523Y-255026D02*
G54D49*
D03*
X1919949Y-255038D02*
G54D49*
D03*
X1945351Y-255026D02*
G54D49*
D03*
X1970754Y-255026D02*
G54D49*
D03*
X1996138Y-255026D02*
G54D49*
D03*
X2021564Y-255038D02*
G54D49*
D03*
X2072348Y-255026D02*
G54D49*
D03*
X2097750Y-255014D02*
G54D49*
D03*
X2123162Y-255014D02*
G54D49*
D03*
X2148553Y-255014D02*
G54D49*
D03*
X2173988Y-255026D02*
G54D49*
D03*
X2199398Y-255014D02*
G54D49*
D03*
X2224808Y-255014D02*
G54D49*
D03*
X2250200Y-255014D02*
G54D49*
D03*
X2275634Y-255026D02*
G54D49*
D03*
X2046948Y-255026D02*
G54D49*
D03*
X2301036Y-255026D02*
G54D49*
D03*
X2326473Y-255064D02*
G54D49*
D03*
X1818338Y-293485D02*
G54D49*
D03*
X1843741Y-293472D02*
G54D49*
D03*
X1869144Y-293473D02*
G54D49*
D03*
X1894527Y-293473D02*
G54D49*
D03*
X1919954Y-293485D02*
G54D49*
D03*
X1945356Y-293472D02*
G54D49*
D03*
X1970759Y-293473D02*
G54D49*
D03*
X1996142Y-293473D02*
G54D49*
D03*
X2021569Y-293485D02*
G54D49*
D03*
X2072353Y-293473D02*
G54D49*
D03*
X2097755Y-293460D02*
G54D49*
D03*
X2123166Y-293461D02*
G54D49*
D03*
X2148558Y-293461D02*
G54D49*
D03*
X2173992Y-293473D02*
G54D49*
D03*
X2199402Y-293460D02*
G54D49*
D03*
X2224813Y-293461D02*
G54D49*
D03*
X2250205Y-293461D02*
G54D49*
D03*
X2275640Y-293473D02*
G54D49*
D03*
X2046952Y-293472D02*
G54D49*
D03*
X2301041Y-293473D02*
G54D49*
D03*
G36*
X2319628Y-286635D02*
X2333328Y-286635D01*
X2333328Y-300335D01*
X2319628Y-300335D01*
X2319628Y-286635D01*
G37*
X1818338Y-445908D02*
G54D49*
D03*
X1843740Y-445895D02*
G54D49*
D03*
X1869144Y-445896D02*
G54D49*
D03*
X1894527Y-445896D02*
G54D49*
D03*
X1919954Y-445908D02*
G54D49*
D03*
X1945356Y-445895D02*
G54D49*
D03*
X1970758Y-445896D02*
G54D49*
D03*
X1996142Y-445896D02*
G54D49*
D03*
X2021568Y-445908D02*
G54D49*
D03*
X2072352Y-445896D02*
G54D49*
D03*
X2097755Y-445883D02*
G54D49*
D03*
X2123166Y-445884D02*
G54D49*
D03*
X2148558Y-445884D02*
G54D49*
D03*
X2173992Y-445896D02*
G54D49*
D03*
X2199402Y-445883D02*
G54D49*
D03*
X2224813Y-445884D02*
G54D49*
D03*
X2250204Y-445884D02*
G54D49*
D03*
X2275639Y-445896D02*
G54D49*
D03*
X2046952Y-445896D02*
G54D49*
D03*
X2301041Y-445896D02*
G54D49*
D03*
X2326478Y-445934D02*
G54D49*
D03*
X2512568Y-466727D02*
G54D50*
D03*
X2678959Y-451493D02*
G54D51*
D03*
X2540254Y-466727D02*
G54D50*
D03*
X2567689Y-466727D02*
G54D50*
D03*
X2595390Y-466727D02*
G54D50*
D03*
X2526287Y-438278D02*
G54D52*
D03*
X2428990Y-451493D02*
G54D51*
D03*
X2609354Y-438278D02*
G54D52*
D03*
X2581662Y-438278D02*
G54D52*
D03*
X2553975Y-438278D02*
G54D52*
D03*
G36*
X2489095Y-447778D02*
X2489095Y-428778D01*
X2508095Y-428778D01*
X2508095Y-447778D01*
X2489095Y-447778D01*
G37*
X3635760Y-365064D02*
G54D53*
D03*
X3635760Y-403168D02*
G54D53*
D03*
X3637034Y-530192D02*
G54D54*
D03*
X3587492Y-326960D02*
G54D55*
D03*
X3587492Y-365064D02*
G54D55*
D03*
X3587492Y-403168D02*
G54D55*
D03*
X3586226Y-530191D02*
G54D54*
D03*
X3635760Y-326960D02*
G54D53*
D03*
X3422056Y-483700D02*
G54D56*
D03*
X3422056Y-508595D02*
G54D57*
D03*
X3443142Y-508594D02*
G54D57*
D03*
X3469048Y-508594D02*
G54D57*
D03*
X3490132Y-508594D02*
G54D57*
D03*
X3523411Y-538828D02*
G54D58*
D03*
X3456094Y-546951D02*
G54D59*
D03*
X3388772Y-538828D02*
G54D58*
D03*
X3490132Y-483700D02*
G54D56*
D03*
X3173411Y-568543D02*
G54D60*
D03*
X3173246Y-443809D02*
G54D60*
D03*
X3198395Y-468711D02*
G54D60*
D03*
X3148352Y-568545D02*
G54D50*
D03*
X3148351Y-543649D02*
G54D50*
D03*
X3123450Y-543650D02*
G54D54*
D03*
X3073669Y-568543D02*
G54D60*
D03*
X3098561Y-568545D02*
G54D50*
D03*
X3098562Y-543649D02*
G54D50*
D03*
X3073669Y-443809D02*
G54D60*
D03*
X3048521Y-468712D02*
G54D60*
D03*
X3173500Y-468456D02*
G54D50*
D03*
X3148353Y-443556D02*
G54D50*
D03*
X3098561Y-443556D02*
G54D50*
D03*
X3073414Y-468456D02*
G54D50*
D03*
X3783878Y-215183D02*
G54D61*
D03*
X3885220Y-339130D02*
G54D62*
D03*
X3721898Y-459570D02*
G54D63*
D03*
X4012513Y-357953D02*
G54D64*
D03*
X3707664Y-357953D02*
G54D63*
D03*
X3891838Y-570833D02*
G54D64*
D03*
X3809282Y-215184D02*
G54D65*
D03*
X3834684Y-215184D02*
G54D66*
D03*
X3860089Y-215184D02*
G54D65*
D03*
X4007690Y-459569D02*
G54D64*
D03*
X2829625Y-466727D02*
G54D50*
D03*
X2996015Y-451493D02*
G54D51*
D03*
X2857311Y-466727D02*
G54D50*
D03*
X2884745Y-466727D02*
G54D50*
D03*
X2912447Y-466727D02*
G54D50*
D03*
X2843343Y-438278D02*
G54D52*
D03*
X2746046Y-451493D02*
G54D51*
D03*
X2926410Y-438278D02*
G54D52*
D03*
X2898718Y-438278D02*
G54D52*
D03*
X2871032Y-438278D02*
G54D52*
D03*
G36*
X2806151Y-447778D02*
X2806151Y-428778D01*
X2825151Y-428778D01*
X2825151Y-447778D01*
X2806151Y-447778D01*
G37*
X106759Y-274638D02*
G54D67*
D03*
X3363686Y-517051D02*
G54D68*
D03*
X3283408Y-546721D02*
G54D61*
D03*
X3262314Y-546721D02*
G54D65*
D03*
X3262314Y-572127D02*
G54D65*
D03*
X3296356Y-509054D02*
G54D68*
D03*
X3309316Y-546721D02*
G54D61*
D03*
X3330398Y-546721D02*
G54D61*
D03*
X3330398Y-572127D02*
G54D61*
D03*
X3229038Y-517051D02*
G54D68*
D03*
X3305248Y-572127D02*
G54D66*
D03*
X3287466Y-572127D02*
G54D65*
D03*
X1997728Y-531416D02*
G54D56*
D03*
X1897765Y-531416D02*
G54D56*
D03*
X1877776Y-531416D02*
G54D57*
D03*
X2017716Y-531416D02*
G54D57*
D03*
X2037713Y-531416D02*
G54D57*
D03*
X2057707Y-531416D02*
G54D57*
D03*
X1917753Y-531416D02*
G54D57*
D03*
X1937748Y-531416D02*
G54D57*
D03*
X1957743Y-531416D02*
G54D57*
D03*
X1977739Y-531416D02*
G54D57*
D03*
X1614854Y-551688D02*
G54D57*
D03*
X1818080Y-551688D02*
G54D57*
D03*
X1792681Y-551688D02*
G54D57*
D03*
X1767272Y-551688D02*
G54D57*
D03*
X1779976Y-531623D02*
G54D57*
D03*
X1805382Y-531623D02*
G54D57*
D03*
X1754574Y-577099D02*
G54D57*
D03*
X1754574Y-531622D02*
G54D57*
D03*
X1538642Y-551688D02*
G54D57*
D03*
X1513242Y-551688D02*
G54D57*
D03*
X1525936Y-577099D02*
G54D57*
D03*
X1779976Y-577099D02*
G54D57*
D03*
X1805381Y-577099D02*
G54D57*
D03*
X1627552Y-531623D02*
G54D57*
D03*
X1652964Y-531623D02*
G54D57*
D03*
X1678360Y-531623D02*
G54D57*
D03*
X1703771Y-531623D02*
G54D57*
D03*
X1729168Y-531623D02*
G54D57*
D03*
X1551347Y-531623D02*
G54D57*
D03*
X1576742Y-531623D02*
G54D57*
D03*
X1602156Y-531623D02*
G54D57*
D03*
X1525936Y-531623D02*
G54D57*
D03*
X1703772Y-577099D02*
G54D57*
D03*
X1729168Y-577099D02*
G54D57*
D03*
X1741875Y-551688D02*
G54D57*
D03*
X1691066Y-551688D02*
G54D57*
D03*
X1716464Y-551688D02*
G54D57*
D03*
X1678360Y-577099D02*
G54D57*
D03*
X1627551Y-577099D02*
G54D57*
D03*
X1652964Y-577099D02*
G54D57*
D03*
X1640258Y-551688D02*
G54D57*
D03*
X1665662Y-551688D02*
G54D57*
D03*
X1602156Y-577099D02*
G54D57*
D03*
X1576742Y-577099D02*
G54D57*
D03*
X1551348Y-577099D02*
G54D57*
D03*
X1564052Y-551688D02*
G54D57*
D03*
X1589450Y-551688D02*
G54D57*
D03*
G36*
X1492938Y-539223D02*
X1492938Y-524023D01*
X1508138Y-524023D01*
X1508138Y-539223D01*
X1492938Y-539223D01*
G37*
G36*
X1492937Y-584699D02*
X1492937Y-569499D01*
X1508137Y-569499D01*
X1508137Y-584699D01*
X1492937Y-584699D01*
G37*
M02*
