; Drill file
; Format: 3.2 (000.00)
M48
METRIC
T01C0.798
T02C0.8
T03C1.12
T04C1.575
T05C1.814
T06C1.92
T07C2.007
T08C2.698
T09C3.0
T10C3.388
%
G05
G90
T01
X15132Y-05517
X15259Y-05316
X15386Y-05517
X15513Y-05316
X15641Y-05517
X15767Y-05316
X15894Y-05517
X16022Y-05316
X16149Y-05517
X16276Y-05316
X16403Y-05517
X16530Y-05316
X16657Y-05517
X16784Y-05316
X16911Y-05517
X17038Y-05316
X17165Y-05517
X17292Y-05316
X17419Y-05517
X17546Y-05316
X17673Y-05517
X17800Y-05316
X17927Y-05517
X18054Y-05316
X18181Y-05517
X18054Y-05771
X17800Y-05771
X17546Y-05771
X17292Y-05771
X17038Y-05771
X16784Y-05771
X16530Y-05771
X16276Y-05771
X16022Y-05771
X15767Y-05771
X15513Y-05771
X15259Y-05771
X18778Y-05314
X18978Y-05314
X19178Y-05314
X19377Y-05314
X19577Y-05314
X19777Y-05314
X19977Y-05314
X20177Y-05314
X20377Y-05314
X20577Y-05314
X32623Y-05467
X32834Y-05467
X32875Y-05721
X33052Y-05721
X33304Y-05721
X33304Y-05467
X33093Y-05467
X32623Y-05721
X34221Y-05086
X34431Y-05086
X34690Y-05086
X34901Y-05086
X34901Y-04837
X34221Y-04837
X37839Y-02152
X38093Y-02152
X38347Y-02152
X38601Y-02152
X39061Y-03907
X39315Y-03907
X39569Y-03907
X39823Y-03907
T02
X15005Y-05771
X15005Y-05316
X18183Y-04459
X18437Y-04459
X18691Y-04459
X18945Y-04459
X19200Y-04459
X19454Y-04459
X19708Y-04459
X19961Y-04459
X20216Y-04459
X20470Y-04459
X20724Y-04459
X20978Y-04459
X21232Y-04459
X21486Y-04459
X21740Y-04459
X21994Y-04459
X22248Y-04459
X22502Y-04459
X22756Y-04459
X23010Y-04459
X23265Y-04459
X23265Y-02935
X23010Y-02935
X22756Y-02935
X22502Y-02935
X22248Y-02935
X21994Y-02935
X21740Y-02935
X21486Y-02935
X21232Y-02935
X20978Y-02935
X20724Y-02935
X20470Y-02935
X20216Y-02935
X19961Y-02935
X19708Y-02935
X19454Y-02935
X19200Y-02935
X18945Y-02935
X18691Y-02935
X18437Y-02935
X18183Y-02935
X18183Y-02550
X18437Y-02550
X18691Y-02550
X18945Y-02550
X19199Y-02550
X19454Y-02550
X19708Y-02550
X19961Y-02550
X20216Y-02550
X20469Y-02550
X20723Y-02550
X20978Y-02550
X21232Y-02550
X21486Y-02550
X21740Y-02550
X21994Y-02550
X22248Y-02550
X22502Y-02550
X22756Y-02550
X23010Y-02550
X23265Y-02551
X23265Y-01026
X23010Y-01026
X22756Y-01026
X22502Y-01026
X22248Y-01026
X21994Y-01026
X21740Y-01026
X21486Y-01026
X21232Y-01026
X20978Y-01026
X20723Y-01026
X20469Y-01026
X20216Y-01026
X19961Y-01026
X19708Y-01026
X19454Y-01026
X19199Y-01026
X18945Y-01026
X18691Y-01026
X18437Y-01026
X18183Y-01026
T03
X24986Y-04383
X25263Y-04383
X25540Y-04383
X25817Y-04383
X26094Y-04383
X25954Y-04667
X25677Y-04667
X25403Y-04667
X25126Y-04667
X28157Y-04383
X28433Y-04383
X28710Y-04383
X28987Y-04383
X29264Y-04383
X29124Y-04667
X28847Y-04667
X28573Y-04667
X28296Y-04667
X30734Y-04685
X30986Y-04436
X31484Y-04436
X31735Y-04685
X31484Y-05436
X31484Y-05685
X30986Y-05685
X30986Y-05436
X38417Y-04759
X38671Y-04759
X38925Y-04759
T04
X30485Y-04687
X30737Y-04438
X31732Y-04438
X31984Y-04687
X31734Y-05685
X31234Y-05436
X30737Y-05685
X35862Y-05302
X36370Y-05302
X36358Y-04032
X36358Y-03651
X36358Y-03270
X35875Y-03270
X35875Y-03651
X35875Y-04032
T05
X32290Y-05171
X32964Y-05091
X33637Y-05171
T06
X37077Y-03580
X37219Y-04596
X38918Y-05708
X40077Y-04596
X40125Y-03580
T07
X33888Y-05388
X34561Y-05470
X35234Y-05388
T08
X24290Y-04515
X26790Y-04515
X27460Y-04515
X29960Y-04515
T09
X01068Y-02746
T10
X38852Y-03391
M30
