%FSLAX34Y34*%
%MOMM*%
%LNOUTLINE*%
G71*
G01*
%ADD10C,0.002*%
%ADD11C,0.150*%
%LPD*%
G54D10*
X0Y0D02*
X4550000Y0D01*
X4550000Y-3000012D01*
X0Y-3000012D01*
X0Y0D01*
G54D11*
X550848Y-599081D02*
X550859Y-506609D01*
G54D11*
G75*
G01X570681Y-506609D02*
G03X550881Y-506609I-9900J0D01*
G01*
G54D11*
G75*
G01X547673Y-602256D02*
G03X550848Y-599081I0J3175D01*
G01*
G54D11*
X12400Y-10022D02*
X4029214Y-10024D01*
G54D11*
X547673Y-602256D02*
X15475Y-601859D01*
G54D11*
G75*
G01X12300Y-598684D02*
G03X15475Y-601859I3175J0D01*
G01*
G54D11*
X12300Y-598684D02*
X12300Y-462159D01*
X9125Y-452634D01*
X9225Y-13197D01*
G54D11*
X570681Y-599081D02*
X570670Y-506609D01*
G54D11*
G75*
G01X1196564Y-602256D02*
G03X1199738Y-599081I0J3175D01*
G01*
G54D11*
X1196564Y-602256D02*
X573878Y-601859D01*
G54D11*
G75*
G01X570704Y-598684D02*
G03X573878Y-601859I3174J0D01*
G01*
G54D11*
X1199738Y-599081D02*
X1199750Y-506609D01*
G54D11*
G75*
G01X1209672Y-496709D02*
G03X1199772Y-506609I0J-9900D01*
G01*
G54D11*
X1209672Y-496709D02*
X1247352Y-496708D01*
G54D11*
X1257286Y-599080D02*
X1257274Y-506608D01*
G54D11*
G75*
G01X1257252Y-506608D02*
G03X1247352Y-496708I-9900J0D01*
G01*
G54D11*
G75*
G01X1257286Y-599079D02*
G03X1260462Y-602254I3176J0D01*
G01*
G54D11*
X4028880Y-602653D02*
X1260462Y-602254D01*
G54D11*
G75*
G01X12400Y-10022D02*
G03X9225Y-13197I0J-3175D01*
G01*
G54D11*
G75*
G01X4028880Y-602653D02*
G03X4032056Y-599478I0J3175D01*
G01*
G54D11*
G75*
G01X4032389Y-13199D02*
G03X4029214Y-10024I-3175J0D01*
G01*
G54D11*
X4032389Y-13199D02*
X4032056Y-599478D01*
G54D11*
G75*
G01X2166754Y-534030D02*
G03X2177754Y-534030I5500J0D01*
G01*
G54D11*
G75*
G01X2177754Y-519534D02*
G03X2166754Y-519533I-5500J0D01*
G01*
G54D11*
X2177754Y-534030D02*
X2177754Y-519535D01*
X2177754Y-519534D01*
G54D11*
X2166754Y-534030D02*
X2166754Y-519535D01*
X2166753Y-519534D01*
G54D11*
G75*
G01X2127120Y-560881D02*
G03X2127120Y-571881I0J-5500D01*
G01*
G54D11*
G75*
G01X2141616Y-571880D02*
G03X2141618Y-560880I0J5500D01*
G01*
G54D11*
X2127120Y-571882D02*
X2141615Y-571882D01*
X2141616Y-571880D01*
G54D11*
X2127119Y-560881D02*
X2141614Y-560881D01*
X2141616Y-560881D01*
G54D11*
G75*
G01X2091562Y-534030D02*
G03X2102562Y-534030I5500J0D01*
G01*
G54D11*
G75*
G01X2102562Y-519534D02*
G03X2091562Y-519533I-5500J0D01*
G01*
G54D11*
X2102562Y-534031D02*
X2102562Y-519536D01*
X2102560Y-519535D01*
G54D11*
X2091562Y-534030D02*
X2091562Y-519536D01*
X2091560Y-519534D01*
G54D11*
G75*
G01X2271132Y-534030D02*
G03X2282132Y-534030I5500J0D01*
G01*
G54D11*
G75*
G01X2282132Y-519534D02*
G03X2271132Y-519533I-5500J0D01*
G01*
G54D11*
X2282132Y-534030D02*
X2282133Y-519535D01*
X2282132Y-519534D01*
G54D11*
X2271132Y-534030D02*
X2271132Y-519535D01*
X2271131Y-519534D01*
G54D11*
G75*
G01X2231498Y-560881D02*
G03X2231498Y-571881I0J-5500D01*
G01*
G54D11*
G75*
G01X2245995Y-571880D02*
G03X2245996Y-560880I0J5500D01*
G01*
G54D11*
X2231498Y-571882D02*
X2245994Y-571882D01*
X2245994Y-571880D01*
G54D11*
X2231498Y-560881D02*
X2245993Y-560881D01*
X2245994Y-560881D01*
G54D11*
G75*
G01X2195940Y-534030D02*
G03X2206940Y-534030I5500J0D01*
G01*
G54D11*
G75*
G01X2206940Y-519534D02*
G03X2195940Y-519533I-5500J0D01*
G01*
G54D11*
X2206940Y-534031D02*
X2206940Y-519536D01*
X2206939Y-519535D01*
G54D11*
X2195940Y-534030D02*
X2195940Y-519536D01*
X2195939Y-519534D01*
G54D11*
G75*
G01X2375508Y-534030D02*
G03X2386508Y-534030I5500J0D01*
G01*
G54D11*
G75*
G01X2386508Y-519534D02*
G03X2375508Y-519533I-5500J0D01*
G01*
G54D11*
X2386509Y-534030D02*
X2386510Y-519535D01*
X2386508Y-519534D01*
G54D11*
X2375509Y-534030D02*
X2375509Y-519535D01*
X2375508Y-519534D01*
G54D11*
G75*
G01X2335875Y-560881D02*
G03X2335875Y-571881I0J-5500D01*
G01*
G54D11*
G75*
G01X2350372Y-571880D02*
G03X2350372Y-560880I0J5500D01*
G01*
G54D11*
X2335875Y-571881D02*
X2350370Y-571881D01*
X2350371Y-571880D01*
G54D11*
X2335874Y-560881D02*
X2350370Y-560880D01*
X2350371Y-560880D01*
G54D11*
G75*
G01X2300317Y-534030D02*
G03X2311317Y-534030I5500J0D01*
G01*
G54D11*
G75*
G01X2311316Y-519534D02*
G03X2300316Y-519533I-5500J0D01*
G01*
G54D11*
X2311316Y-534030D02*
X2311317Y-519535D01*
X2311316Y-519534D01*
G54D11*
X2300316Y-534030D02*
X2300316Y-519535D01*
X2300316Y-519534D01*
M02*
