%FSLAX34Y34*%
%MOMM*%
%LNSMDMASK_TOP*%
G71*
G01*
%ADD10R,0.350X2.540*%
%ADD11R,2.540X0.350*%
%ADD12R,0.635X2.033*%
%ADD13R,0.636X2.033*%
%ADD14R,0.634X2.033*%
%ADD15R,2.033X0.635*%
%ADD16R,2.033X0.636*%
%ADD17R,2.032X0.635*%
%ADD18R,2.032X0.636*%
%ADD19R,2.032X0.634*%
%ADD20R,2.033X0.634*%
%ADD21R,0.635X2.031*%
%ADD22R,0.634X2.031*%
%ADD23R,0.636X2.031*%
%ADD24R,2.031X0.635*%
%ADD25R,2.031X0.634*%
%ADD26R,2.031X0.636*%
%ADD27R,0.350X2.550*%
%ADD28R,2.550X0.350*%
%ADD29R,0.635X2.032*%
%ADD30R,0.636X2.032*%
%ADD31R,0.634X2.032*%
%ADD32R,0.636X2.666*%
%ADD33R,0.634X2.666*%
%ADD34R,0.635X2.666*%
%ADD35R,0.634X2.668*%
%ADD36R,0.635X2.668*%
%ADD37R,0.636X2.668*%
%ADD38R,0.635X2.667*%
%ADD39R,0.634X2.667*%
%ADD40R,0.636X2.667*%
%ADD41R,0.636X2.286*%
%ADD42R,0.635X2.286*%
%ADD43R,0.634X2.286*%
%ADD44R,0.638X2.666*%
%ADD45R,0.638X2.668*%
%ADD46R,0.636X2.288*%
%ADD47R,0.635X2.288*%
%ADD48R,0.634X2.288*%
%ADD49R,0.635X2.287*%
%ADD50R,0.634X2.287*%
%ADD51R,0.636X2.287*%
%ADD52R,1.271X1.524*%
%ADD53R,1.270X1.524*%
%ADD54R,1.269X1.524*%
%ADD55R,2.540X3.812*%
%ADD56R,3.812X2.540*%
%ADD57R,1.269X1.526*%
%ADD58R,1.271X1.525*%
%ADD59R,1.269X1.525*%
%ADD60R,1.271X1.526*%
%LPD*%
X247593Y-342018D02*
G54D10*
D03*
X247593Y-121018D02*
G54D10*
D03*
X254093Y-342018D02*
G54D10*
D03*
X254093Y-121018D02*
G54D10*
D03*
X260593Y-342018D02*
G54D10*
D03*
X260593Y-121018D02*
G54D10*
D03*
X267093Y-342018D02*
G54D10*
D03*
X267093Y-121018D02*
G54D10*
D03*
X273593Y-342018D02*
G54D10*
D03*
X273593Y-121018D02*
G54D10*
D03*
X280093Y-342018D02*
G54D10*
D03*
X280093Y-121018D02*
G54D10*
D03*
X286593Y-342018D02*
G54D10*
D03*
X286593Y-121018D02*
G54D10*
D03*
X293093Y-342018D02*
G54D10*
D03*
X293093Y-121018D02*
G54D10*
D03*
X299593Y-342018D02*
G54D10*
D03*
X299593Y-121018D02*
G54D10*
D03*
X306093Y-342018D02*
G54D10*
D03*
X306093Y-121018D02*
G54D10*
D03*
X312593Y-342018D02*
G54D10*
D03*
X312593Y-121018D02*
G54D10*
D03*
X319093Y-342018D02*
G54D10*
D03*
X319093Y-121018D02*
G54D10*
D03*
X325593Y-342018D02*
G54D10*
D03*
X325593Y-121018D02*
G54D10*
D03*
X332093Y-342018D02*
G54D10*
D03*
X332093Y-121018D02*
G54D10*
D03*
X338593Y-342018D02*
G54D10*
D03*
X338593Y-121018D02*
G54D10*
D03*
X345093Y-342018D02*
G54D10*
D03*
X345093Y-121018D02*
G54D10*
D03*
X351593Y-342018D02*
G54D10*
D03*
X351593Y-121018D02*
G54D10*
D03*
X358093Y-342018D02*
G54D10*
D03*
X358093Y-121018D02*
G54D10*
D03*
X364593Y-342018D02*
G54D10*
D03*
X364593Y-121018D02*
G54D10*
D03*
X371093Y-342018D02*
G54D10*
D03*
X371093Y-121018D02*
G54D10*
D03*
X228843Y-325768D02*
G54D11*
D03*
X389843Y-325768D02*
G54D11*
D03*
X228843Y-319268D02*
G54D11*
D03*
X389843Y-319268D02*
G54D11*
D03*
X228843Y-312768D02*
G54D11*
D03*
X389843Y-312768D02*
G54D11*
D03*
X228843Y-306268D02*
G54D11*
D03*
X389843Y-306268D02*
G54D11*
D03*
X228843Y-299768D02*
G54D11*
D03*
X389843Y-299768D02*
G54D11*
D03*
X228843Y-293268D02*
G54D11*
D03*
X389843Y-293268D02*
G54D11*
D03*
X228843Y-286768D02*
G54D11*
D03*
X389843Y-286768D02*
G54D11*
D03*
X228843Y-280268D02*
G54D11*
D03*
X389843Y-280268D02*
G54D11*
D03*
X228843Y-273768D02*
G54D11*
D03*
X389843Y-273768D02*
G54D11*
D03*
X228843Y-267268D02*
G54D11*
D03*
X389843Y-267268D02*
G54D11*
D03*
X228843Y-260768D02*
G54D11*
D03*
X389843Y-260768D02*
G54D11*
D03*
X228843Y-254268D02*
G54D11*
D03*
X389843Y-254268D02*
G54D11*
D03*
X228843Y-247768D02*
G54D11*
D03*
X389843Y-247768D02*
G54D11*
D03*
X228843Y-241268D02*
G54D11*
D03*
X389843Y-241268D02*
G54D11*
D03*
X228843Y-234768D02*
G54D11*
D03*
X389843Y-234768D02*
G54D11*
D03*
X228843Y-228268D02*
G54D11*
D03*
X389843Y-228268D02*
G54D11*
D03*
X228843Y-221768D02*
G54D11*
D03*
X389843Y-221768D02*
G54D11*
D03*
X228843Y-215268D02*
G54D11*
D03*
X389843Y-215268D02*
G54D11*
D03*
X228843Y-208768D02*
G54D11*
D03*
X389843Y-208768D02*
G54D11*
D03*
X228843Y-202268D02*
G54D11*
D03*
X389843Y-202268D02*
G54D11*
D03*
X228843Y-195768D02*
G54D11*
D03*
X389843Y-195768D02*
G54D11*
D03*
X228843Y-189268D02*
G54D11*
D03*
X389843Y-189268D02*
G54D11*
D03*
X228843Y-182768D02*
G54D11*
D03*
X389843Y-182768D02*
G54D11*
D03*
X228843Y-176268D02*
G54D11*
D03*
X389843Y-176268D02*
G54D11*
D03*
X228843Y-169768D02*
G54D11*
D03*
X389843Y-169768D02*
G54D11*
D03*
X228843Y-163268D02*
G54D11*
D03*
X389843Y-163268D02*
G54D11*
D03*
X228843Y-156768D02*
G54D11*
D03*
X389843Y-156768D02*
G54D11*
D03*
X228843Y-150268D02*
G54D11*
D03*
X389843Y-150268D02*
G54D11*
D03*
X228843Y-143768D02*
G54D11*
D03*
X389843Y-143768D02*
G54D11*
D03*
X228843Y-137268D02*
G54D11*
D03*
X389843Y-137268D02*
G54D11*
D03*
X724728Y-415065D02*
G54D12*
D03*
X712024Y-415065D02*
G54D12*
D03*
X699330Y-415065D02*
G54D13*
D03*
X610414Y-415065D02*
G54D14*
D03*
X585010Y-415065D02*
G54D12*
D03*
X559604Y-123940D02*
G54D14*
D03*
X452152Y-269504D02*
G54D15*
D03*
X648524Y-415065D02*
G54D12*
D03*
X635816Y-415065D02*
G54D12*
D03*
X635816Y-123940D02*
G54D12*
D03*
X712024Y-123940D02*
G54D12*
D03*
X661214Y-415065D02*
G54D13*
D03*
X661214Y-123940D02*
G54D13*
D03*
X585010Y-123940D02*
G54D12*
D03*
X610414Y-123940D02*
G54D14*
D03*
X483392Y-415065D02*
G54D13*
D03*
X452152Y-256796D02*
G54D15*
D03*
X452152Y-244094D02*
G54D15*
D03*
X452152Y-231400D02*
G54D16*
D03*
X724728Y-123940D02*
G54D12*
D03*
X699330Y-123940D02*
G54D13*
D03*
X686624Y-123940D02*
G54D12*
D03*
X673920Y-415065D02*
G54D13*
D03*
X673920Y-123940D02*
G54D13*
D03*
X572304Y-415065D02*
G54D13*
D03*
X496098Y-415065D02*
G54D12*
D03*
X508804Y-415065D02*
G54D13*
D03*
X559604Y-415065D02*
G54D14*
D03*
X521497Y-123940D02*
G54D12*
D03*
X546907Y-415065D02*
G54D12*
D03*
X546907Y-123940D02*
G54D12*
D03*
X597714Y-415065D02*
G54D13*
D03*
X521497Y-415065D02*
G54D12*
D03*
X648524Y-123940D02*
G54D12*
D03*
X496098Y-123940D02*
G54D12*
D03*
X483392Y-123940D02*
G54D13*
D03*
X508804Y-123940D02*
G54D13*
D03*
X572304Y-123940D02*
G54D13*
D03*
X534200Y-123940D02*
G54D12*
D03*
X534200Y-415065D02*
G54D12*
D03*
X470688Y-415065D02*
G54D12*
D03*
X743276Y-333004D02*
G54D17*
D03*
X743276Y-345708D02*
G54D18*
D03*
X743276Y-358414D02*
G54D17*
D03*
X743276Y-371120D02*
G54D17*
D03*
X743276Y-396518D02*
G54D18*
D03*
X743276Y-383811D02*
G54D17*
D03*
X743276Y-320311D02*
G54D17*
D03*
X743276Y-307605D02*
G54D17*
D03*
X743276Y-294900D02*
G54D18*
D03*
X743276Y-282200D02*
G54D19*
D03*
X743276Y-269504D02*
G54D17*
D03*
X743276Y-256796D02*
G54D17*
D03*
X743276Y-244094D02*
G54D17*
D03*
X743276Y-231400D02*
G54D18*
D03*
X743276Y-218695D02*
G54D17*
D03*
X743276Y-205990D02*
G54D18*
D03*
X743276Y-193282D02*
G54D18*
D03*
X743276Y-180594D02*
G54D17*
D03*
X743276Y-142482D02*
G54D19*
D03*
X743276Y-155180D02*
G54D17*
D03*
X743276Y-167886D02*
G54D17*
D03*
X452152Y-205990D02*
G54D16*
D03*
X452152Y-218695D02*
G54D15*
D03*
X452152Y-345708D02*
G54D16*
D03*
X452152Y-358414D02*
G54D15*
D03*
X452152Y-371120D02*
G54D15*
D03*
X452152Y-383811D02*
G54D15*
D03*
X452152Y-396518D02*
G54D16*
D03*
X452152Y-320311D02*
G54D15*
D03*
X452152Y-333004D02*
G54D15*
D03*
X452152Y-282200D02*
G54D20*
D03*
X452152Y-294900D02*
G54D16*
D03*
X452152Y-307605D02*
G54D15*
D03*
X597714Y-123940D02*
G54D13*
D03*
X452152Y-180594D02*
G54D15*
D03*
X452152Y-193282D02*
G54D16*
D03*
X452152Y-167886D02*
G54D15*
D03*
X452152Y-155180D02*
G54D15*
D03*
X452152Y-142482D02*
G54D20*
D03*
X470688Y-123940D02*
G54D12*
D03*
X623110Y-415065D02*
G54D12*
D03*
X623110Y-123940D02*
G54D12*
D03*
X686624Y-415065D02*
G54D12*
D03*
X823088Y-294653D02*
G54D16*
D03*
X943242Y-313194D02*
G54D21*
D03*
X943242Y-123682D02*
G54D12*
D03*
X930540Y-313194D02*
G54D22*
D03*
X930540Y-123682D02*
G54D14*
D03*
X994048Y-313194D02*
G54D23*
D03*
X994048Y-123682D02*
G54D13*
D03*
X841630Y-313194D02*
G54D22*
D03*
X841630Y-123682D02*
G54D14*
D03*
X823089Y-154933D02*
G54D15*
D03*
X823089Y-167633D02*
G54D20*
D03*
X823088Y-142229D02*
G54D15*
D03*
X823089Y-231139D02*
G54D15*
D03*
X854330Y-123682D02*
G54D13*
D03*
X867034Y-123682D02*
G54D12*
D03*
X879742Y-123682D02*
G54D12*
D03*
X892433Y-123682D02*
G54D12*
D03*
X905138Y-123682D02*
G54D13*
D03*
X917844Y-123682D02*
G54D12*
D03*
X955945Y-313194D02*
G54D21*
D03*
X955945Y-123682D02*
G54D12*
D03*
X968652Y-123682D02*
G54D12*
D03*
X981351Y-123682D02*
G54D14*
D03*
X892433Y-313194D02*
G54D21*
D03*
X905138Y-313194D02*
G54D23*
D03*
X917844Y-313194D02*
G54D21*
D03*
X854330Y-313194D02*
G54D23*
D03*
X867034Y-313194D02*
G54D21*
D03*
X879742Y-313194D02*
G54D21*
D03*
X981351Y-313194D02*
G54D22*
D03*
X968652Y-313194D02*
G54D21*
D03*
X1012596Y-294653D02*
G54D18*
D03*
X1012596Y-193035D02*
G54D18*
D03*
X1012596Y-205743D02*
G54D18*
D03*
X1012596Y-218440D02*
G54D19*
D03*
X1012596Y-231139D02*
G54D17*
D03*
X1012596Y-243847D02*
G54D17*
D03*
X1012596Y-256549D02*
G54D17*
D03*
X1012596Y-269243D02*
G54D18*
D03*
X1012596Y-281948D02*
G54D17*
D03*
X1012596Y-180331D02*
G54D17*
D03*
X1012596Y-167633D02*
G54D19*
D03*
X1012596Y-154933D02*
G54D17*
D03*
X1012596Y-142229D02*
G54D17*
D03*
X823088Y-281948D02*
G54D15*
D03*
X823088Y-269243D02*
G54D16*
D03*
X823089Y-256549D02*
G54D15*
D03*
X823088Y-243847D02*
G54D15*
D03*
X823089Y-218440D02*
G54D20*
D03*
X823089Y-205743D02*
G54D16*
D03*
X823088Y-193035D02*
G54D16*
D03*
X823089Y-180331D02*
G54D15*
D03*
X1084766Y-256405D02*
G54D16*
D03*
X1103314Y-123534D02*
G54D12*
D03*
X1116020Y-123534D02*
G54D12*
D03*
X1084766Y-180185D02*
G54D15*
D03*
X1141418Y-123534D02*
G54D13*
D03*
X1154124Y-123534D02*
G54D12*
D03*
X1084766Y-218295D02*
G54D20*
D03*
X1084766Y-230995D02*
G54D16*
D03*
X1243034Y-123534D02*
G54D12*
D03*
X1306550Y-414667D02*
G54D21*
D03*
X1357358Y-123534D02*
G54D13*
D03*
X1319247Y-414667D02*
G54D22*
D03*
X1331947Y-414667D02*
G54D23*
D03*
X1255740Y-123534D02*
G54D12*
D03*
X1268438Y-123534D02*
G54D14*
D03*
X1281138Y-123534D02*
G54D13*
D03*
X1255740Y-414667D02*
G54D21*
D03*
X1268438Y-414667D02*
G54D22*
D03*
X1281138Y-414667D02*
G54D23*
D03*
X1375900Y-180185D02*
G54D24*
D03*
X1375900Y-167488D02*
G54D25*
D03*
X1375900Y-154788D02*
G54D26*
D03*
X1375900Y-142084D02*
G54D24*
D03*
X1375900Y-218295D02*
G54D25*
D03*
X1375900Y-205598D02*
G54D24*
D03*
X1375900Y-192892D02*
G54D24*
D03*
X1357358Y-414667D02*
G54D23*
D03*
X1179521Y-414667D02*
G54D21*
D03*
X1192226Y-414667D02*
G54D21*
D03*
X1084766Y-370713D02*
G54D16*
D03*
X1084766Y-358016D02*
G54D20*
D03*
X1084766Y-345317D02*
G54D15*
D03*
X1217638Y-414667D02*
G54D23*
D03*
X1230328Y-414667D02*
G54D23*
D03*
X1243034Y-414667D02*
G54D21*
D03*
X1141418Y-414667D02*
G54D23*
D03*
X1154124Y-414667D02*
G54D21*
D03*
X1128720Y-414667D02*
G54D22*
D03*
X1179521Y-123534D02*
G54D12*
D03*
X1192226Y-123534D02*
G54D12*
D03*
X1319247Y-123534D02*
G54D14*
D03*
X1331947Y-123534D02*
G54D13*
D03*
X1293842Y-123534D02*
G54D12*
D03*
X1293842Y-414667D02*
G54D21*
D03*
X1344652Y-123534D02*
G54D12*
D03*
X1166828Y-123534D02*
G54D13*
D03*
X1166828Y-414667D02*
G54D23*
D03*
X1084766Y-383419D02*
G54D15*
D03*
X1084766Y-269098D02*
G54D15*
D03*
X1217638Y-123534D02*
G54D13*
D03*
X1230328Y-123534D02*
G54D13*
D03*
X1306550Y-123534D02*
G54D12*
D03*
X1204932Y-414667D02*
G54D21*
D03*
X1084766Y-307213D02*
G54D16*
D03*
X1084766Y-319905D02*
G54D16*
D03*
X1084766Y-281802D02*
G54D15*
D03*
X1084766Y-294509D02*
G54D15*
D03*
X1128720Y-123534D02*
G54D14*
D03*
X1344652Y-414667D02*
G54D21*
D03*
X1204932Y-123534D02*
G54D12*
D03*
X1375900Y-358016D02*
G54D25*
D03*
X1375900Y-396123D02*
G54D26*
D03*
X1375900Y-383419D02*
G54D24*
D03*
X1375900Y-370713D02*
G54D26*
D03*
X1084766Y-396123D02*
G54D16*
D03*
X1103314Y-414667D02*
G54D21*
D03*
X1116020Y-414667D02*
G54D21*
D03*
X1084766Y-205598D02*
G54D15*
D03*
X1375900Y-256405D02*
G54D26*
D03*
X1375900Y-269098D02*
G54D24*
D03*
X1375900Y-230995D02*
G54D26*
D03*
X1375900Y-243699D02*
G54D24*
D03*
X1375900Y-332611D02*
G54D24*
D03*
X1375900Y-319905D02*
G54D26*
D03*
X1375900Y-345317D02*
G54D24*
D03*
X1375900Y-307213D02*
G54D26*
D03*
X1375900Y-281802D02*
G54D24*
D03*
X1375900Y-294509D02*
G54D24*
D03*
X1084766Y-142084D02*
G54D15*
D03*
X1084766Y-167488D02*
G54D20*
D03*
X1084766Y-154788D02*
G54D16*
D03*
X1084766Y-243699D02*
G54D15*
D03*
X1084766Y-332611D02*
G54D15*
D03*
X1084766Y-192892D02*
G54D15*
D03*
X1466850Y-425253D02*
G54D27*
D03*
X1466850Y-120253D02*
G54D27*
D03*
X1473350Y-425253D02*
G54D27*
D03*
X1473350Y-120253D02*
G54D27*
D03*
X1479850Y-425253D02*
G54D27*
D03*
X1479850Y-120253D02*
G54D27*
D03*
X1486350Y-425253D02*
G54D27*
D03*
X1486350Y-120253D02*
G54D27*
D03*
X1492850Y-425253D02*
G54D27*
D03*
X1492850Y-120253D02*
G54D27*
D03*
X1499350Y-425253D02*
G54D27*
D03*
X1499350Y-120253D02*
G54D27*
D03*
X1505850Y-425253D02*
G54D27*
D03*
X1505850Y-120253D02*
G54D27*
D03*
X1512350Y-425253D02*
G54D27*
D03*
X1512350Y-120253D02*
G54D27*
D03*
X1518850Y-425253D02*
G54D27*
D03*
X1518850Y-120253D02*
G54D27*
D03*
X1525350Y-425253D02*
G54D27*
D03*
X1525350Y-120253D02*
G54D27*
D03*
X1531850Y-425253D02*
G54D27*
D03*
X1531850Y-120253D02*
G54D27*
D03*
X1538350Y-425253D02*
G54D27*
D03*
X1538350Y-120253D02*
G54D27*
D03*
X1544850Y-425253D02*
G54D27*
D03*
X1544850Y-120253D02*
G54D27*
D03*
X1551350Y-425253D02*
G54D27*
D03*
X1551350Y-120253D02*
G54D27*
D03*
X1557850Y-425253D02*
G54D27*
D03*
X1557850Y-120253D02*
G54D27*
D03*
X1564350Y-425253D02*
G54D27*
D03*
X1564350Y-120253D02*
G54D27*
D03*
X1570850Y-425253D02*
G54D27*
D03*
X1570850Y-120253D02*
G54D27*
D03*
X1577350Y-425253D02*
G54D27*
D03*
X1577350Y-120253D02*
G54D27*
D03*
X1583850Y-425253D02*
G54D27*
D03*
X1583850Y-120253D02*
G54D27*
D03*
X1590350Y-425253D02*
G54D27*
D03*
X1590350Y-120253D02*
G54D27*
D03*
X1596850Y-425253D02*
G54D27*
D03*
X1596850Y-120253D02*
G54D27*
D03*
X1603350Y-425253D02*
G54D27*
D03*
X1603350Y-120253D02*
G54D27*
D03*
X1609850Y-425253D02*
G54D27*
D03*
X1609850Y-120253D02*
G54D27*
D03*
X1616350Y-425253D02*
G54D27*
D03*
X1616350Y-120253D02*
G54D27*
D03*
X1622850Y-425253D02*
G54D27*
D03*
X1622850Y-120253D02*
G54D27*
D03*
X1629350Y-425253D02*
G54D27*
D03*
X1629350Y-120253D02*
G54D27*
D03*
X1635850Y-425253D02*
G54D27*
D03*
X1635850Y-120253D02*
G54D27*
D03*
X1642350Y-425253D02*
G54D27*
D03*
X1642350Y-120253D02*
G54D27*
D03*
X1648850Y-425253D02*
G54D27*
D03*
X1648850Y-120253D02*
G54D27*
D03*
X1655350Y-425253D02*
G54D27*
D03*
X1655350Y-120253D02*
G54D27*
D03*
X1661850Y-425253D02*
G54D27*
D03*
X1661850Y-120253D02*
G54D27*
D03*
X1668350Y-425253D02*
G54D27*
D03*
X1668350Y-120253D02*
G54D27*
D03*
X1674850Y-425253D02*
G54D27*
D03*
X1674850Y-120253D02*
G54D27*
D03*
X1681350Y-425253D02*
G54D27*
D03*
X1681350Y-120253D02*
G54D27*
D03*
X1687850Y-425253D02*
G54D27*
D03*
X1687850Y-120253D02*
G54D27*
D03*
X1694350Y-425253D02*
G54D27*
D03*
X1694350Y-120253D02*
G54D27*
D03*
X1700850Y-425253D02*
G54D27*
D03*
X1700850Y-120253D02*
G54D27*
D03*
X1707350Y-425253D02*
G54D27*
D03*
X1707350Y-120253D02*
G54D27*
D03*
X1713850Y-425253D02*
G54D27*
D03*
X1713850Y-120253D02*
G54D27*
D03*
X1720350Y-425253D02*
G54D27*
D03*
X1720350Y-120253D02*
G54D27*
D03*
X1441100Y-399503D02*
G54D28*
D03*
X1746105Y-399503D02*
G54D28*
D03*
X1441100Y-393003D02*
G54D28*
D03*
X1746104Y-393003D02*
G54D28*
D03*
X1441100Y-386503D02*
G54D28*
D03*
X1746104Y-386503D02*
G54D28*
D03*
X1441100Y-380003D02*
G54D28*
D03*
X1746104Y-380003D02*
G54D28*
D03*
X1441100Y-373503D02*
G54D28*
D03*
X1746105Y-373503D02*
G54D28*
D03*
X1441100Y-367003D02*
G54D28*
D03*
X1746105Y-367003D02*
G54D28*
D03*
X1441100Y-360503D02*
G54D28*
D03*
X1746105Y-360503D02*
G54D28*
D03*
X1441100Y-354003D02*
G54D28*
D03*
X1746105Y-354003D02*
G54D28*
D03*
X1441100Y-347503D02*
G54D28*
D03*
X1746105Y-347503D02*
G54D28*
D03*
X1441100Y-341003D02*
G54D28*
D03*
X1746105Y-341003D02*
G54D28*
D03*
X1441100Y-334503D02*
G54D28*
D03*
X1746104Y-334503D02*
G54D28*
D03*
X1441100Y-328003D02*
G54D28*
D03*
X1746104Y-328003D02*
G54D28*
D03*
X1441100Y-321503D02*
G54D28*
D03*
X1746104Y-321503D02*
G54D28*
D03*
X1441100Y-315003D02*
G54D28*
D03*
X1746104Y-315003D02*
G54D28*
D03*
X1441100Y-308503D02*
G54D28*
D03*
X1746104Y-308503D02*
G54D28*
D03*
X1441100Y-302003D02*
G54D28*
D03*
X1746104Y-302003D02*
G54D28*
D03*
X1441100Y-295503D02*
G54D28*
D03*
X1746105Y-295503D02*
G54D28*
D03*
X1441100Y-289003D02*
G54D28*
D03*
X1746105Y-289003D02*
G54D28*
D03*
X1441100Y-282503D02*
G54D28*
D03*
X1746104Y-282503D02*
G54D28*
D03*
X1441100Y-276003D02*
G54D28*
D03*
X1746105Y-276003D02*
G54D28*
D03*
X1441100Y-269503D02*
G54D28*
D03*
X1746105Y-269503D02*
G54D28*
D03*
X1441100Y-263003D02*
G54D28*
D03*
X1746104Y-263003D02*
G54D28*
D03*
X1441100Y-256503D02*
G54D28*
D03*
X1746104Y-256503D02*
G54D28*
D03*
X1441100Y-250003D02*
G54D28*
D03*
X1746105Y-250003D02*
G54D28*
D03*
X1441100Y-243503D02*
G54D28*
D03*
X1746105Y-243503D02*
G54D28*
D03*
X1441100Y-237003D02*
G54D28*
D03*
X1746104Y-237003D02*
G54D28*
D03*
X1441100Y-230503D02*
G54D28*
D03*
X1746104Y-230503D02*
G54D28*
D03*
X1441100Y-224003D02*
G54D28*
D03*
X1746105Y-224003D02*
G54D28*
D03*
X1441100Y-217503D02*
G54D28*
D03*
X1746105Y-217503D02*
G54D28*
D03*
X1441100Y-211003D02*
G54D28*
D03*
X1746105Y-211003D02*
G54D28*
D03*
X1441100Y-204503D02*
G54D28*
D03*
X1746104Y-204503D02*
G54D28*
D03*
X1441100Y-198003D02*
G54D28*
D03*
X1746104Y-198003D02*
G54D28*
D03*
X1441100Y-191503D02*
G54D28*
D03*
X1746104Y-191503D02*
G54D28*
D03*
X1441100Y-185003D02*
G54D28*
D03*
X1746105Y-185003D02*
G54D28*
D03*
X1441100Y-178503D02*
G54D28*
D03*
X1746105Y-178503D02*
G54D28*
D03*
X1441100Y-172003D02*
G54D28*
D03*
X1746104Y-172003D02*
G54D28*
D03*
X1441100Y-165503D02*
G54D28*
D03*
X1746104Y-165503D02*
G54D28*
D03*
X1441100Y-159003D02*
G54D28*
D03*
X1746104Y-159003D02*
G54D28*
D03*
X1441100Y-152503D02*
G54D28*
D03*
X1746105Y-152503D02*
G54D28*
D03*
X1441100Y-146003D02*
G54D28*
D03*
X1746105Y-146003D02*
G54D28*
D03*
X3351675Y-228997D02*
G54D29*
D03*
X3497747Y-273459D02*
G54D16*
D03*
X3497747Y-286149D02*
G54D15*
D03*
X3497747Y-260752D02*
G54D16*
D03*
X3497747Y-248048D02*
G54D15*
D03*
X3497747Y-336959D02*
G54D16*
D03*
X3497747Y-324259D02*
G54D20*
D03*
X3453289Y-394119D02*
G54D13*
D03*
X3332623Y-311563D02*
G54D24*
D03*
X3497747Y-311563D02*
G54D15*
D03*
X3332623Y-375063D02*
G54D24*
D03*
X3377079Y-394119D02*
G54D14*
D03*
X3364379Y-394119D02*
G54D13*
D03*
X3351675Y-394119D02*
G54D12*
D03*
X3332623Y-248048D02*
G54D24*
D03*
X3332623Y-260752D02*
G54D26*
D03*
X3478687Y-228997D02*
G54D29*
D03*
X3497747Y-349664D02*
G54D15*
D03*
X3332623Y-349664D02*
G54D24*
D03*
X3497747Y-362369D02*
G54D16*
D03*
X3332623Y-362369D02*
G54D26*
D03*
X3332623Y-336959D02*
G54D26*
D03*
X3332623Y-324259D02*
G54D25*
D03*
X3332623Y-273459D02*
G54D26*
D03*
X3332623Y-286149D02*
G54D24*
D03*
X3332623Y-298856D02*
G54D24*
D03*
X3497747Y-298856D02*
G54D15*
D03*
X3389777Y-394119D02*
G54D12*
D03*
X3402483Y-394119D02*
G54D12*
D03*
X3415187Y-394119D02*
G54D12*
D03*
X3440585Y-394119D02*
G54D12*
D03*
X3427879Y-394119D02*
G54D13*
D03*
X3465989Y-394119D02*
G54D14*
D03*
X3478687Y-394119D02*
G54D12*
D03*
X3497747Y-375063D02*
G54D15*
D03*
X3364379Y-228997D02*
G54D30*
D03*
X3377079Y-228997D02*
G54D31*
D03*
X3389777Y-228997D02*
G54D29*
D03*
X3402483Y-228997D02*
G54D29*
D03*
X3415187Y-228997D02*
G54D29*
D03*
X3465989Y-228997D02*
G54D31*
D03*
X3453289Y-228997D02*
G54D30*
D03*
X3440585Y-228997D02*
G54D29*
D03*
X3427879Y-228997D02*
G54D30*
D03*
X3654859Y-165136D02*
G54D32*
D03*
X3642159Y-165136D02*
G54D33*
D03*
X3629463Y-165136D02*
G54D34*
D03*
X3616756Y-165136D02*
G54D34*
D03*
X3604052Y-165136D02*
G54D34*
D03*
X3591352Y-165136D02*
G54D33*
D03*
X3578653Y-165136D02*
G54D34*
D03*
X3565950Y-165136D02*
G54D32*
D03*
X3591352Y-102898D02*
G54D35*
D03*
X3578653Y-102898D02*
G54D36*
D03*
X3565950Y-102898D02*
G54D37*
D03*
X3654859Y-102898D02*
G54D37*
D03*
X3642159Y-102898D02*
G54D35*
D03*
X3604052Y-102898D02*
G54D36*
D03*
X3616756Y-102898D02*
G54D36*
D03*
X3629463Y-102898D02*
G54D36*
D03*
X827886Y-459452D02*
G54D38*
D03*
X815185Y-459452D02*
G54D39*
D03*
X827886Y-397213D02*
G54D36*
D03*
X815185Y-397213D02*
G54D35*
D03*
X802486Y-459452D02*
G54D38*
D03*
X802486Y-397213D02*
G54D36*
D03*
X789782Y-397213D02*
G54D37*
D03*
X789782Y-459452D02*
G54D40*
D03*
X874966Y-462729D02*
G54D12*
D03*
X874966Y-393633D02*
G54D12*
D03*
X862260Y-393633D02*
G54D13*
D03*
X862260Y-462729D02*
G54D13*
D03*
X1001978Y-393633D02*
G54D13*
D03*
X989274Y-393633D02*
G54D12*
D03*
X963876Y-393633D02*
G54D12*
D03*
X976582Y-393633D02*
G54D12*
D03*
X887665Y-393633D02*
G54D14*
D03*
X887665Y-462729D02*
G54D14*
D03*
X900365Y-393633D02*
G54D12*
D03*
X1001978Y-462729D02*
G54D13*
D03*
X989274Y-462729D02*
G54D12*
D03*
X976582Y-462729D02*
G54D12*
D03*
X963876Y-462729D02*
G54D12*
D03*
X938470Y-462729D02*
G54D14*
D03*
X938470Y-393633D02*
G54D14*
D03*
X925774Y-462729D02*
G54D12*
D03*
X913068Y-462729D02*
G54D13*
D03*
X925774Y-393633D02*
G54D12*
D03*
X913068Y-393633D02*
G54D13*
D03*
X951172Y-393633D02*
G54D12*
D03*
X951172Y-462729D02*
G54D12*
D03*
X900365Y-462729D02*
G54D12*
D03*
X2379894Y-215994D02*
G54D41*
D03*
X2392601Y-215994D02*
G54D41*
D03*
X2405305Y-215994D02*
G54D42*
D03*
X2379894Y-121998D02*
G54D41*
D03*
X2392601Y-121998D02*
G54D41*
D03*
X2405305Y-121998D02*
G54D42*
D03*
X2418011Y-121998D02*
G54D41*
D03*
X2418011Y-215994D02*
G54D41*
D03*
X2430704Y-121998D02*
G54D42*
D03*
X2443407Y-121998D02*
G54D42*
D03*
X2456115Y-121998D02*
G54D42*
D03*
X2468811Y-121998D02*
G54D43*
D03*
X2481512Y-121998D02*
G54D41*
D03*
X2456115Y-215994D02*
G54D42*
D03*
X2468811Y-215994D02*
G54D43*
D03*
X2481512Y-215994D02*
G54D41*
D03*
X2494216Y-121998D02*
G54D42*
D03*
X2494216Y-215994D02*
G54D42*
D03*
X2506924Y-215994D02*
G54D42*
D03*
X2506924Y-121998D02*
G54D42*
D03*
X2519620Y-121998D02*
G54D43*
D03*
X2519620Y-215994D02*
G54D43*
D03*
X2532315Y-121998D02*
G54D41*
D03*
X2545017Y-121998D02*
G54D42*
D03*
X2532315Y-215994D02*
G54D41*
D03*
X2545017Y-215994D02*
G54D42*
D03*
X2443407Y-215994D02*
G54D42*
D03*
X2430704Y-215994D02*
G54D42*
D03*
X2741988Y-286044D02*
G54D40*
D03*
X2741988Y-348286D02*
G54D37*
D03*
X2754678Y-348286D02*
G54D37*
D03*
X2767384Y-348286D02*
G54D36*
D03*
X2780091Y-348286D02*
G54D36*
D03*
X2792788Y-348286D02*
G54D35*
D03*
X2716576Y-348286D02*
G54D36*
D03*
X2729282Y-348286D02*
G54D36*
D03*
X2729282Y-286044D02*
G54D38*
D03*
X2716576Y-286044D02*
G54D38*
D03*
X2754678Y-286044D02*
G54D40*
D03*
X2767384Y-286044D02*
G54D38*
D03*
X2780092Y-286044D02*
G54D38*
D03*
X2792788Y-286044D02*
G54D39*
D03*
X2676147Y-286049D02*
G54D37*
D03*
X2663441Y-286049D02*
G54D36*
D03*
X2650735Y-286049D02*
G54D36*
D03*
X2638036Y-286049D02*
G54D35*
D03*
X2638036Y-348295D02*
G54D35*
D03*
X2650735Y-348295D02*
G54D36*
D03*
X2663441Y-348295D02*
G54D36*
D03*
X2676147Y-348295D02*
G54D37*
D03*
X2595972Y-348290D02*
G54D38*
D03*
X2583282Y-286050D02*
G54D36*
D03*
X2570576Y-286050D02*
G54D37*
D03*
X2557872Y-286050D02*
G54D36*
D03*
X2583282Y-348290D02*
G54D38*
D03*
X2570576Y-348290D02*
G54D40*
D03*
X2557872Y-348290D02*
G54D38*
D03*
X2595972Y-286050D02*
G54D36*
D03*
X3722691Y-101325D02*
G54D34*
D03*
X3735391Y-101325D02*
G54D34*
D03*
X3748091Y-101325D02*
G54D34*
D03*
X3709991Y-101325D02*
G54D34*
D03*
X3709991Y-163564D02*
G54D36*
D03*
X3722691Y-163564D02*
G54D36*
D03*
X3735391Y-163564D02*
G54D36*
D03*
X3748091Y-163564D02*
G54D36*
D03*
X3760804Y-101325D02*
G54D44*
D03*
X3760804Y-163564D02*
G54D45*
D03*
X3773517Y-163564D02*
G54D36*
D03*
X3786191Y-163564D02*
G54D36*
D03*
X3773517Y-101325D02*
G54D34*
D03*
X3786191Y-101325D02*
G54D34*
D03*
X3879159Y-101718D02*
G54D39*
D03*
X3879159Y-163957D02*
G54D35*
D03*
X3866461Y-163957D02*
G54D36*
D03*
X3853755Y-163957D02*
G54D36*
D03*
X3841049Y-163957D02*
G54D37*
D03*
X3841049Y-101718D02*
G54D40*
D03*
X3853755Y-101718D02*
G54D38*
D03*
X3866461Y-101718D02*
G54D38*
D03*
X3341472Y-102888D02*
G54D32*
D03*
X3354178Y-102888D02*
G54D34*
D03*
X3366882Y-102888D02*
G54D32*
D03*
X3379576Y-102888D02*
G54D34*
D03*
X3379576Y-165128D02*
G54D36*
D03*
X3366882Y-165128D02*
G54D37*
D03*
X3354178Y-165128D02*
G54D36*
D03*
X3341472Y-165128D02*
G54D37*
D03*
X3112692Y-286040D02*
G54D34*
D03*
X3125398Y-286040D02*
G54D34*
D03*
X3138096Y-286040D02*
G54D33*
D03*
X3150796Y-286040D02*
G54D32*
D03*
X3074590Y-286040D02*
G54D34*
D03*
X3087288Y-286040D02*
G54D33*
D03*
X3099988Y-286040D02*
G54D34*
D03*
X3112692Y-348278D02*
G54D36*
D03*
X3125398Y-348278D02*
G54D36*
D03*
X3138096Y-348278D02*
G54D35*
D03*
X3150796Y-348278D02*
G54D37*
D03*
X3099988Y-348278D02*
G54D36*
D03*
X3087288Y-348278D02*
G54D35*
D03*
X3074590Y-348278D02*
G54D36*
D03*
X2954396Y-286049D02*
G54D37*
D03*
X2967102Y-286049D02*
G54D36*
D03*
X2979806Y-286049D02*
G54D37*
D03*
X2992506Y-286049D02*
G54D35*
D03*
X3005204Y-286049D02*
G54D36*
D03*
X3017910Y-286049D02*
G54D36*
D03*
X3030616Y-286049D02*
G54D36*
D03*
X3030616Y-348288D02*
G54D38*
D03*
X3017910Y-348288D02*
G54D38*
D03*
X3005204Y-348288D02*
G54D38*
D03*
X2992506Y-348288D02*
G54D39*
D03*
X2954396Y-348288D02*
G54D40*
D03*
X2967102Y-348288D02*
G54D38*
D03*
X2979806Y-348288D02*
G54D40*
D03*
X2398717Y-376235D02*
G54D32*
D03*
X2398717Y-286049D02*
G54D37*
D03*
X2436820Y-286049D02*
G54D36*
D03*
X2436820Y-376235D02*
G54D34*
D03*
X2424113Y-376235D02*
G54D34*
D03*
X2424113Y-286049D02*
G54D36*
D03*
X2411421Y-376235D02*
G54D34*
D03*
X2411421Y-286049D02*
G54D36*
D03*
X2449524Y-376235D02*
G54D34*
D03*
X2449524Y-286049D02*
G54D36*
D03*
X2513024Y-286049D02*
G54D36*
D03*
X2500331Y-286049D02*
G54D36*
D03*
X2487627Y-286049D02*
G54D37*
D03*
X2513024Y-376235D02*
G54D34*
D03*
X2500331Y-376235D02*
G54D34*
D03*
X2487627Y-376235D02*
G54D32*
D03*
X2474921Y-376235D02*
G54D34*
D03*
X2474921Y-286049D02*
G54D36*
D03*
X2462225Y-286049D02*
G54D35*
D03*
X2462225Y-376235D02*
G54D33*
D03*
X3279094Y-286040D02*
G54D34*
D03*
X3266388Y-286040D02*
G54D34*
D03*
X3253690Y-286040D02*
G54D33*
D03*
X3240991Y-286040D02*
G54D32*
D03*
X3228286Y-286040D02*
G54D34*
D03*
X3215580Y-286040D02*
G54D34*
D03*
X3202887Y-286040D02*
G54D34*
D03*
X3190182Y-286040D02*
G54D34*
D03*
X3253690Y-348279D02*
G54D35*
D03*
X3190182Y-348279D02*
G54D36*
D03*
X3202887Y-348279D02*
G54D36*
D03*
X3215580Y-348279D02*
G54D36*
D03*
X3228286Y-348279D02*
G54D36*
D03*
X3240991Y-348279D02*
G54D37*
D03*
X3266388Y-348279D02*
G54D36*
D03*
X3279094Y-348279D02*
G54D36*
D03*
X3933138Y-162755D02*
G54D32*
D03*
X3933138Y-100516D02*
G54D37*
D03*
X3945843Y-100516D02*
G54D36*
D03*
X3945843Y-162755D02*
G54D34*
D03*
X3920445Y-162755D02*
G54D32*
D03*
X3920445Y-100516D02*
G54D37*
D03*
X3958549Y-100516D02*
G54D36*
D03*
X3971255Y-100516D02*
G54D37*
D03*
X3971255Y-162755D02*
G54D32*
D03*
X3958549Y-162755D02*
G54D34*
D03*
X3996652Y-100516D02*
G54D36*
D03*
X3983945Y-100516D02*
G54D37*
D03*
X3983945Y-162755D02*
G54D32*
D03*
X3996652Y-162755D02*
G54D34*
D03*
X3444952Y-165127D02*
G54D37*
D03*
X3457660Y-165127D02*
G54D37*
D03*
X3470356Y-165127D02*
G54D35*
D03*
X3483056Y-165127D02*
G54D36*
D03*
X3483056Y-102888D02*
G54D34*
D03*
X3470356Y-102888D02*
G54D33*
D03*
X3457660Y-102888D02*
G54D32*
D03*
X3444952Y-102888D02*
G54D32*
D03*
X3287796Y-109200D02*
G54D29*
D03*
X3148076Y-109200D02*
G54D30*
D03*
X3160782Y-109200D02*
G54D29*
D03*
X3173480Y-109200D02*
G54D31*
D03*
X3198885Y-221492D02*
G54D21*
D03*
X3186180Y-221492D02*
G54D21*
D03*
X3173480Y-221492D02*
G54D22*
D03*
X3160782Y-221492D02*
G54D21*
D03*
X3148076Y-221492D02*
G54D23*
D03*
X3287796Y-221492D02*
G54D21*
D03*
X3275090Y-221492D02*
G54D21*
D03*
X3262398Y-221492D02*
G54D21*
D03*
X3249694Y-221492D02*
G54D23*
D03*
X3211590Y-221492D02*
G54D21*
D03*
X3224290Y-221492D02*
G54D22*
D03*
X3236986Y-221492D02*
G54D21*
D03*
X3186180Y-109200D02*
G54D29*
D03*
X3198885Y-109200D02*
G54D29*
D03*
X3211590Y-109200D02*
G54D29*
D03*
X3224290Y-109200D02*
G54D31*
D03*
X3236986Y-109200D02*
G54D29*
D03*
X3249694Y-109200D02*
G54D30*
D03*
X3275090Y-109200D02*
G54D29*
D03*
X3262398Y-109200D02*
G54D29*
D03*
X2607302Y-215988D02*
G54D46*
D03*
X2607302Y-121998D02*
G54D41*
D03*
X2734287Y-215988D02*
G54D47*
D03*
X2721585Y-215988D02*
G54D46*
D03*
X2708891Y-215988D02*
G54D48*
D03*
X2696196Y-215988D02*
G54D47*
D03*
X2683490Y-215988D02*
G54D47*
D03*
X2594596Y-215988D02*
G54D47*
D03*
X2632692Y-215988D02*
G54D47*
D03*
X2619994Y-215988D02*
G54D47*
D03*
X2632692Y-121998D02*
G54D42*
D03*
X2619994Y-121998D02*
G54D42*
D03*
X2594596Y-121998D02*
G54D42*
D03*
X2581892Y-121998D02*
G54D41*
D03*
X2569186Y-121998D02*
G54D41*
D03*
X2734287Y-121998D02*
G54D42*
D03*
X2721585Y-121998D02*
G54D41*
D03*
X2708891Y-121998D02*
G54D43*
D03*
X2696196Y-121998D02*
G54D42*
D03*
X2683490Y-121998D02*
G54D42*
D03*
X2581892Y-215988D02*
G54D46*
D03*
X2569186Y-215988D02*
G54D46*
D03*
X2670785Y-121998D02*
G54D41*
D03*
X2670785Y-215988D02*
G54D46*
D03*
X2658088Y-215988D02*
G54D48*
D03*
X2658088Y-121998D02*
G54D43*
D03*
X2645396Y-215988D02*
G54D47*
D03*
X2645396Y-121998D02*
G54D42*
D03*
X2872532Y-215994D02*
G54D49*
D03*
X2885239Y-215994D02*
G54D49*
D03*
X2897937Y-215994D02*
G54D50*
D03*
X2910635Y-215994D02*
G54D51*
D03*
X2923341Y-215994D02*
G54D49*
D03*
X2783634Y-121998D02*
G54D42*
D03*
X2809026Y-215994D02*
G54D49*
D03*
X2821725Y-215994D02*
G54D49*
D03*
X2847127Y-121998D02*
G54D43*
D03*
X2847127Y-215994D02*
G54D50*
D03*
X2859827Y-215994D02*
G54D51*
D03*
X2859827Y-121998D02*
G54D41*
D03*
X2834431Y-215994D02*
G54D49*
D03*
X2834431Y-121998D02*
G54D42*
D03*
X2923341Y-121998D02*
G54D42*
D03*
X2783634Y-215994D02*
G54D49*
D03*
X2758232Y-215994D02*
G54D51*
D03*
X2770934Y-215994D02*
G54D51*
D03*
X2796336Y-121998D02*
G54D41*
D03*
X2796336Y-215994D02*
G54D51*
D03*
X2770934Y-121998D02*
G54D41*
D03*
X2758232Y-121998D02*
G54D41*
D03*
X2821725Y-121998D02*
G54D42*
D03*
X2809026Y-121998D02*
G54D42*
D03*
X2885239Y-121998D02*
G54D42*
D03*
X2872532Y-121998D02*
G54D42*
D03*
X2910635Y-121998D02*
G54D41*
D03*
X2897937Y-121998D02*
G54D43*
D03*
X3011020Y-122004D02*
G54D49*
D03*
X2998318Y-122004D02*
G54D49*
D03*
X2972918Y-216000D02*
G54D42*
D03*
X3049124Y-216000D02*
G54D41*
D03*
X3036424Y-216000D02*
G54D43*
D03*
X3023728Y-216000D02*
G54D42*
D03*
X3112638Y-216000D02*
G54D42*
D03*
X3112638Y-122004D02*
G54D49*
D03*
X2985624Y-216000D02*
G54D41*
D03*
X2985624Y-122004D02*
G54D51*
D03*
X2972918Y-122004D02*
G54D49*
D03*
X2960214Y-122004D02*
G54D51*
D03*
X2947508Y-122004D02*
G54D51*
D03*
X2960214Y-216000D02*
G54D41*
D03*
X2947508Y-216000D02*
G54D41*
D03*
X3011020Y-216000D02*
G54D42*
D03*
X2998318Y-216000D02*
G54D42*
D03*
X3023728Y-122004D02*
G54D49*
D03*
X3036424Y-122004D02*
G54D50*
D03*
X3049124Y-122004D02*
G54D51*
D03*
X3074536Y-122004D02*
G54D49*
D03*
X3074536Y-216000D02*
G54D42*
D03*
X3061830Y-122004D02*
G54D49*
D03*
X3061830Y-216000D02*
G54D42*
D03*
X3099932Y-122004D02*
G54D51*
D03*
X3099932Y-216000D02*
G54D41*
D03*
X3087234Y-122004D02*
G54D50*
D03*
X3087234Y-216000D02*
G54D43*
D03*
X2837219Y-286050D02*
G54D36*
D03*
X2837219Y-348288D02*
G54D34*
D03*
X2849918Y-348288D02*
G54D33*
D03*
X2862617Y-348288D02*
G54D34*
D03*
X2875322Y-348288D02*
G54D34*
D03*
X2875322Y-286050D02*
G54D36*
D03*
X2862617Y-286050D02*
G54D36*
D03*
X2849918Y-286050D02*
G54D35*
D03*
X2888028Y-286050D02*
G54D36*
D03*
X2888028Y-348288D02*
G54D34*
D03*
X2913426Y-348288D02*
G54D32*
D03*
X2913426Y-286050D02*
G54D37*
D03*
X2900718Y-348288D02*
G54D34*
D03*
X2900718Y-286050D02*
G54D36*
D03*
X1373754Y-518414D02*
G54D52*
D03*
X1373754Y-533298D02*
G54D52*
D03*
X1369949Y-556808D02*
G54D52*
D03*
X1369922Y-541608D02*
G54D53*
D03*
X1366443Y-518414D02*
G54D54*
D03*
X1366341Y-533532D02*
G54D52*
D03*
X1354957Y-556808D02*
G54D52*
D03*
X1384936Y-556808D02*
G54D54*
D03*
X2172253Y-526490D02*
G54D55*
D03*
X2134660Y-566380D02*
G54D56*
D03*
X2097061Y-526490D02*
G54D55*
D03*
X2276631Y-526490D02*
G54D55*
D03*
X2239038Y-566380D02*
G54D56*
D03*
X2201439Y-526490D02*
G54D55*
D03*
X2381008Y-526490D02*
G54D55*
D03*
X2343414Y-566380D02*
G54D56*
D03*
X2305816Y-526490D02*
G54D55*
D03*
G36*
X1409705Y-548368D02*
X1422395Y-548368D01*
X1422396Y-563608D01*
X1409706Y-563608D01*
X1409705Y-548368D01*
G37*
X1431040Y-555988D02*
G54D53*
D03*
G36*
X1439676Y-548368D02*
X1452386Y-548368D01*
X1452387Y-563608D01*
X1439677Y-563608D01*
X1439676Y-548368D01*
G37*
X1427428Y-532712D02*
G54D52*
D03*
X1431010Y-540802D02*
G54D52*
D03*
X1434848Y-532493D02*
G54D54*
D03*
G36*
X1421181Y-509972D02*
X1433891Y-509971D01*
X1433892Y-525231D01*
X1421182Y-525232D01*
X1421181Y-509972D01*
G37*
X1434848Y-517601D02*
G54D57*
D03*
G36*
X1317034Y-548708D02*
X1329744Y-548708D01*
X1329744Y-563958D01*
X1317034Y-563958D01*
X1317034Y-548708D01*
G37*
X1293416Y-556333D02*
G54D58*
D03*
X1308402Y-556333D02*
G54D59*
D03*
G36*
X1298444Y-525439D02*
X1311154Y-525439D01*
X1311154Y-540679D01*
X1298444Y-540679D01*
X1298444Y-525439D01*
G37*
X1308382Y-541133D02*
G54D52*
D03*
X1312213Y-532831D02*
G54D60*
D03*
G36*
X1298540Y-510322D02*
X1311250Y-510322D01*
X1311250Y-525562D01*
X1298540Y-525562D01*
X1298540Y-510322D01*
G37*
G36*
X1305858Y-510322D02*
X1318568Y-510322D01*
X1318568Y-525562D01*
X1305858Y-525562D01*
X1305858Y-510322D01*
G37*
M02*
