%FSLAX34Y34*%
%MOMM*%
%LNCOPPER_BOTTOM*%
G71*
G01*
%ADD10C,0.203*%
%ADD11C,0.254*%
%ADD12C,0.889*%
%ADD13C,1.620*%
%ADD14C,1.170*%
%ADD15C,1.619*%
%ADD16C,4.319*%
%ADD17C,1.621*%
%ADD18C,2.158*%
%ADD19C,2.160*%
%ADD20C,2.159*%
%ADD21C,1.167*%
%ADD22C,1.166*%
%ADD23C,2.698*%
%ADD24C,2.700*%
%ADD25C,1.943*%
%ADD26C,1.339*%
%ADD27C,4.319*%
%ADD28C,2.160*%
%ADD29C,2.159*%
%ADD30C,1.338*%
%ADD31C,1.340*%
%ADD32C,3.650*%
%ADD33C,2.160*%
%ADD34R,2.540X3.812*%
%ADD35R,3.812X2.540*%
%LPD*%
G54D10*
X490897Y-509490D02*
X490897Y-511847D01*
G54D10*
X427384Y-509823D02*
X427384Y-511847D01*
G54D10*
X426200Y-509823D02*
X427384Y-509823D01*
G54D10*
X313076Y-509823D02*
X313076Y-511847D01*
G54D10*
X224986Y-511847D02*
X224171Y-511847D01*
G54D10*
X210760Y-511847D02*
X211471Y-511847D01*
G54D10*
X159960Y-511847D02*
X160646Y-511847D01*
G54D10*
X147946Y-511847D02*
X147768Y-511847D01*
G54D10*
X84751Y-511847D02*
X84446Y-511847D01*
G54D10*
X96968Y-511847D02*
X97146Y-511847D01*
G54D10*
X808260Y-511847D02*
X806235Y-509823D01*
G54D10*
X808440Y-511847D02*
X808260Y-511847D01*
G54D10*
X122546Y-508982D02*
X122546Y-511847D01*
G54D10*
X109846Y-508469D02*
X109846Y-511847D01*
G54D10*
X783040Y-509823D02*
X783040Y-511847D01*
G54D11*
X389281Y-511847D02*
X389281Y-510150D01*
G54D10*
X275802Y-511847D02*
X274961Y-511847D01*
G54D10*
X1087876Y-511847D02*
X1088719Y-511006D01*
G54D12*
X1189494Y-511847D02*
X1189494Y-524557D01*
G36*
X1185048Y-524557D02*
X1193940Y-524557D01*
X1193940Y-529002D01*
X1185048Y-529002D01*
X1185048Y-524557D01*
G37*
G54D12*
X1189494Y-524547D02*
X1189494Y-581707D01*
G36*
X1193940Y-524547D02*
X1185048Y-524547D01*
X1185048Y-520102D01*
X1193940Y-520102D01*
X1193940Y-524547D01*
G37*
G36*
X1185048Y-581707D02*
X1193940Y-581707D01*
X1193940Y-586152D01*
X1185048Y-586152D01*
X1185048Y-581707D01*
G37*
G54D12*
X1176794Y-511847D02*
X1176794Y-524557D01*
G36*
X1172348Y-524557D02*
X1181240Y-524557D01*
X1181240Y-529002D01*
X1172348Y-529002D01*
X1172348Y-524557D01*
G37*
G54D12*
X1176794Y-524547D02*
X1176794Y-581707D01*
G36*
X1181240Y-524547D02*
X1172348Y-524547D01*
X1172348Y-520102D01*
X1181240Y-520102D01*
X1181240Y-524547D01*
G37*
G36*
X1172348Y-581707D02*
X1181240Y-581707D01*
X1181240Y-586152D01*
X1172348Y-586152D01*
X1172348Y-581707D01*
G37*
G54D12*
X1164094Y-511847D02*
X1164094Y-524557D01*
G36*
X1159648Y-524557D02*
X1168540Y-524557D01*
X1168540Y-529002D01*
X1159648Y-529002D01*
X1159648Y-524557D01*
G37*
G54D12*
X1164094Y-524547D02*
X1164094Y-581707D01*
G36*
X1168540Y-524547D02*
X1159648Y-524547D01*
X1159648Y-520102D01*
X1168540Y-520102D01*
X1168540Y-524547D01*
G37*
G36*
X1159648Y-581707D02*
X1168540Y-581707D01*
X1168540Y-586152D01*
X1159648Y-586152D01*
X1159648Y-581707D01*
G37*
G54D12*
X1151394Y-511847D02*
X1151394Y-524557D01*
G36*
X1146948Y-524557D02*
X1155840Y-524557D01*
X1155840Y-529002D01*
X1146948Y-529002D01*
X1146948Y-524557D01*
G37*
G54D12*
X1151394Y-524547D02*
X1151394Y-581707D01*
G36*
X1155840Y-524547D02*
X1146948Y-524547D01*
X1146948Y-520102D01*
X1155840Y-520102D01*
X1155840Y-524547D01*
G37*
G36*
X1146948Y-581707D02*
X1155840Y-581707D01*
X1155840Y-586152D01*
X1146948Y-586152D01*
X1146948Y-581707D01*
G37*
G54D12*
X1138694Y-511847D02*
X1138694Y-524557D01*
G36*
X1134248Y-524557D02*
X1143140Y-524557D01*
X1143140Y-529002D01*
X1134248Y-529002D01*
X1134248Y-524557D01*
G37*
G54D12*
X1138694Y-524547D02*
X1138694Y-581707D01*
G36*
X1143140Y-524547D02*
X1134248Y-524547D01*
X1134248Y-520101D01*
X1143140Y-520101D01*
X1143140Y-524547D01*
G37*
G36*
X1134248Y-581707D02*
X1143140Y-581707D01*
X1143140Y-586152D01*
X1134248Y-586152D01*
X1134248Y-581707D01*
G37*
G54D12*
X1125994Y-511847D02*
X1125994Y-524557D01*
G36*
X1121548Y-524557D02*
X1130440Y-524557D01*
X1130440Y-529002D01*
X1121548Y-529002D01*
X1121548Y-524557D01*
G37*
G54D12*
X1125994Y-524547D02*
X1125994Y-581707D01*
G36*
X1130440Y-524547D02*
X1121548Y-524547D01*
X1121548Y-520101D01*
X1130440Y-520101D01*
X1130440Y-524547D01*
G37*
G36*
X1121548Y-581707D02*
X1130440Y-581707D01*
X1130440Y-586152D01*
X1121548Y-586152D01*
X1121548Y-581707D01*
G37*
G54D12*
X1113294Y-511847D02*
X1113294Y-524557D01*
G36*
X1108848Y-524557D02*
X1117740Y-524557D01*
X1117740Y-529002D01*
X1108848Y-529002D01*
X1108848Y-524557D01*
G37*
G54D12*
X1113294Y-524547D02*
X1113294Y-581707D01*
G36*
X1117740Y-524547D02*
X1108848Y-524547D01*
X1108848Y-520101D01*
X1117740Y-520101D01*
X1117740Y-524547D01*
G37*
G36*
X1108848Y-581707D02*
X1117740Y-581707D01*
X1117740Y-586152D01*
X1108848Y-586152D01*
X1108848Y-581707D01*
G37*
G54D12*
X1100594Y-511847D02*
X1100594Y-524557D01*
G36*
X1096148Y-524557D02*
X1105040Y-524557D01*
X1105040Y-529002D01*
X1096148Y-529002D01*
X1096148Y-524557D01*
G37*
G54D12*
X1100594Y-524547D02*
X1100594Y-581707D01*
G36*
X1105040Y-524547D02*
X1096148Y-524547D01*
X1096148Y-520101D01*
X1105040Y-520101D01*
X1105040Y-524547D01*
G37*
G36*
X1096148Y-581707D02*
X1105040Y-581707D01*
X1105040Y-586152D01*
X1096148Y-586152D01*
X1096148Y-581707D01*
G37*
G54D12*
X1087894Y-511847D02*
X1087894Y-524557D01*
G36*
X1083448Y-524557D02*
X1092340Y-524557D01*
X1092340Y-529002D01*
X1083448Y-529002D01*
X1083448Y-524557D01*
G37*
G54D12*
X1087894Y-524547D02*
X1087894Y-581707D01*
G36*
X1092340Y-524547D02*
X1083448Y-524547D01*
X1083448Y-520101D01*
X1092340Y-520101D01*
X1092340Y-524547D01*
G37*
G36*
X1083448Y-581707D02*
X1092340Y-581707D01*
X1092340Y-586152D01*
X1083448Y-586152D01*
X1083448Y-581707D01*
G37*
G54D12*
X1075194Y-511847D02*
X1075194Y-524557D01*
G36*
X1070748Y-524557D02*
X1079640Y-524557D01*
X1079640Y-529002D01*
X1070748Y-529002D01*
X1070748Y-524557D01*
G37*
G54D12*
X1075194Y-524547D02*
X1075194Y-581707D01*
G36*
X1079640Y-524547D02*
X1070748Y-524547D01*
X1070748Y-520101D01*
X1079640Y-520101D01*
X1079640Y-524547D01*
G37*
G36*
X1070748Y-581707D02*
X1079640Y-581707D01*
X1079640Y-586152D01*
X1070748Y-586152D01*
X1070748Y-581707D01*
G37*
G54D12*
X1062494Y-511847D02*
X1062494Y-524557D01*
G36*
X1058048Y-524557D02*
X1066940Y-524557D01*
X1066940Y-529002D01*
X1058048Y-529002D01*
X1058048Y-524557D01*
G37*
G54D12*
X1062494Y-524547D02*
X1062494Y-581707D01*
G36*
X1066940Y-524547D02*
X1058048Y-524547D01*
X1058048Y-520101D01*
X1066940Y-520101D01*
X1066940Y-524547D01*
G37*
G36*
X1058048Y-581707D02*
X1066940Y-581707D01*
X1066940Y-586152D01*
X1058048Y-586152D01*
X1058048Y-581707D01*
G37*
G54D12*
X1049794Y-511847D02*
X1049794Y-524557D01*
G36*
X1045348Y-524557D02*
X1054240Y-524557D01*
X1054240Y-529002D01*
X1045348Y-529002D01*
X1045348Y-524557D01*
G37*
G54D12*
X1049794Y-524547D02*
X1049794Y-581707D01*
G36*
X1054240Y-524547D02*
X1045348Y-524547D01*
X1045348Y-520101D01*
X1054240Y-520101D01*
X1054240Y-524547D01*
G37*
G36*
X1045348Y-581707D02*
X1054240Y-581707D01*
X1054240Y-586152D01*
X1045348Y-586152D01*
X1045348Y-581707D01*
G37*
G54D12*
X1037094Y-511847D02*
X1037094Y-524557D01*
G36*
X1032648Y-524557D02*
X1041540Y-524557D01*
X1041540Y-529002D01*
X1032648Y-529002D01*
X1032648Y-524557D01*
G37*
G54D12*
X1037094Y-524547D02*
X1037094Y-581707D01*
G36*
X1041540Y-524547D02*
X1032648Y-524547D01*
X1032648Y-520101D01*
X1041540Y-520101D01*
X1041540Y-524547D01*
G37*
G36*
X1032648Y-581707D02*
X1041540Y-581707D01*
X1041540Y-586152D01*
X1032648Y-586152D01*
X1032648Y-581707D01*
G37*
G54D12*
X1024394Y-511847D02*
X1024394Y-524557D01*
G36*
X1019948Y-524557D02*
X1028840Y-524557D01*
X1028840Y-529002D01*
X1019948Y-529002D01*
X1019948Y-524557D01*
G37*
G54D12*
X1024394Y-524547D02*
X1024394Y-581707D01*
G36*
X1028840Y-524547D02*
X1019948Y-524547D01*
X1019948Y-520101D01*
X1028840Y-520101D01*
X1028840Y-524547D01*
G37*
G36*
X1019948Y-581707D02*
X1028840Y-581707D01*
X1028840Y-586152D01*
X1019948Y-586152D01*
X1019948Y-581707D01*
G37*
G54D12*
X1011694Y-511847D02*
X1011694Y-524557D01*
G36*
X1007248Y-524557D02*
X1016140Y-524557D01*
X1016140Y-529002D01*
X1007248Y-529002D01*
X1007248Y-524557D01*
G37*
G54D12*
X1011694Y-524547D02*
X1011694Y-581707D01*
G36*
X1016140Y-524547D02*
X1007248Y-524547D01*
X1007248Y-520101D01*
X1016140Y-520101D01*
X1016140Y-524547D01*
G37*
G36*
X1007248Y-581707D02*
X1016140Y-581707D01*
X1016140Y-586152D01*
X1007248Y-586152D01*
X1007248Y-581707D01*
G37*
G54D12*
X998994Y-511847D02*
X998994Y-524557D01*
G36*
X994548Y-524557D02*
X1003440Y-524557D01*
X1003440Y-529002D01*
X994548Y-529002D01*
X994548Y-524557D01*
G37*
G54D12*
X998994Y-524547D02*
X998994Y-581707D01*
G36*
X1003440Y-524547D02*
X994548Y-524547D01*
X994548Y-520101D01*
X1003440Y-520101D01*
X1003440Y-524547D01*
G37*
G36*
X994548Y-581707D02*
X1003440Y-581707D01*
X1003440Y-586152D01*
X994548Y-586152D01*
X994548Y-581707D01*
G37*
G54D12*
X986294Y-511847D02*
X986294Y-524557D01*
G36*
X981848Y-524557D02*
X990740Y-524557D01*
X990740Y-529002D01*
X981848Y-529002D01*
X981848Y-524557D01*
G37*
G54D12*
X986294Y-524547D02*
X986294Y-581707D01*
G36*
X990740Y-524547D02*
X981848Y-524547D01*
X981848Y-520101D01*
X990740Y-520101D01*
X990740Y-524547D01*
G37*
G36*
X981848Y-581707D02*
X990740Y-581707D01*
X990740Y-586152D01*
X981848Y-586152D01*
X981848Y-581707D01*
G37*
G54D12*
X973594Y-511847D02*
X973594Y-524557D01*
G36*
X969148Y-524557D02*
X978040Y-524557D01*
X978040Y-529002D01*
X969148Y-529002D01*
X969148Y-524557D01*
G37*
G54D12*
X973594Y-524547D02*
X973594Y-581707D01*
G36*
X978040Y-524547D02*
X969148Y-524547D01*
X969148Y-520102D01*
X978040Y-520102D01*
X978040Y-524547D01*
G37*
G36*
X969148Y-581707D02*
X978040Y-581707D01*
X978040Y-586152D01*
X969148Y-586152D01*
X969148Y-581707D01*
G37*
G54D12*
X960894Y-511847D02*
X960894Y-524557D01*
G36*
X956448Y-524557D02*
X965340Y-524557D01*
X965340Y-529002D01*
X956448Y-529002D01*
X956448Y-524557D01*
G37*
G54D12*
X960894Y-524547D02*
X960894Y-581707D01*
G36*
X965340Y-524547D02*
X956448Y-524547D01*
X956448Y-520102D01*
X965340Y-520102D01*
X965340Y-524547D01*
G37*
G36*
X956448Y-581707D02*
X965340Y-581707D01*
X965340Y-586152D01*
X956448Y-586152D01*
X956448Y-581707D01*
G37*
G54D12*
X948194Y-511847D02*
X948194Y-524557D01*
G36*
X943748Y-524557D02*
X952640Y-524557D01*
X952640Y-529002D01*
X943748Y-529002D01*
X943748Y-524557D01*
G37*
G54D12*
X948194Y-524547D02*
X948194Y-581707D01*
G36*
X952640Y-524547D02*
X943748Y-524547D01*
X943748Y-520102D01*
X952640Y-520102D01*
X952640Y-524547D01*
G37*
G36*
X943748Y-581707D02*
X952640Y-581707D01*
X952640Y-586152D01*
X943748Y-586152D01*
X943748Y-581707D01*
G37*
G54D12*
X935494Y-511847D02*
X935494Y-524557D01*
G36*
X931048Y-524557D02*
X939940Y-524557D01*
X939940Y-529002D01*
X931048Y-529002D01*
X931048Y-524557D01*
G37*
G54D12*
X935494Y-524547D02*
X935494Y-581707D01*
G36*
X939940Y-524547D02*
X931048Y-524547D01*
X931048Y-520102D01*
X939940Y-520102D01*
X939940Y-524547D01*
G37*
G36*
X931048Y-581707D02*
X939940Y-581707D01*
X939940Y-586152D01*
X931048Y-586152D01*
X931048Y-581707D01*
G37*
G54D12*
X922794Y-511847D02*
X922794Y-524557D01*
G36*
X918348Y-524557D02*
X927240Y-524557D01*
X927240Y-529002D01*
X918348Y-529002D01*
X918348Y-524557D01*
G37*
G54D12*
X922794Y-524547D02*
X922794Y-581707D01*
G36*
X927240Y-524547D02*
X918348Y-524547D01*
X918348Y-520102D01*
X927240Y-520102D01*
X927240Y-524547D01*
G37*
G36*
X918348Y-581707D02*
X927240Y-581707D01*
X927240Y-586152D01*
X918348Y-586152D01*
X918348Y-581707D01*
G37*
G54D12*
X910094Y-511847D02*
X910094Y-524557D01*
G36*
X905648Y-524557D02*
X914540Y-524557D01*
X914540Y-529002D01*
X905648Y-529002D01*
X905648Y-524557D01*
G37*
G54D12*
X910094Y-524547D02*
X910094Y-581707D01*
G36*
X914540Y-524547D02*
X905648Y-524547D01*
X905648Y-520102D01*
X914540Y-520102D01*
X914540Y-524547D01*
G37*
G36*
X905648Y-581707D02*
X914540Y-581707D01*
X914540Y-586152D01*
X905648Y-586152D01*
X905648Y-581707D01*
G37*
G54D12*
X897394Y-511847D02*
X897394Y-524557D01*
G36*
X892948Y-524557D02*
X901840Y-524557D01*
X901840Y-529002D01*
X892948Y-529002D01*
X892948Y-524557D01*
G37*
G54D12*
X897394Y-524547D02*
X897394Y-581707D01*
G36*
X901840Y-524547D02*
X892948Y-524547D01*
X892948Y-520102D01*
X901840Y-520102D01*
X901840Y-524547D01*
G37*
G36*
X892948Y-581707D02*
X901840Y-581707D01*
X901840Y-586152D01*
X892948Y-586152D01*
X892948Y-581707D01*
G37*
G54D12*
X884694Y-511847D02*
X884694Y-524557D01*
G36*
X880248Y-524557D02*
X889140Y-524557D01*
X889140Y-529002D01*
X880248Y-529002D01*
X880248Y-524557D01*
G37*
G54D12*
X884694Y-524547D02*
X884694Y-581707D01*
G36*
X889140Y-524547D02*
X880248Y-524547D01*
X880248Y-520102D01*
X889140Y-520102D01*
X889140Y-524547D01*
G37*
G36*
X880248Y-581707D02*
X889140Y-581707D01*
X889140Y-586152D01*
X880248Y-586152D01*
X880248Y-581707D01*
G37*
G54D12*
X871994Y-511847D02*
X871994Y-524557D01*
G36*
X867548Y-524557D02*
X876440Y-524557D01*
X876440Y-529002D01*
X867548Y-529002D01*
X867548Y-524557D01*
G37*
G54D12*
X871994Y-524547D02*
X871994Y-581707D01*
G36*
X876440Y-524547D02*
X867548Y-524547D01*
X867548Y-520101D01*
X876440Y-520101D01*
X876440Y-524547D01*
G37*
G36*
X867548Y-581707D02*
X876440Y-581707D01*
X876440Y-586152D01*
X867548Y-586152D01*
X867548Y-581707D01*
G37*
G54D12*
X859294Y-511847D02*
X859294Y-524557D01*
G36*
X854848Y-524557D02*
X863740Y-524557D01*
X863740Y-529002D01*
X854848Y-529002D01*
X854848Y-524557D01*
G37*
G54D12*
X859294Y-524547D02*
X859294Y-581707D01*
G36*
X863740Y-524547D02*
X854848Y-524547D01*
X854848Y-520101D01*
X863740Y-520101D01*
X863740Y-524547D01*
G37*
G36*
X854848Y-581707D02*
X863740Y-581707D01*
X863740Y-586152D01*
X854848Y-586152D01*
X854848Y-581707D01*
G37*
G54D12*
X846594Y-511847D02*
X846594Y-524557D01*
G36*
X842148Y-524557D02*
X851040Y-524557D01*
X851040Y-529002D01*
X842148Y-529002D01*
X842148Y-524557D01*
G37*
G54D12*
X846594Y-524547D02*
X846594Y-581707D01*
G36*
X851040Y-524547D02*
X842148Y-524547D01*
X842148Y-520101D01*
X851040Y-520101D01*
X851040Y-524547D01*
G37*
G36*
X842148Y-581707D02*
X851040Y-581707D01*
X851040Y-586152D01*
X842148Y-586152D01*
X842148Y-581707D01*
G37*
G54D12*
X833894Y-511847D02*
X833894Y-524557D01*
G36*
X829448Y-524557D02*
X838340Y-524557D01*
X838340Y-529002D01*
X829448Y-529002D01*
X829448Y-524557D01*
G37*
G54D12*
X833894Y-524547D02*
X833894Y-581707D01*
G36*
X838340Y-524547D02*
X829448Y-524547D01*
X829448Y-520101D01*
X838340Y-520101D01*
X838340Y-524547D01*
G37*
G36*
X829448Y-581707D02*
X838340Y-581707D01*
X838340Y-586152D01*
X829448Y-586152D01*
X829448Y-581707D01*
G37*
G54D12*
X821194Y-511847D02*
X821194Y-524557D01*
G36*
X816748Y-524557D02*
X825640Y-524557D01*
X825640Y-529002D01*
X816748Y-529002D01*
X816748Y-524557D01*
G37*
G54D12*
X821194Y-524547D02*
X821194Y-581707D01*
G36*
X825640Y-524547D02*
X816748Y-524547D01*
X816748Y-520101D01*
X825640Y-520101D01*
X825640Y-524547D01*
G37*
G36*
X816748Y-581707D02*
X825640Y-581707D01*
X825640Y-586152D01*
X816748Y-586152D01*
X816748Y-581707D01*
G37*
G54D12*
X808494Y-511847D02*
X808494Y-524557D01*
G36*
X804048Y-524557D02*
X812940Y-524557D01*
X812940Y-529002D01*
X804048Y-529002D01*
X804048Y-524557D01*
G37*
G54D12*
X808494Y-524547D02*
X808494Y-581707D01*
G36*
X812940Y-524547D02*
X804048Y-524547D01*
X804048Y-520101D01*
X812940Y-520101D01*
X812940Y-524547D01*
G37*
G36*
X804048Y-581707D02*
X812940Y-581707D01*
X812940Y-586152D01*
X804048Y-586152D01*
X804048Y-581707D01*
G37*
G54D12*
X795794Y-511847D02*
X795794Y-524557D01*
G36*
X791348Y-524557D02*
X800240Y-524557D01*
X800240Y-529002D01*
X791348Y-529002D01*
X791348Y-524557D01*
G37*
G54D12*
X795794Y-524547D02*
X795794Y-581707D01*
G36*
X800240Y-524547D02*
X791348Y-524547D01*
X791348Y-520101D01*
X800240Y-520101D01*
X800240Y-524547D01*
G37*
G36*
X791348Y-581707D02*
X800240Y-581707D01*
X800240Y-586152D01*
X791348Y-586152D01*
X791348Y-581707D01*
G37*
G54D12*
X783094Y-511847D02*
X783094Y-524557D01*
G36*
X778648Y-524557D02*
X787540Y-524557D01*
X787540Y-529002D01*
X778648Y-529002D01*
X778648Y-524557D01*
G37*
G54D12*
X783094Y-524547D02*
X783094Y-581707D01*
G36*
X787540Y-524547D02*
X778648Y-524547D01*
X778648Y-520101D01*
X787540Y-520101D01*
X787540Y-524547D01*
G37*
G36*
X778648Y-581707D02*
X787540Y-581707D01*
X787540Y-586152D01*
X778648Y-586152D01*
X778648Y-581707D01*
G37*
G54D12*
X770394Y-511847D02*
X770394Y-524557D01*
G36*
X765948Y-524557D02*
X774840Y-524557D01*
X774840Y-529002D01*
X765948Y-529002D01*
X765948Y-524557D01*
G37*
G54D12*
X770394Y-524547D02*
X770394Y-581707D01*
G36*
X774840Y-524547D02*
X765948Y-524547D01*
X765948Y-520101D01*
X774840Y-520101D01*
X774840Y-524547D01*
G37*
G36*
X765948Y-581707D02*
X774840Y-581707D01*
X774840Y-586152D01*
X765948Y-586152D01*
X765948Y-581707D01*
G37*
G54D12*
X757694Y-511847D02*
X757694Y-524557D01*
G36*
X753248Y-524557D02*
X762140Y-524557D01*
X762140Y-529002D01*
X753248Y-529002D01*
X753248Y-524557D01*
G37*
G54D12*
X757694Y-524547D02*
X757694Y-581707D01*
G36*
X762140Y-524547D02*
X753248Y-524547D01*
X753248Y-520101D01*
X762140Y-520101D01*
X762140Y-524547D01*
G37*
G36*
X753248Y-581707D02*
X762140Y-581707D01*
X762140Y-586152D01*
X753248Y-586152D01*
X753248Y-581707D01*
G37*
G54D12*
X744994Y-511847D02*
X744994Y-524557D01*
G36*
X740548Y-524557D02*
X749440Y-524557D01*
X749440Y-529002D01*
X740548Y-529002D01*
X740548Y-524557D01*
G37*
G54D12*
X744994Y-524547D02*
X744994Y-581707D01*
G36*
X749440Y-524547D02*
X740548Y-524547D01*
X740548Y-520101D01*
X749440Y-520101D01*
X749440Y-524547D01*
G37*
G36*
X740548Y-581707D02*
X749440Y-581707D01*
X749440Y-586152D01*
X740548Y-586152D01*
X740548Y-581707D01*
G37*
G54D12*
X732294Y-511847D02*
X732294Y-524557D01*
G36*
X727848Y-524557D02*
X736740Y-524557D01*
X736740Y-529002D01*
X727848Y-529002D01*
X727848Y-524557D01*
G37*
G54D12*
X732294Y-524547D02*
X732294Y-581707D01*
G36*
X736740Y-524547D02*
X727848Y-524547D01*
X727848Y-520101D01*
X736740Y-520101D01*
X736740Y-524547D01*
G37*
G36*
X727848Y-581707D02*
X736740Y-581707D01*
X736740Y-586152D01*
X727848Y-586152D01*
X727848Y-581707D01*
G37*
G54D12*
X706894Y-511847D02*
X706894Y-524557D01*
G36*
X702448Y-524557D02*
X711340Y-524557D01*
X711340Y-529002D01*
X702448Y-529002D01*
X702448Y-524557D01*
G37*
G54D12*
X706894Y-524547D02*
X706894Y-581707D01*
G36*
X711340Y-524547D02*
X702448Y-524547D01*
X702448Y-520102D01*
X711340Y-520102D01*
X711340Y-524547D01*
G37*
G36*
X702448Y-581707D02*
X711340Y-581707D01*
X711340Y-586152D01*
X702448Y-586152D01*
X702448Y-581707D01*
G37*
G54D12*
X694194Y-511847D02*
X694194Y-524557D01*
G36*
X689748Y-524557D02*
X698640Y-524557D01*
X698640Y-529002D01*
X689748Y-529002D01*
X689748Y-524557D01*
G37*
G54D12*
X694194Y-524547D02*
X694194Y-581707D01*
G36*
X698640Y-524547D02*
X689748Y-524547D01*
X689748Y-520102D01*
X698640Y-520102D01*
X698640Y-524547D01*
G37*
G36*
X689748Y-581707D02*
X698640Y-581707D01*
X698640Y-586152D01*
X689748Y-586152D01*
X689748Y-581707D01*
G37*
G54D12*
X681494Y-511847D02*
X681494Y-524557D01*
G36*
X677048Y-524557D02*
X685940Y-524557D01*
X685940Y-529002D01*
X677048Y-529002D01*
X677048Y-524557D01*
G37*
G54D12*
X681494Y-524547D02*
X681494Y-581707D01*
G36*
X685940Y-524547D02*
X677048Y-524547D01*
X677048Y-520102D01*
X685940Y-520102D01*
X685940Y-524547D01*
G37*
G36*
X677048Y-581707D02*
X685940Y-581707D01*
X685940Y-586152D01*
X677048Y-586152D01*
X677048Y-581707D01*
G37*
G54D12*
X656094Y-511847D02*
X656094Y-524557D01*
G36*
X651648Y-524557D02*
X660540Y-524557D01*
X660540Y-529002D01*
X651648Y-529002D01*
X651648Y-524557D01*
G37*
G54D12*
X656094Y-524547D02*
X656094Y-581707D01*
G36*
X660540Y-524547D02*
X651648Y-524547D01*
X651648Y-520102D01*
X660540Y-520102D01*
X660540Y-524547D01*
G37*
G36*
X651648Y-581707D02*
X660540Y-581707D01*
X660540Y-586152D01*
X651648Y-586152D01*
X651648Y-581707D01*
G37*
G54D12*
X668794Y-511847D02*
X668794Y-524557D01*
G36*
X664348Y-524557D02*
X673240Y-524557D01*
X673240Y-529002D01*
X664348Y-529002D01*
X664348Y-524557D01*
G37*
G54D12*
X668794Y-524547D02*
X668794Y-581707D01*
G36*
X673240Y-524547D02*
X664348Y-524547D01*
X664348Y-520102D01*
X673240Y-520102D01*
X673240Y-524547D01*
G37*
G36*
X664348Y-581707D02*
X673240Y-581707D01*
X673240Y-586152D01*
X664348Y-586152D01*
X664348Y-581707D01*
G37*
G54D12*
X643394Y-511847D02*
X643394Y-524557D01*
G36*
X638948Y-524557D02*
X647840Y-524557D01*
X647840Y-529002D01*
X638948Y-529002D01*
X638948Y-524557D01*
G37*
G54D12*
X643394Y-524547D02*
X643394Y-581707D01*
G36*
X647840Y-524547D02*
X638948Y-524547D01*
X638948Y-520102D01*
X647840Y-520102D01*
X647840Y-524547D01*
G37*
G36*
X638948Y-581707D02*
X647840Y-581707D01*
X647840Y-586152D01*
X638948Y-586152D01*
X638948Y-581707D01*
G37*
G54D12*
X630694Y-511847D02*
X630694Y-524557D01*
G36*
X626248Y-524557D02*
X635140Y-524557D01*
X635140Y-529002D01*
X626248Y-529002D01*
X626248Y-524557D01*
G37*
G54D12*
X630694Y-524547D02*
X630694Y-581707D01*
G36*
X635140Y-524547D02*
X626248Y-524547D01*
X626248Y-520102D01*
X635140Y-520102D01*
X635140Y-524547D01*
G37*
G36*
X626248Y-581707D02*
X635140Y-581707D01*
X635140Y-586152D01*
X626248Y-586152D01*
X626248Y-581707D01*
G37*
G54D12*
X617994Y-511847D02*
X617994Y-524557D01*
G36*
X613548Y-524557D02*
X622440Y-524557D01*
X622440Y-529002D01*
X613548Y-529002D01*
X613548Y-524557D01*
G37*
G54D12*
X617994Y-524547D02*
X617994Y-581707D01*
G36*
X622440Y-524547D02*
X613548Y-524547D01*
X613548Y-520102D01*
X622440Y-520102D01*
X622440Y-524547D01*
G37*
G36*
X613548Y-581707D02*
X622440Y-581707D01*
X622440Y-586152D01*
X613548Y-586152D01*
X613548Y-581707D01*
G37*
G54D12*
X605294Y-511847D02*
X605294Y-524557D01*
G36*
X600848Y-524557D02*
X609740Y-524557D01*
X609740Y-529002D01*
X600848Y-529002D01*
X600848Y-524557D01*
G37*
G54D12*
X605294Y-524547D02*
X605294Y-581707D01*
G36*
X609740Y-524547D02*
X600848Y-524547D01*
X600848Y-520102D01*
X609740Y-520102D01*
X609740Y-524547D01*
G37*
G36*
X600848Y-581707D02*
X609740Y-581707D01*
X609740Y-586152D01*
X600848Y-586152D01*
X600848Y-581707D01*
G37*
G54D12*
X592594Y-511847D02*
X592594Y-524557D01*
G36*
X588148Y-524557D02*
X597040Y-524557D01*
X597040Y-529002D01*
X588148Y-529002D01*
X588148Y-524557D01*
G37*
G54D12*
X592594Y-524547D02*
X592594Y-581707D01*
G36*
X597040Y-524547D02*
X588148Y-524547D01*
X588148Y-520102D01*
X597040Y-520102D01*
X597040Y-524547D01*
G37*
G36*
X588148Y-581707D02*
X597040Y-581707D01*
X597040Y-586152D01*
X588148Y-586152D01*
X588148Y-581707D01*
G37*
G54D12*
X579894Y-511847D02*
X579894Y-524557D01*
G36*
X575448Y-524557D02*
X584340Y-524557D01*
X584340Y-529002D01*
X575448Y-529002D01*
X575448Y-524557D01*
G37*
G54D12*
X579894Y-524547D02*
X579894Y-581707D01*
G36*
X584340Y-524547D02*
X575448Y-524547D01*
X575448Y-520101D01*
X584340Y-520101D01*
X584340Y-524547D01*
G37*
G36*
X575448Y-581707D02*
X584340Y-581707D01*
X584340Y-586152D01*
X575448Y-586152D01*
X575448Y-581707D01*
G37*
G54D12*
X541794Y-511847D02*
X541794Y-524557D01*
G36*
X537348Y-524557D02*
X546240Y-524557D01*
X546240Y-529002D01*
X537348Y-529002D01*
X537348Y-524557D01*
G37*
G54D12*
X541794Y-524547D02*
X541794Y-581707D01*
G36*
X546240Y-524547D02*
X537348Y-524547D01*
X537348Y-520101D01*
X546240Y-520101D01*
X546240Y-524547D01*
G37*
G36*
X537348Y-581707D02*
X546240Y-581707D01*
X546240Y-586152D01*
X537348Y-586152D01*
X537348Y-581707D01*
G37*
G54D12*
X529094Y-511847D02*
X529094Y-524557D01*
G36*
X524648Y-524557D02*
X533540Y-524557D01*
X533540Y-529002D01*
X524648Y-529002D01*
X524648Y-524557D01*
G37*
G54D12*
X529094Y-524547D02*
X529094Y-581707D01*
G36*
X533540Y-524547D02*
X524648Y-524547D01*
X524648Y-520101D01*
X533540Y-520101D01*
X533540Y-524547D01*
G37*
G36*
X524648Y-581707D02*
X533540Y-581707D01*
X533540Y-586152D01*
X524648Y-586152D01*
X524648Y-581707D01*
G37*
G54D12*
X516394Y-511847D02*
X516394Y-524557D01*
G36*
X511948Y-524557D02*
X520840Y-524557D01*
X520840Y-529002D01*
X511948Y-529002D01*
X511948Y-524557D01*
G37*
G54D12*
X516394Y-524547D02*
X516394Y-581707D01*
G36*
X520840Y-524547D02*
X511948Y-524547D01*
X511948Y-520101D01*
X520840Y-520101D01*
X520840Y-524547D01*
G37*
G36*
X511948Y-581707D02*
X520840Y-581707D01*
X520840Y-586152D01*
X511948Y-586152D01*
X511948Y-581707D01*
G37*
G54D12*
X503694Y-511847D02*
X503694Y-524557D01*
G36*
X499248Y-524557D02*
X508140Y-524557D01*
X508140Y-529002D01*
X499248Y-529002D01*
X499248Y-524557D01*
G37*
G54D12*
X503694Y-524547D02*
X503694Y-581707D01*
G36*
X508140Y-524547D02*
X499248Y-524547D01*
X499248Y-520101D01*
X508140Y-520101D01*
X508140Y-524547D01*
G37*
G36*
X499248Y-581707D02*
X508140Y-581707D01*
X508140Y-586152D01*
X499248Y-586152D01*
X499248Y-581707D01*
G37*
G54D12*
X490994Y-511847D02*
X490994Y-524557D01*
G36*
X486549Y-524557D02*
X495440Y-524557D01*
X495440Y-529002D01*
X486549Y-529002D01*
X486549Y-524557D01*
G37*
G54D12*
X490994Y-524547D02*
X490994Y-581707D01*
G36*
X495440Y-524547D02*
X486549Y-524547D01*
X486549Y-520101D01*
X495440Y-520101D01*
X495440Y-524547D01*
G37*
G36*
X486548Y-581707D02*
X495440Y-581707D01*
X495439Y-586152D01*
X486548Y-586152D01*
X486548Y-581707D01*
G37*
G54D12*
X478294Y-511847D02*
X478294Y-524557D01*
G36*
X473848Y-524557D02*
X482740Y-524557D01*
X482739Y-529002D01*
X473848Y-529002D01*
X473848Y-524557D01*
G37*
G54D12*
X478294Y-524547D02*
X478294Y-581707D01*
G36*
X482740Y-524547D02*
X473849Y-524547D01*
X473849Y-520101D01*
X482740Y-520101D01*
X482740Y-524547D01*
G37*
G36*
X473848Y-581707D02*
X482740Y-581707D01*
X482739Y-586152D01*
X473848Y-586152D01*
X473848Y-581707D01*
G37*
G54D12*
X465594Y-511847D02*
X465594Y-524557D01*
G36*
X461148Y-524557D02*
X470040Y-524557D01*
X470040Y-529002D01*
X461148Y-529002D01*
X461148Y-524557D01*
G37*
G54D12*
X465594Y-524547D02*
X465594Y-581707D01*
G36*
X470040Y-524547D02*
X461148Y-524547D01*
X461148Y-520102D01*
X470040Y-520102D01*
X470040Y-524547D01*
G37*
G36*
X461148Y-581707D02*
X470040Y-581707D01*
X470040Y-586152D01*
X461148Y-586152D01*
X461148Y-581707D01*
G37*
G54D12*
X452894Y-511847D02*
X452894Y-524557D01*
G36*
X448448Y-524557D02*
X457340Y-524557D01*
X457340Y-529002D01*
X448448Y-529002D01*
X448448Y-524557D01*
G37*
G54D12*
X452894Y-524547D02*
X452894Y-581707D01*
G36*
X457340Y-524547D02*
X448448Y-524547D01*
X448448Y-520101D01*
X457340Y-520101D01*
X457340Y-524547D01*
G37*
G36*
X448448Y-581707D02*
X457340Y-581707D01*
X457340Y-586152D01*
X448448Y-586152D01*
X448448Y-581707D01*
G37*
G54D12*
X440194Y-511847D02*
X440194Y-524557D01*
G36*
X435748Y-524557D02*
X444640Y-524557D01*
X444640Y-529002D01*
X435748Y-529002D01*
X435748Y-524557D01*
G37*
G54D12*
X440194Y-524547D02*
X440194Y-581707D01*
G36*
X444640Y-524547D02*
X435748Y-524547D01*
X435748Y-520101D01*
X444640Y-520101D01*
X444640Y-524547D01*
G37*
G36*
X435748Y-581707D02*
X444640Y-581707D01*
X444640Y-586152D01*
X435748Y-586152D01*
X435748Y-581707D01*
G37*
G54D12*
X427494Y-511847D02*
X427494Y-524557D01*
G36*
X423048Y-524557D02*
X431940Y-524557D01*
X431940Y-529002D01*
X423048Y-529002D01*
X423048Y-524557D01*
G37*
G54D12*
X427494Y-524547D02*
X427494Y-581707D01*
G36*
X431940Y-524547D02*
X423048Y-524547D01*
X423048Y-520101D01*
X431939Y-520101D01*
X431940Y-524547D01*
G37*
G36*
X423049Y-581707D02*
X431940Y-581707D01*
X431940Y-586152D01*
X423049Y-586152D01*
X423049Y-581707D01*
G37*
G54D12*
X414794Y-511847D02*
X414794Y-524557D01*
G36*
X410348Y-524557D02*
X419240Y-524557D01*
X419240Y-529002D01*
X410348Y-529002D01*
X410348Y-524557D01*
G37*
G54D12*
X414794Y-524547D02*
X414794Y-581707D01*
G36*
X419240Y-524547D02*
X410348Y-524547D01*
X410348Y-520101D01*
X419239Y-520101D01*
X419240Y-524547D01*
G37*
G36*
X410349Y-581707D02*
X419240Y-581707D01*
X419240Y-586152D01*
X410349Y-586152D01*
X410349Y-581707D01*
G37*
G54D12*
X402094Y-511847D02*
X402094Y-524557D01*
G36*
X397648Y-524557D02*
X406540Y-524557D01*
X406540Y-529002D01*
X397648Y-529002D01*
X397648Y-524557D01*
G37*
G54D12*
X402094Y-524547D02*
X402094Y-581707D01*
G36*
X406540Y-524547D02*
X397648Y-524547D01*
X397648Y-520101D01*
X406540Y-520101D01*
X406540Y-524547D01*
G37*
G36*
X397648Y-581707D02*
X406540Y-581707D01*
X406540Y-586152D01*
X397648Y-586152D01*
X397648Y-581707D01*
G37*
G54D12*
X389394Y-511847D02*
X389394Y-524557D01*
G36*
X384948Y-524557D02*
X393840Y-524557D01*
X393840Y-529002D01*
X384948Y-529002D01*
X384948Y-524557D01*
G37*
G54D12*
X389394Y-524547D02*
X389394Y-581707D01*
G36*
X393840Y-524547D02*
X384948Y-524547D01*
X384948Y-520101D01*
X393840Y-520101D01*
X393840Y-524547D01*
G37*
G36*
X384948Y-581707D02*
X393840Y-581707D01*
X393840Y-586152D01*
X384948Y-586152D01*
X384948Y-581707D01*
G37*
G54D12*
X376694Y-511847D02*
X376694Y-524557D01*
G36*
X372248Y-524557D02*
X381140Y-524557D01*
X381140Y-529002D01*
X372248Y-529002D01*
X372248Y-524557D01*
G37*
G54D12*
X376694Y-524547D02*
X376694Y-581707D01*
G36*
X381140Y-524547D02*
X372248Y-524547D01*
X372248Y-520101D01*
X381140Y-520101D01*
X381140Y-524547D01*
G37*
G36*
X372248Y-581707D02*
X381140Y-581707D01*
X381140Y-586152D01*
X372248Y-586152D01*
X372248Y-581707D01*
G37*
G54D12*
X363994Y-511847D02*
X363994Y-524557D01*
G36*
X359548Y-524557D02*
X368440Y-524557D01*
X368439Y-529002D01*
X359548Y-529002D01*
X359548Y-524557D01*
G37*
G54D12*
X363994Y-524547D02*
X363994Y-581707D01*
G36*
X368440Y-524547D02*
X359549Y-524547D01*
X359549Y-520101D01*
X368440Y-520101D01*
X368440Y-524547D01*
G37*
G36*
X359549Y-581707D02*
X368440Y-581707D01*
X368440Y-586152D01*
X359549Y-586152D01*
X359549Y-581707D01*
G37*
G54D12*
X351294Y-511847D02*
X351294Y-524557D01*
G36*
X346848Y-524557D02*
X355740Y-524557D01*
X355739Y-529002D01*
X346848Y-529002D01*
X346848Y-524557D01*
G37*
G54D12*
X351294Y-524547D02*
X351294Y-581707D01*
G36*
X355740Y-524547D02*
X346849Y-524547D01*
X346849Y-520101D01*
X355740Y-520101D01*
X355740Y-524547D01*
G37*
G36*
X346848Y-581707D02*
X355740Y-581707D01*
X355739Y-586152D01*
X346848Y-586152D01*
X346848Y-581707D01*
G37*
G54D12*
X325894Y-511847D02*
X325894Y-524557D01*
G36*
X321448Y-524557D02*
X330340Y-524557D01*
X330339Y-529002D01*
X321448Y-529002D01*
X321448Y-524557D01*
G37*
G54D12*
X325894Y-524547D02*
X325894Y-581707D01*
G36*
X330340Y-524547D02*
X321448Y-524547D01*
X321448Y-520102D01*
X330340Y-520102D01*
X330340Y-524547D01*
G37*
G36*
X321448Y-581707D02*
X330340Y-581707D01*
X330340Y-586152D01*
X321448Y-586152D01*
X321448Y-581707D01*
G37*
G54D12*
X313194Y-511847D02*
X313194Y-524557D01*
G36*
X308748Y-524557D02*
X317640Y-524557D01*
X317640Y-529002D01*
X308748Y-529002D01*
X308748Y-524557D01*
G37*
G54D12*
X313194Y-524547D02*
X313194Y-581707D01*
G36*
X317640Y-524547D02*
X308748Y-524547D01*
X308748Y-520102D01*
X317640Y-520102D01*
X317640Y-524547D01*
G37*
G36*
X308748Y-581707D02*
X317640Y-581707D01*
X317640Y-586152D01*
X308748Y-586152D01*
X308748Y-581707D01*
G37*
G54D12*
X300494Y-511847D02*
X300494Y-524557D01*
G36*
X296048Y-524557D02*
X304940Y-524557D01*
X304940Y-529002D01*
X296048Y-529002D01*
X296048Y-524557D01*
G37*
G54D12*
X300494Y-524547D02*
X300494Y-581707D01*
G36*
X304940Y-524547D02*
X296048Y-524547D01*
X296048Y-520102D01*
X304940Y-520102D01*
X304940Y-524547D01*
G37*
G36*
X296048Y-581707D02*
X304940Y-581707D01*
X304940Y-586152D01*
X296048Y-586152D01*
X296048Y-581707D01*
G37*
G54D12*
X287794Y-511847D02*
X287794Y-524557D01*
G36*
X283348Y-524557D02*
X292240Y-524557D01*
X292240Y-529002D01*
X283348Y-529002D01*
X283348Y-524557D01*
G37*
G54D12*
X287794Y-524547D02*
X287794Y-581707D01*
G36*
X292240Y-524547D02*
X283348Y-524547D01*
X283348Y-520102D01*
X292240Y-520102D01*
X292240Y-524547D01*
G37*
G36*
X283348Y-581707D02*
X292240Y-581707D01*
X292240Y-586152D01*
X283348Y-586152D01*
X283348Y-581707D01*
G37*
G54D12*
X275094Y-511847D02*
X275094Y-524557D01*
G36*
X270648Y-524557D02*
X279540Y-524557D01*
X279540Y-529002D01*
X270648Y-529002D01*
X270648Y-524557D01*
G37*
G54D12*
X275094Y-524547D02*
X275094Y-581707D01*
G36*
X279540Y-524547D02*
X270648Y-524547D01*
X270648Y-520102D01*
X279540Y-520102D01*
X279540Y-524547D01*
G37*
G36*
X270648Y-581707D02*
X279540Y-581707D01*
X279540Y-586152D01*
X270648Y-586152D01*
X270648Y-581707D01*
G37*
G54D12*
X262394Y-511847D02*
X262394Y-524557D01*
G36*
X257948Y-524557D02*
X266840Y-524557D01*
X266840Y-529002D01*
X257948Y-529002D01*
X257948Y-524557D01*
G37*
G54D12*
X262394Y-524547D02*
X262394Y-581707D01*
G36*
X266840Y-524547D02*
X257948Y-524547D01*
X257948Y-520102D01*
X266840Y-520102D01*
X266840Y-524547D01*
G37*
G36*
X257948Y-581707D02*
X266840Y-581707D01*
X266840Y-586152D01*
X257948Y-586152D01*
X257948Y-581707D01*
G37*
G54D12*
X249694Y-511847D02*
X249694Y-524557D01*
G36*
X245248Y-524557D02*
X254140Y-524557D01*
X254140Y-529002D01*
X245248Y-529002D01*
X245248Y-524557D01*
G37*
G54D12*
X249694Y-524547D02*
X249694Y-581707D01*
G36*
X254140Y-524547D02*
X245248Y-524547D01*
X245248Y-520102D01*
X254140Y-520102D01*
X254140Y-524547D01*
G37*
G36*
X245248Y-581707D02*
X254140Y-581707D01*
X254140Y-586152D01*
X245248Y-586152D01*
X245248Y-581707D01*
G37*
G54D12*
X236994Y-511847D02*
X236994Y-524557D01*
G36*
X232548Y-524557D02*
X241440Y-524557D01*
X241440Y-529002D01*
X232548Y-529002D01*
X232548Y-524557D01*
G37*
G54D12*
X236994Y-524547D02*
X236994Y-581707D01*
G36*
X241440Y-524547D02*
X232548Y-524547D01*
X232548Y-520102D01*
X241440Y-520102D01*
X241440Y-524547D01*
G37*
G36*
X232548Y-581707D02*
X241440Y-581707D01*
X241440Y-586152D01*
X232548Y-586152D01*
X232548Y-581707D01*
G37*
G54D12*
X224294Y-511847D02*
X224294Y-524557D01*
G36*
X219848Y-524557D02*
X228740Y-524557D01*
X228740Y-529002D01*
X219848Y-529002D01*
X219848Y-524557D01*
G37*
G54D12*
X224294Y-524547D02*
X224294Y-581707D01*
G36*
X228740Y-524547D02*
X219848Y-524547D01*
X219848Y-520102D01*
X228740Y-520102D01*
X228740Y-524547D01*
G37*
G36*
X219848Y-581707D02*
X228740Y-581707D01*
X228740Y-586152D01*
X219848Y-586152D01*
X219848Y-581707D01*
G37*
G54D12*
X211594Y-511847D02*
X211594Y-524557D01*
G36*
X207148Y-524557D02*
X216040Y-524557D01*
X216040Y-529002D01*
X207148Y-529002D01*
X207148Y-524557D01*
G37*
G54D12*
X211594Y-524547D02*
X211594Y-581707D01*
G36*
X216040Y-524547D02*
X207148Y-524547D01*
X207148Y-520102D01*
X216040Y-520102D01*
X216040Y-524547D01*
G37*
G36*
X207148Y-581707D02*
X216040Y-581707D01*
X216040Y-586152D01*
X207148Y-586152D01*
X207148Y-581707D01*
G37*
G54D12*
X198894Y-511847D02*
X198894Y-524557D01*
G36*
X194448Y-524557D02*
X203340Y-524557D01*
X203340Y-529002D01*
X194448Y-529002D01*
X194448Y-524557D01*
G37*
G54D12*
X198894Y-524547D02*
X198894Y-581707D01*
G36*
X203340Y-524547D02*
X194448Y-524547D01*
X194448Y-520102D01*
X203340Y-520102D01*
X203340Y-524547D01*
G37*
G36*
X194448Y-581707D02*
X203340Y-581707D01*
X203340Y-586152D01*
X194448Y-586152D01*
X194448Y-581707D01*
G37*
G54D12*
X186194Y-511847D02*
X186194Y-524557D01*
G36*
X181748Y-524557D02*
X190640Y-524557D01*
X190640Y-529002D01*
X181748Y-529002D01*
X181748Y-524557D01*
G37*
G54D12*
X186194Y-524547D02*
X186194Y-581707D01*
G36*
X190640Y-524547D02*
X181748Y-524547D01*
X181748Y-520102D01*
X190640Y-520102D01*
X190640Y-524547D01*
G37*
G36*
X181748Y-581707D02*
X190640Y-581707D01*
X190640Y-586152D01*
X181748Y-586152D01*
X181748Y-581707D01*
G37*
G54D12*
X173494Y-511847D02*
X173494Y-524557D01*
G36*
X169048Y-524557D02*
X177940Y-524557D01*
X177940Y-529002D01*
X169048Y-529002D01*
X169048Y-524557D01*
G37*
G54D12*
X173494Y-524547D02*
X173494Y-581707D01*
G36*
X177940Y-524547D02*
X169048Y-524547D01*
X169048Y-520102D01*
X177940Y-520102D01*
X177940Y-524547D01*
G37*
G36*
X169048Y-581707D02*
X177940Y-581707D01*
X177940Y-586152D01*
X169048Y-586152D01*
X169048Y-581707D01*
G37*
G54D12*
X160794Y-511847D02*
X160794Y-524557D01*
G36*
X156348Y-524557D02*
X165240Y-524557D01*
X165240Y-529002D01*
X156348Y-529002D01*
X156348Y-524557D01*
G37*
G54D12*
X160794Y-524547D02*
X160794Y-581707D01*
G36*
X165240Y-524547D02*
X156348Y-524547D01*
X156348Y-520102D01*
X165240Y-520102D01*
X165240Y-524547D01*
G37*
G36*
X156348Y-581707D02*
X165240Y-581707D01*
X165240Y-586152D01*
X156348Y-586152D01*
X156348Y-581707D01*
G37*
G54D12*
X148094Y-511847D02*
X148094Y-524557D01*
G36*
X143648Y-524557D02*
X152540Y-524557D01*
X152540Y-529002D01*
X143648Y-529002D01*
X143648Y-524557D01*
G37*
G54D12*
X148094Y-524547D02*
X148094Y-581707D01*
G36*
X152540Y-524547D02*
X143648Y-524547D01*
X143648Y-520102D01*
X152540Y-520102D01*
X152540Y-524547D01*
G37*
G36*
X143648Y-581707D02*
X152540Y-581707D01*
X152540Y-586152D01*
X143648Y-586152D01*
X143648Y-581707D01*
G37*
G54D12*
X135394Y-511847D02*
X135394Y-524557D01*
G36*
X130948Y-524557D02*
X139840Y-524557D01*
X139840Y-529002D01*
X130948Y-529002D01*
X130948Y-524557D01*
G37*
G54D12*
X135394Y-524547D02*
X135394Y-581707D01*
G36*
X139840Y-524547D02*
X130948Y-524547D01*
X130948Y-520102D01*
X139840Y-520102D01*
X139840Y-524547D01*
G37*
G36*
X130948Y-581707D02*
X139840Y-581707D01*
X139840Y-586152D01*
X130948Y-586152D01*
X130948Y-581707D01*
G37*
G54D12*
X122694Y-511847D02*
X122694Y-524557D01*
G36*
X118248Y-524557D02*
X127140Y-524557D01*
X127140Y-529002D01*
X118248Y-529002D01*
X118248Y-524557D01*
G37*
G54D12*
X122694Y-524547D02*
X122694Y-581707D01*
G36*
X127140Y-524547D02*
X118248Y-524547D01*
X118248Y-520102D01*
X127140Y-520102D01*
X127140Y-524547D01*
G37*
G36*
X118248Y-581707D02*
X127140Y-581707D01*
X127140Y-586152D01*
X118248Y-586152D01*
X118248Y-581707D01*
G37*
G54D12*
X109994Y-511847D02*
X109994Y-524557D01*
G36*
X105548Y-524557D02*
X114440Y-524557D01*
X114440Y-529002D01*
X105548Y-529002D01*
X105548Y-524557D01*
G37*
G54D12*
X109994Y-524547D02*
X109994Y-581707D01*
G36*
X114440Y-524547D02*
X105548Y-524547D01*
X105548Y-520102D01*
X114440Y-520102D01*
X114440Y-524547D01*
G37*
G36*
X105548Y-581707D02*
X114440Y-581707D01*
X114440Y-586152D01*
X105548Y-586152D01*
X105548Y-581707D01*
G37*
G54D12*
X97294Y-511847D02*
X97294Y-524557D01*
G36*
X92848Y-524557D02*
X101740Y-524557D01*
X101740Y-529002D01*
X92848Y-529002D01*
X92848Y-524557D01*
G37*
G54D12*
X97294Y-524547D02*
X97294Y-581707D01*
G36*
X101740Y-524547D02*
X92848Y-524547D01*
X92848Y-520101D01*
X101740Y-520101D01*
X101740Y-524547D01*
G37*
G36*
X92848Y-581707D02*
X101740Y-581707D01*
X101740Y-586152D01*
X92848Y-586152D01*
X92848Y-581707D01*
G37*
G54D12*
X84594Y-511847D02*
X84594Y-524557D01*
G36*
X80148Y-524557D02*
X89040Y-524557D01*
X89040Y-529002D01*
X80148Y-529002D01*
X80148Y-524557D01*
G37*
G54D12*
X84594Y-524547D02*
X84594Y-581707D01*
G36*
X89040Y-524547D02*
X80148Y-524547D01*
X80148Y-520101D01*
X89040Y-520101D01*
X89040Y-524547D01*
G37*
G36*
X80148Y-581707D02*
X89040Y-581707D01*
X89040Y-586152D01*
X80148Y-586152D01*
X80148Y-581707D01*
G37*
G54D12*
X71894Y-511847D02*
X71894Y-524557D01*
G36*
X67448Y-524557D02*
X76340Y-524557D01*
X76340Y-529002D01*
X67448Y-529002D01*
X67448Y-524557D01*
G37*
G54D12*
X71894Y-524547D02*
X71894Y-581707D01*
G36*
X76340Y-524547D02*
X67448Y-524547D01*
X67448Y-520101D01*
X76340Y-520101D01*
X76340Y-524547D01*
G37*
G36*
X67448Y-581707D02*
X76340Y-581707D01*
X76340Y-586152D01*
X67448Y-586152D01*
X67448Y-581707D01*
G37*
G54D12*
X59194Y-511847D02*
X59194Y-524557D01*
G36*
X54748Y-524557D02*
X63640Y-524557D01*
X63640Y-529002D01*
X54748Y-529002D01*
X54748Y-524557D01*
G37*
G54D12*
X59194Y-524547D02*
X59194Y-581707D01*
G36*
X63640Y-524547D02*
X54748Y-524547D01*
X54748Y-520101D01*
X63640Y-520101D01*
X63640Y-524547D01*
G37*
G36*
X54748Y-581707D02*
X63640Y-581707D01*
X63640Y-586152D01*
X54748Y-586152D01*
X54748Y-581707D01*
G37*
G54D12*
X46494Y-511847D02*
X46494Y-524557D01*
G36*
X42048Y-524557D02*
X50940Y-524557D01*
X50940Y-529002D01*
X42048Y-529002D01*
X42048Y-524557D01*
G37*
G54D12*
X46494Y-524547D02*
X46494Y-581707D01*
G36*
X50940Y-524547D02*
X42048Y-524547D01*
X42048Y-520101D01*
X50940Y-520101D01*
X50940Y-524547D01*
G37*
G36*
X42048Y-581707D02*
X50940Y-581707D01*
X50940Y-586152D01*
X42048Y-586152D01*
X42048Y-581707D01*
G37*
G54D12*
X338594Y-511847D02*
X338594Y-524557D01*
G36*
X334148Y-524557D02*
X343040Y-524557D01*
X343039Y-529002D01*
X334148Y-529002D01*
X334148Y-524557D01*
G37*
G54D12*
X338594Y-524547D02*
X338594Y-581707D01*
G36*
X343040Y-524547D02*
X334149Y-524547D01*
X334149Y-520101D01*
X343040Y-520101D01*
X343040Y-524547D01*
G37*
G36*
X334148Y-581707D02*
X343040Y-581707D01*
X343039Y-586152D01*
X334148Y-586152D01*
X334148Y-581707D01*
G37*
G54D12*
X719594Y-511847D02*
X719594Y-524557D01*
G36*
X715148Y-524557D02*
X724040Y-524557D01*
X724040Y-529002D01*
X715148Y-529002D01*
X715148Y-524557D01*
G37*
G54D12*
X719594Y-524547D02*
X719594Y-581707D01*
G36*
X724040Y-524547D02*
X715148Y-524547D01*
X715148Y-520102D01*
X724040Y-520102D01*
X724040Y-524547D01*
G37*
G36*
X715148Y-581707D02*
X724040Y-581707D01*
X724040Y-586152D01*
X715148Y-586152D01*
X715148Y-581707D01*
G37*
G54D12*
X33794Y-511847D02*
X33794Y-524557D01*
G36*
X29348Y-524557D02*
X38240Y-524557D01*
X38240Y-529002D01*
X29348Y-529002D01*
X29348Y-524557D01*
G37*
G54D12*
X33794Y-524547D02*
X33794Y-581707D01*
G36*
X38240Y-524547D02*
X29348Y-524547D01*
X29348Y-520102D01*
X38240Y-520102D01*
X38240Y-524547D01*
G37*
G36*
X29348Y-581707D02*
X38240Y-581707D01*
X38240Y-586152D01*
X29348Y-586152D01*
X29348Y-581707D01*
G37*
G54D12*
X21094Y-511847D02*
X21094Y-524557D01*
G36*
X16648Y-524557D02*
X25540Y-524557D01*
X25540Y-529002D01*
X16648Y-529002D01*
X16648Y-524557D01*
G37*
G54D12*
X21094Y-524547D02*
X21094Y-581707D01*
G36*
X25540Y-524547D02*
X16648Y-524547D01*
X16648Y-520102D01*
X25540Y-520102D01*
X25540Y-524547D01*
G37*
G36*
X16648Y-581707D02*
X25540Y-581707D01*
X25540Y-586152D01*
X16648Y-586152D01*
X16648Y-581707D01*
G37*
G36*
X3832182Y-466367D02*
X3851182Y-466367D01*
X3851182Y-485367D01*
X3832182Y-485367D01*
X3832182Y-466367D01*
G37*
X3892482Y-475867D02*
G54D13*
D03*
X3867078Y-475867D02*
G54D13*
D03*
X1818334Y-102638D02*
G54D14*
D03*
X1843736Y-102626D02*
G54D14*
D03*
X1869139Y-102626D02*
G54D14*
D03*
X1894523Y-102626D02*
G54D14*
D03*
X1919949Y-102638D02*
G54D14*
D03*
X1945351Y-102626D02*
G54D14*
D03*
X1970754Y-102626D02*
G54D14*
D03*
X1996138Y-102626D02*
G54D14*
D03*
X2021564Y-102638D02*
G54D14*
D03*
X2072348Y-102626D02*
G54D14*
D03*
X2097750Y-102614D02*
G54D14*
D03*
X2123162Y-102614D02*
G54D14*
D03*
X2148553Y-102614D02*
G54D14*
D03*
X2173988Y-102626D02*
G54D14*
D03*
X2199398Y-102614D02*
G54D14*
D03*
X2224808Y-102614D02*
G54D14*
D03*
X2250200Y-102614D02*
G54D14*
D03*
X2275634Y-102626D02*
G54D14*
D03*
X2046948Y-102626D02*
G54D14*
D03*
X2301036Y-102626D02*
G54D14*
D03*
G36*
X2319623Y-95788D02*
X2333323Y-95788D01*
X2333323Y-109488D01*
X2319623Y-109488D01*
X2319623Y-95788D01*
G37*
X1818334Y-255038D02*
G54D14*
D03*
X1843736Y-255026D02*
G54D14*
D03*
X1869139Y-255026D02*
G54D14*
D03*
X1894523Y-255026D02*
G54D14*
D03*
X1919949Y-255038D02*
G54D14*
D03*
X1945351Y-255026D02*
G54D14*
D03*
X1970754Y-255026D02*
G54D14*
D03*
X1996138Y-255026D02*
G54D14*
D03*
X2021564Y-255038D02*
G54D14*
D03*
X2072348Y-255026D02*
G54D14*
D03*
X2097750Y-255014D02*
G54D14*
D03*
X2123162Y-255014D02*
G54D14*
D03*
X2148553Y-255014D02*
G54D14*
D03*
X2173988Y-255026D02*
G54D14*
D03*
X2199398Y-255014D02*
G54D14*
D03*
X2224808Y-255014D02*
G54D14*
D03*
X2250200Y-255014D02*
G54D14*
D03*
X2275634Y-255026D02*
G54D14*
D03*
X2046948Y-255026D02*
G54D14*
D03*
X2301036Y-255026D02*
G54D14*
D03*
X2326473Y-255064D02*
G54D14*
D03*
X1818338Y-293485D02*
G54D14*
D03*
X1843741Y-293472D02*
G54D14*
D03*
X1869144Y-293473D02*
G54D14*
D03*
X1894527Y-293473D02*
G54D14*
D03*
X1919954Y-293485D02*
G54D14*
D03*
X1945356Y-293472D02*
G54D14*
D03*
X1970759Y-293473D02*
G54D14*
D03*
X1996142Y-293473D02*
G54D14*
D03*
X2021569Y-293485D02*
G54D14*
D03*
X2072353Y-293473D02*
G54D14*
D03*
X2097755Y-293460D02*
G54D14*
D03*
X2123166Y-293461D02*
G54D14*
D03*
X2148558Y-293461D02*
G54D14*
D03*
X2173992Y-293473D02*
G54D14*
D03*
X2199402Y-293460D02*
G54D14*
D03*
X2224813Y-293461D02*
G54D14*
D03*
X2250205Y-293461D02*
G54D14*
D03*
X2275640Y-293473D02*
G54D14*
D03*
X2046952Y-293472D02*
G54D14*
D03*
X2301041Y-293473D02*
G54D14*
D03*
G36*
X2319628Y-286635D02*
X2333328Y-286635D01*
X2333328Y-300335D01*
X2319628Y-300335D01*
X2319628Y-286635D01*
G37*
X1818338Y-445908D02*
G54D14*
D03*
X1843740Y-445895D02*
G54D14*
D03*
X1869144Y-445896D02*
G54D14*
D03*
X1894527Y-445896D02*
G54D14*
D03*
X1919954Y-445908D02*
G54D14*
D03*
X1945356Y-445895D02*
G54D14*
D03*
X1970758Y-445896D02*
G54D14*
D03*
X1996142Y-445896D02*
G54D14*
D03*
X2021568Y-445908D02*
G54D14*
D03*
X2072352Y-445896D02*
G54D14*
D03*
X2097755Y-445883D02*
G54D14*
D03*
X2123166Y-445884D02*
G54D14*
D03*
X2148558Y-445884D02*
G54D14*
D03*
X2173992Y-445896D02*
G54D14*
D03*
X2199402Y-445883D02*
G54D14*
D03*
X2224813Y-445884D02*
G54D14*
D03*
X2250204Y-445884D02*
G54D14*
D03*
X2275639Y-445896D02*
G54D14*
D03*
X2046952Y-445896D02*
G54D14*
D03*
X2301041Y-445896D02*
G54D14*
D03*
X2326478Y-445934D02*
G54D14*
D03*
X2512568Y-466727D02*
G54D15*
D03*
X2678959Y-451493D02*
G54D16*
D03*
X2540254Y-466727D02*
G54D15*
D03*
X2567689Y-466727D02*
G54D15*
D03*
X2595390Y-466727D02*
G54D15*
D03*
X2526287Y-438278D02*
G54D17*
D03*
X2428990Y-451493D02*
G54D16*
D03*
X2609354Y-438278D02*
G54D17*
D03*
X2581662Y-438278D02*
G54D17*
D03*
X2553975Y-438278D02*
G54D17*
D03*
G36*
X2489095Y-447778D02*
X2489095Y-428778D01*
X2508095Y-428778D01*
X2508095Y-447778D01*
X2489095Y-447778D01*
G37*
X3635760Y-365064D02*
G54D18*
D03*
X3635760Y-403168D02*
G54D18*
D03*
X3637034Y-530192D02*
G54D19*
D03*
X3587492Y-326960D02*
G54D20*
D03*
X3587492Y-365064D02*
G54D20*
D03*
X3587492Y-403168D02*
G54D20*
D03*
X3586226Y-530191D02*
G54D19*
D03*
X3635760Y-326960D02*
G54D18*
D03*
X3422056Y-483700D02*
G54D21*
D03*
X3422056Y-508595D02*
G54D22*
D03*
X3443142Y-508594D02*
G54D22*
D03*
X3469048Y-508594D02*
G54D22*
D03*
X3490132Y-508594D02*
G54D22*
D03*
X3523411Y-538828D02*
G54D23*
D03*
X3456094Y-546951D02*
G54D24*
D03*
X3388772Y-538828D02*
G54D23*
D03*
X3490132Y-483700D02*
G54D21*
D03*
X3173411Y-568543D02*
G54D25*
D03*
X3173246Y-443809D02*
G54D25*
D03*
X3198395Y-468711D02*
G54D25*
D03*
X3148352Y-568545D02*
G54D15*
D03*
X3148351Y-543649D02*
G54D15*
D03*
X3123450Y-543650D02*
G54D19*
D03*
X3073669Y-568543D02*
G54D25*
D03*
X3098561Y-568545D02*
G54D15*
D03*
X3098562Y-543649D02*
G54D15*
D03*
X3073669Y-443809D02*
G54D25*
D03*
X3048521Y-468712D02*
G54D25*
D03*
X3173500Y-468456D02*
G54D15*
D03*
X3148353Y-443556D02*
G54D15*
D03*
X3098561Y-443556D02*
G54D15*
D03*
X3073414Y-468456D02*
G54D15*
D03*
X3783878Y-215183D02*
G54D26*
D03*
X3885220Y-339130D02*
G54D27*
D03*
X3721898Y-459570D02*
G54D28*
D03*
X4012513Y-357953D02*
G54D29*
D03*
X3707664Y-357953D02*
G54D28*
D03*
X3891838Y-570833D02*
G54D29*
D03*
X3809282Y-215184D02*
G54D30*
D03*
X3834684Y-215184D02*
G54D31*
D03*
X3860089Y-215184D02*
G54D30*
D03*
X4007690Y-459569D02*
G54D29*
D03*
X3931470Y-390722D02*
G54D30*
D03*
X3906065Y-390721D02*
G54D31*
D03*
X3982284Y-390722D02*
G54D30*
D03*
X3956878Y-390721D02*
G54D31*
D03*
X2829625Y-466727D02*
G54D15*
D03*
X2996015Y-451493D02*
G54D16*
D03*
X2857311Y-466727D02*
G54D15*
D03*
X2884745Y-466727D02*
G54D15*
D03*
X2912447Y-466727D02*
G54D15*
D03*
X2843343Y-438278D02*
G54D17*
D03*
X2746046Y-451493D02*
G54D16*
D03*
X2926410Y-438278D02*
G54D17*
D03*
X2898718Y-438278D02*
G54D17*
D03*
X2871032Y-438278D02*
G54D17*
D03*
G36*
X2806151Y-447778D02*
X2806151Y-428778D01*
X2825151Y-428778D01*
X2825151Y-447778D01*
X2806151Y-447778D01*
G37*
X106759Y-274638D02*
G54D32*
D03*
X3363686Y-517051D02*
G54D33*
D03*
X3283408Y-546721D02*
G54D26*
D03*
X3262314Y-546721D02*
G54D30*
D03*
X3262314Y-572127D02*
G54D30*
D03*
X3296356Y-509054D02*
G54D33*
D03*
X3309316Y-546721D02*
G54D26*
D03*
X3330398Y-546721D02*
G54D26*
D03*
X3330398Y-572127D02*
G54D26*
D03*
X3229038Y-517051D02*
G54D33*
D03*
X3305248Y-572127D02*
G54D31*
D03*
X3287466Y-572127D02*
G54D30*
D03*
X1997728Y-531416D02*
G54D21*
D03*
X1897765Y-531416D02*
G54D21*
D03*
X1877776Y-531416D02*
G54D22*
D03*
X2017716Y-531416D02*
G54D22*
D03*
X2037713Y-531416D02*
G54D22*
D03*
X2057707Y-531416D02*
G54D22*
D03*
X1917753Y-531416D02*
G54D22*
D03*
X1937748Y-531416D02*
G54D22*
D03*
X1957743Y-531416D02*
G54D22*
D03*
X1977739Y-531416D02*
G54D22*
D03*
X1614854Y-551688D02*
G54D22*
D03*
X1818080Y-551688D02*
G54D22*
D03*
X1792681Y-551688D02*
G54D22*
D03*
X1767272Y-551688D02*
G54D22*
D03*
X1779976Y-531623D02*
G54D22*
D03*
X1805382Y-531623D02*
G54D22*
D03*
X1754574Y-577099D02*
G54D22*
D03*
X1754574Y-531622D02*
G54D22*
D03*
X1538642Y-551688D02*
G54D22*
D03*
X1513242Y-551688D02*
G54D22*
D03*
X1525936Y-577099D02*
G54D22*
D03*
X1779976Y-577099D02*
G54D22*
D03*
X1805381Y-577099D02*
G54D22*
D03*
X1627552Y-531623D02*
G54D22*
D03*
X1652964Y-531623D02*
G54D22*
D03*
X1678360Y-531623D02*
G54D22*
D03*
X1703771Y-531623D02*
G54D22*
D03*
X1729168Y-531623D02*
G54D22*
D03*
X1551347Y-531623D02*
G54D22*
D03*
X1576742Y-531623D02*
G54D22*
D03*
X1602156Y-531623D02*
G54D22*
D03*
X1525936Y-531623D02*
G54D22*
D03*
X1703772Y-577099D02*
G54D22*
D03*
X1729168Y-577099D02*
G54D22*
D03*
X1741875Y-551688D02*
G54D22*
D03*
X1691066Y-551688D02*
G54D22*
D03*
X1716464Y-551688D02*
G54D22*
D03*
X1678360Y-577099D02*
G54D22*
D03*
X1627551Y-577099D02*
G54D22*
D03*
X1652964Y-577099D02*
G54D22*
D03*
X1640258Y-551688D02*
G54D22*
D03*
X1665662Y-551688D02*
G54D22*
D03*
X1602156Y-577099D02*
G54D22*
D03*
X1576742Y-577099D02*
G54D22*
D03*
X1551348Y-577099D02*
G54D22*
D03*
X1564052Y-551688D02*
G54D22*
D03*
X1589450Y-551688D02*
G54D22*
D03*
G36*
X1492938Y-539223D02*
X1492938Y-524023D01*
X1508138Y-524023D01*
X1508138Y-539223D01*
X1492938Y-539223D01*
G37*
G36*
X1492937Y-584699D02*
X1492937Y-569499D01*
X1508137Y-569499D01*
X1508137Y-584699D01*
X1492937Y-584699D01*
G37*
X2097061Y-526490D02*
G54D34*
D03*
X2134660Y-566380D02*
G54D35*
D03*
X2172253Y-526490D02*
G54D34*
D03*
X2201439Y-526490D02*
G54D34*
D03*
X2276631Y-526490D02*
G54D34*
D03*
X2305816Y-526490D02*
G54D34*
D03*
X2381008Y-526490D02*
G54D34*
D03*
X2343414Y-566380D02*
G54D35*
D03*
X2239038Y-566380D02*
G54D35*
D03*
M02*
