%FSLAX34Y34*%
%MOMM*%
%LNCOPPER_INNER2*%
G71*
G01*
%ADD10C,1.620*%
%ADD11C,1.170*%
%ADD12C,1.619*%
%ADD13C,4.319*%
%ADD14C,1.621*%
%ADD15C,2.158*%
%ADD16C,2.160*%
%ADD17C,2.159*%
%ADD18C,1.167*%
%ADD19C,1.166*%
%ADD20C,2.698*%
%ADD21C,2.700*%
%ADD22C,1.943*%
%ADD23C,1.339*%
%ADD24C,4.319*%
%ADD25C,2.160*%
%ADD26C,2.159*%
%ADD27C,1.338*%
%ADD28C,1.340*%
%ADD29C,3.650*%
%ADD30C,2.160*%
%LPD*%
G36*
X3832182Y-466367D02*
X3851182Y-466367D01*
X3851182Y-485367D01*
X3832182Y-485367D01*
X3832182Y-466367D01*
G37*
X3892482Y-475867D02*
G54D10*
D03*
X3867078Y-475867D02*
G54D10*
D03*
X1818334Y-102638D02*
G54D11*
D03*
X1843736Y-102626D02*
G54D11*
D03*
X1869139Y-102626D02*
G54D11*
D03*
X1894523Y-102626D02*
G54D11*
D03*
X1919949Y-102638D02*
G54D11*
D03*
X1945351Y-102626D02*
G54D11*
D03*
X1970754Y-102626D02*
G54D11*
D03*
X1996138Y-102626D02*
G54D11*
D03*
X2021564Y-102638D02*
G54D11*
D03*
X2072348Y-102626D02*
G54D11*
D03*
X2097750Y-102614D02*
G54D11*
D03*
X2123162Y-102614D02*
G54D11*
D03*
X2148553Y-102614D02*
G54D11*
D03*
X2173988Y-102626D02*
G54D11*
D03*
X2199398Y-102614D02*
G54D11*
D03*
X2224808Y-102614D02*
G54D11*
D03*
X2250200Y-102614D02*
G54D11*
D03*
X2275634Y-102626D02*
G54D11*
D03*
X2046948Y-102626D02*
G54D11*
D03*
X2301036Y-102626D02*
G54D11*
D03*
G36*
X2319623Y-95788D02*
X2333323Y-95788D01*
X2333323Y-109488D01*
X2319623Y-109488D01*
X2319623Y-95788D01*
G37*
X1818334Y-255038D02*
G54D11*
D03*
X1843736Y-255026D02*
G54D11*
D03*
X1869139Y-255026D02*
G54D11*
D03*
X1894523Y-255026D02*
G54D11*
D03*
X1919949Y-255038D02*
G54D11*
D03*
X1945351Y-255026D02*
G54D11*
D03*
X1970754Y-255026D02*
G54D11*
D03*
X1996138Y-255026D02*
G54D11*
D03*
X2021564Y-255038D02*
G54D11*
D03*
X2072348Y-255026D02*
G54D11*
D03*
X2097750Y-255014D02*
G54D11*
D03*
X2123162Y-255014D02*
G54D11*
D03*
X2148553Y-255014D02*
G54D11*
D03*
X2173988Y-255026D02*
G54D11*
D03*
X2199398Y-255014D02*
G54D11*
D03*
X2224808Y-255014D02*
G54D11*
D03*
X2250200Y-255014D02*
G54D11*
D03*
X2275634Y-255026D02*
G54D11*
D03*
X2046948Y-255026D02*
G54D11*
D03*
X2301036Y-255026D02*
G54D11*
D03*
X2326473Y-255064D02*
G54D11*
D03*
X1818338Y-293485D02*
G54D11*
D03*
X1843741Y-293472D02*
G54D11*
D03*
X1869144Y-293473D02*
G54D11*
D03*
X1894527Y-293473D02*
G54D11*
D03*
X1919954Y-293485D02*
G54D11*
D03*
X1945356Y-293472D02*
G54D11*
D03*
X1970759Y-293473D02*
G54D11*
D03*
X1996142Y-293473D02*
G54D11*
D03*
X2021569Y-293485D02*
G54D11*
D03*
X2072353Y-293473D02*
G54D11*
D03*
X2097755Y-293460D02*
G54D11*
D03*
X2123166Y-293461D02*
G54D11*
D03*
X2148558Y-293461D02*
G54D11*
D03*
X2173992Y-293473D02*
G54D11*
D03*
X2199402Y-293460D02*
G54D11*
D03*
X2224813Y-293461D02*
G54D11*
D03*
X2250205Y-293461D02*
G54D11*
D03*
X2275640Y-293473D02*
G54D11*
D03*
X2046952Y-293472D02*
G54D11*
D03*
X2301041Y-293473D02*
G54D11*
D03*
G36*
X2319628Y-286635D02*
X2333328Y-286635D01*
X2333328Y-300335D01*
X2319628Y-300335D01*
X2319628Y-286635D01*
G37*
X1818338Y-445908D02*
G54D11*
D03*
X1843740Y-445895D02*
G54D11*
D03*
X1869144Y-445896D02*
G54D11*
D03*
X1894527Y-445896D02*
G54D11*
D03*
X1919954Y-445908D02*
G54D11*
D03*
X1945356Y-445895D02*
G54D11*
D03*
X1970758Y-445896D02*
G54D11*
D03*
X1996142Y-445896D02*
G54D11*
D03*
X2021568Y-445908D02*
G54D11*
D03*
X2072352Y-445896D02*
G54D11*
D03*
X2097755Y-445883D02*
G54D11*
D03*
X2123166Y-445884D02*
G54D11*
D03*
X2148558Y-445884D02*
G54D11*
D03*
X2173992Y-445896D02*
G54D11*
D03*
X2199402Y-445883D02*
G54D11*
D03*
X2224813Y-445884D02*
G54D11*
D03*
X2250204Y-445884D02*
G54D11*
D03*
X2275639Y-445896D02*
G54D11*
D03*
X2046952Y-445896D02*
G54D11*
D03*
X2301041Y-445896D02*
G54D11*
D03*
X2326478Y-445934D02*
G54D11*
D03*
X2512568Y-466727D02*
G54D12*
D03*
X2678959Y-451493D02*
G54D13*
D03*
X2540254Y-466727D02*
G54D12*
D03*
X2567689Y-466727D02*
G54D12*
D03*
X2595390Y-466727D02*
G54D12*
D03*
X2526287Y-438278D02*
G54D14*
D03*
X2428990Y-451493D02*
G54D13*
D03*
X2609354Y-438278D02*
G54D14*
D03*
X2581662Y-438278D02*
G54D14*
D03*
X2553975Y-438278D02*
G54D14*
D03*
G36*
X2489095Y-447778D02*
X2489095Y-428778D01*
X2508095Y-428778D01*
X2508095Y-447778D01*
X2489095Y-447778D01*
G37*
X3635760Y-365064D02*
G54D15*
D03*
X3635760Y-403168D02*
G54D15*
D03*
X3637034Y-530192D02*
G54D16*
D03*
X3587492Y-326960D02*
G54D17*
D03*
X3587492Y-365064D02*
G54D17*
D03*
X3587492Y-403168D02*
G54D17*
D03*
X3586226Y-530191D02*
G54D16*
D03*
X3635760Y-326960D02*
G54D15*
D03*
X3422056Y-483700D02*
G54D18*
D03*
X3422056Y-508595D02*
G54D19*
D03*
X3443142Y-508594D02*
G54D19*
D03*
X3469048Y-508594D02*
G54D19*
D03*
X3490132Y-508594D02*
G54D19*
D03*
X3523411Y-538828D02*
G54D20*
D03*
X3456094Y-546951D02*
G54D21*
D03*
X3388772Y-538828D02*
G54D20*
D03*
X3490132Y-483700D02*
G54D18*
D03*
X3173411Y-568543D02*
G54D22*
D03*
X3173246Y-443809D02*
G54D22*
D03*
X3198395Y-468711D02*
G54D22*
D03*
X3148352Y-568545D02*
G54D12*
D03*
X3148351Y-543649D02*
G54D12*
D03*
X3123450Y-543650D02*
G54D16*
D03*
X3073669Y-568543D02*
G54D22*
D03*
X3098561Y-568545D02*
G54D12*
D03*
X3098562Y-543649D02*
G54D12*
D03*
X3073669Y-443809D02*
G54D22*
D03*
X3048521Y-468712D02*
G54D22*
D03*
X3173500Y-468456D02*
G54D12*
D03*
X3148353Y-443556D02*
G54D12*
D03*
X3098561Y-443556D02*
G54D12*
D03*
X3073414Y-468456D02*
G54D12*
D03*
X3783878Y-215183D02*
G54D23*
D03*
X3885220Y-339130D02*
G54D24*
D03*
X3721898Y-459570D02*
G54D25*
D03*
X4012513Y-357953D02*
G54D26*
D03*
X3707664Y-357953D02*
G54D25*
D03*
X3891838Y-570833D02*
G54D26*
D03*
X3809282Y-215184D02*
G54D27*
D03*
X3834684Y-215184D02*
G54D28*
D03*
X3860089Y-215184D02*
G54D27*
D03*
X4007690Y-459569D02*
G54D26*
D03*
X2829625Y-466727D02*
G54D12*
D03*
X2996015Y-451493D02*
G54D13*
D03*
X2857311Y-466727D02*
G54D12*
D03*
X2884745Y-466727D02*
G54D12*
D03*
X2912447Y-466727D02*
G54D12*
D03*
X2843343Y-438278D02*
G54D14*
D03*
X2746046Y-451493D02*
G54D13*
D03*
X2926410Y-438278D02*
G54D14*
D03*
X2898718Y-438278D02*
G54D14*
D03*
X2871032Y-438278D02*
G54D14*
D03*
G36*
X2806151Y-447778D02*
X2806151Y-428778D01*
X2825151Y-428778D01*
X2825151Y-447778D01*
X2806151Y-447778D01*
G37*
X106759Y-274638D02*
G54D29*
D03*
X3363686Y-517051D02*
G54D30*
D03*
X3283408Y-546721D02*
G54D23*
D03*
X3262314Y-546721D02*
G54D27*
D03*
X3262314Y-572127D02*
G54D27*
D03*
X3296356Y-509054D02*
G54D30*
D03*
X3309316Y-546721D02*
G54D23*
D03*
X3330398Y-546721D02*
G54D23*
D03*
X3330398Y-572127D02*
G54D23*
D03*
X3229038Y-517051D02*
G54D30*
D03*
X3305248Y-572127D02*
G54D28*
D03*
X3287466Y-572127D02*
G54D27*
D03*
X1997728Y-531416D02*
G54D18*
D03*
X1897765Y-531416D02*
G54D18*
D03*
X1877776Y-531416D02*
G54D19*
D03*
X2017716Y-531416D02*
G54D19*
D03*
X2037713Y-531416D02*
G54D19*
D03*
X2057707Y-531416D02*
G54D19*
D03*
X1917753Y-531416D02*
G54D19*
D03*
X1937748Y-531416D02*
G54D19*
D03*
X1957743Y-531416D02*
G54D19*
D03*
X1977739Y-531416D02*
G54D19*
D03*
X1614854Y-551688D02*
G54D19*
D03*
X1818080Y-551688D02*
G54D19*
D03*
X1792681Y-551688D02*
G54D19*
D03*
X1767272Y-551688D02*
G54D19*
D03*
X1779976Y-531623D02*
G54D19*
D03*
X1805382Y-531623D02*
G54D19*
D03*
X1754574Y-577099D02*
G54D19*
D03*
X1754574Y-531622D02*
G54D19*
D03*
X1538642Y-551688D02*
G54D19*
D03*
X1513242Y-551688D02*
G54D19*
D03*
X1525936Y-577099D02*
G54D19*
D03*
X1779976Y-577099D02*
G54D19*
D03*
X1805381Y-577099D02*
G54D19*
D03*
X1627552Y-531623D02*
G54D19*
D03*
X1652964Y-531623D02*
G54D19*
D03*
X1678360Y-531623D02*
G54D19*
D03*
X1703771Y-531623D02*
G54D19*
D03*
X1729168Y-531623D02*
G54D19*
D03*
X1551347Y-531623D02*
G54D19*
D03*
X1576742Y-531623D02*
G54D19*
D03*
X1602156Y-531623D02*
G54D19*
D03*
X1525936Y-531623D02*
G54D19*
D03*
X1703772Y-577099D02*
G54D19*
D03*
X1729168Y-577099D02*
G54D19*
D03*
X1741875Y-551688D02*
G54D19*
D03*
X1691066Y-551688D02*
G54D19*
D03*
X1716464Y-551688D02*
G54D19*
D03*
X1678360Y-577099D02*
G54D19*
D03*
X1627551Y-577099D02*
G54D19*
D03*
X1652964Y-577099D02*
G54D19*
D03*
X1640258Y-551688D02*
G54D19*
D03*
X1665662Y-551688D02*
G54D19*
D03*
X1602156Y-577099D02*
G54D19*
D03*
X1576742Y-577099D02*
G54D19*
D03*
X1551348Y-577099D02*
G54D19*
D03*
X1564052Y-551688D02*
G54D19*
D03*
X1589450Y-551688D02*
G54D19*
D03*
G36*
X1492938Y-539223D02*
X1492938Y-524023D01*
X1508138Y-524023D01*
X1508138Y-539223D01*
X1492938Y-539223D01*
G37*
G36*
X1492937Y-584699D02*
X1492937Y-569499D01*
X1508137Y-569499D01*
X1508137Y-584699D01*
X1492937Y-584699D01*
G37*
M02*
