%FSLAX34Y34*%
%MOMM*%
%LNSOLDERMASK_TOP*%
G71*
G01*
%ADD10C,0.889*%
%ADD11R,0.350X2.540*%
%ADD12R,2.540X0.350*%
%ADD13R,0.635X2.033*%
%ADD14R,0.636X2.033*%
%ADD15R,0.634X2.033*%
%ADD16R,2.033X0.635*%
%ADD17R,2.033X0.636*%
%ADD18C,1.036*%
%ADD19R,2.032X0.635*%
%ADD20R,2.032X0.636*%
%ADD21R,2.032X0.634*%
%ADD22R,2.033X0.634*%
%ADD23R,0.635X2.031*%
%ADD24R,0.634X2.031*%
%ADD25R,0.636X2.031*%
%ADD26C,1.038*%
%ADD27R,2.031X0.635*%
%ADD28R,2.031X0.634*%
%ADD29R,2.031X0.636*%
%ADD30C,1.037*%
%ADD31R,0.350X2.550*%
%ADD32R,2.550X0.350*%
%ADD33R,0.635X2.032*%
%ADD34R,0.636X2.032*%
%ADD35R,0.634X2.032*%
%ADD36R,0.636X2.666*%
%ADD37R,0.634X2.666*%
%ADD38R,0.635X2.666*%
%ADD39R,0.634X2.668*%
%ADD40R,0.635X2.668*%
%ADD41R,0.636X2.668*%
%ADD42R,0.635X2.667*%
%ADD43R,0.634X2.667*%
%ADD44R,0.636X2.667*%
%ADD45R,0.636X2.286*%
%ADD46R,0.635X2.286*%
%ADD47R,0.634X2.286*%
%ADD48R,0.638X2.666*%
%ADD49R,0.638X2.668*%
%ADD50R,0.636X2.288*%
%ADD51R,0.635X2.288*%
%ADD52R,0.634X2.288*%
%ADD53R,0.635X2.287*%
%ADD54R,0.634X2.287*%
%ADD55R,0.636X2.287*%
%ADD56C,1.620*%
%ADD57C,1.170*%
%ADD58C,1.619*%
%ADD59C,4.319*%
%ADD60C,1.621*%
%ADD61C,2.158*%
%ADD62C,2.160*%
%ADD63C,2.159*%
%ADD64C,1.167*%
%ADD65C,1.166*%
%ADD66C,2.698*%
%ADD67C,2.700*%
%ADD68C,1.943*%
%ADD69C,1.339*%
%ADD70C,4.319*%
%ADD71C,2.160*%
%ADD72C,2.159*%
%ADD73C,1.338*%
%ADD74C,1.340*%
%ADD75C,3.650*%
%ADD76C,2.160*%
%ADD77R,1.271X1.524*%
%ADD78R,1.270X1.524*%
%ADD79R,1.269X1.524*%
%ADD80R,2.540X3.812*%
%ADD81R,3.812X2.540*%
%ADD82R,1.269X1.526*%
%ADD83R,1.271X1.525*%
%ADD84R,1.269X1.525*%
%ADD85R,1.271X1.526*%
%LPD*%
G54D10*
X1189494Y-524547D02*
X1189494Y-581707D01*
G36*
X1193940Y-524547D02*
X1185048Y-524547D01*
X1185048Y-520102D01*
X1193940Y-520102D01*
X1193940Y-524547D01*
G37*
G36*
X1185048Y-581707D02*
X1193940Y-581707D01*
X1193940Y-586152D01*
X1185048Y-586152D01*
X1185048Y-581707D01*
G37*
G54D10*
X1176794Y-524547D02*
X1176794Y-581707D01*
G36*
X1181240Y-524547D02*
X1172348Y-524547D01*
X1172348Y-520102D01*
X1181240Y-520102D01*
X1181240Y-524547D01*
G37*
G36*
X1172348Y-581707D02*
X1181240Y-581707D01*
X1181240Y-586152D01*
X1172348Y-586152D01*
X1172348Y-581707D01*
G37*
G54D10*
X1164094Y-524547D02*
X1164094Y-581707D01*
G36*
X1168540Y-524547D02*
X1159648Y-524547D01*
X1159648Y-520102D01*
X1168540Y-520102D01*
X1168540Y-524547D01*
G37*
G36*
X1159648Y-581707D02*
X1168540Y-581707D01*
X1168540Y-586152D01*
X1159648Y-586152D01*
X1159648Y-581707D01*
G37*
G54D10*
X1151394Y-524547D02*
X1151394Y-581707D01*
G36*
X1155840Y-524547D02*
X1146948Y-524547D01*
X1146948Y-520102D01*
X1155840Y-520102D01*
X1155840Y-524547D01*
G37*
G36*
X1146948Y-581707D02*
X1155840Y-581707D01*
X1155840Y-586152D01*
X1146948Y-586152D01*
X1146948Y-581707D01*
G37*
G54D10*
X1138694Y-524547D02*
X1138694Y-581707D01*
G36*
X1143140Y-524547D02*
X1134248Y-524547D01*
X1134248Y-520101D01*
X1143140Y-520101D01*
X1143140Y-524547D01*
G37*
G36*
X1134248Y-581707D02*
X1143140Y-581707D01*
X1143140Y-586152D01*
X1134248Y-586152D01*
X1134248Y-581707D01*
G37*
G54D10*
X1125994Y-524547D02*
X1125994Y-581707D01*
G36*
X1130440Y-524547D02*
X1121548Y-524547D01*
X1121548Y-520101D01*
X1130440Y-520101D01*
X1130440Y-524547D01*
G37*
G36*
X1121548Y-581707D02*
X1130440Y-581707D01*
X1130440Y-586152D01*
X1121548Y-586152D01*
X1121548Y-581707D01*
G37*
G54D10*
X1113294Y-524547D02*
X1113294Y-581707D01*
G36*
X1117740Y-524547D02*
X1108848Y-524547D01*
X1108848Y-520101D01*
X1117740Y-520101D01*
X1117740Y-524547D01*
G37*
G36*
X1108848Y-581707D02*
X1117740Y-581707D01*
X1117740Y-586152D01*
X1108848Y-586152D01*
X1108848Y-581707D01*
G37*
G54D10*
X1100594Y-524547D02*
X1100594Y-581707D01*
G36*
X1105040Y-524547D02*
X1096148Y-524547D01*
X1096148Y-520101D01*
X1105040Y-520101D01*
X1105040Y-524547D01*
G37*
G36*
X1096148Y-581707D02*
X1105040Y-581707D01*
X1105040Y-586152D01*
X1096148Y-586152D01*
X1096148Y-581707D01*
G37*
G54D10*
X1087894Y-524547D02*
X1087894Y-581707D01*
G36*
X1092340Y-524547D02*
X1083448Y-524547D01*
X1083448Y-520101D01*
X1092340Y-520101D01*
X1092340Y-524547D01*
G37*
G36*
X1083448Y-581707D02*
X1092340Y-581707D01*
X1092340Y-586152D01*
X1083448Y-586152D01*
X1083448Y-581707D01*
G37*
G54D10*
X1075194Y-524547D02*
X1075194Y-581707D01*
G36*
X1079640Y-524547D02*
X1070748Y-524547D01*
X1070748Y-520101D01*
X1079640Y-520101D01*
X1079640Y-524547D01*
G37*
G36*
X1070748Y-581707D02*
X1079640Y-581707D01*
X1079640Y-586152D01*
X1070748Y-586152D01*
X1070748Y-581707D01*
G37*
G54D10*
X1062494Y-524547D02*
X1062494Y-581707D01*
G36*
X1066940Y-524547D02*
X1058048Y-524547D01*
X1058048Y-520101D01*
X1066940Y-520101D01*
X1066940Y-524547D01*
G37*
G36*
X1058048Y-581707D02*
X1066940Y-581707D01*
X1066940Y-586152D01*
X1058048Y-586152D01*
X1058048Y-581707D01*
G37*
G54D10*
X1049794Y-524547D02*
X1049794Y-581707D01*
G36*
X1054240Y-524547D02*
X1045348Y-524547D01*
X1045348Y-520101D01*
X1054240Y-520101D01*
X1054240Y-524547D01*
G37*
G36*
X1045348Y-581707D02*
X1054240Y-581707D01*
X1054240Y-586152D01*
X1045348Y-586152D01*
X1045348Y-581707D01*
G37*
G54D10*
X1037094Y-524547D02*
X1037094Y-581707D01*
G36*
X1041540Y-524547D02*
X1032648Y-524547D01*
X1032648Y-520101D01*
X1041540Y-520101D01*
X1041540Y-524547D01*
G37*
G36*
X1032648Y-581707D02*
X1041540Y-581707D01*
X1041540Y-586152D01*
X1032648Y-586152D01*
X1032648Y-581707D01*
G37*
G54D10*
X1024394Y-524547D02*
X1024394Y-581707D01*
G36*
X1028840Y-524547D02*
X1019948Y-524547D01*
X1019948Y-520101D01*
X1028840Y-520101D01*
X1028840Y-524547D01*
G37*
G36*
X1019948Y-581707D02*
X1028840Y-581707D01*
X1028840Y-586152D01*
X1019948Y-586152D01*
X1019948Y-581707D01*
G37*
G54D10*
X1011694Y-524547D02*
X1011694Y-581707D01*
G36*
X1016140Y-524547D02*
X1007248Y-524547D01*
X1007248Y-520101D01*
X1016140Y-520101D01*
X1016140Y-524547D01*
G37*
G36*
X1007248Y-581707D02*
X1016140Y-581707D01*
X1016140Y-586152D01*
X1007248Y-586152D01*
X1007248Y-581707D01*
G37*
G54D10*
X998994Y-524547D02*
X998994Y-581707D01*
G36*
X1003440Y-524547D02*
X994548Y-524547D01*
X994548Y-520101D01*
X1003440Y-520101D01*
X1003440Y-524547D01*
G37*
G36*
X994548Y-581707D02*
X1003440Y-581707D01*
X1003440Y-586152D01*
X994548Y-586152D01*
X994548Y-581707D01*
G37*
G54D10*
X986294Y-524547D02*
X986294Y-581707D01*
G36*
X990740Y-524547D02*
X981848Y-524547D01*
X981848Y-520101D01*
X990740Y-520101D01*
X990740Y-524547D01*
G37*
G36*
X981848Y-581707D02*
X990740Y-581707D01*
X990740Y-586152D01*
X981848Y-586152D01*
X981848Y-581707D01*
G37*
G54D10*
X973594Y-524547D02*
X973594Y-581707D01*
G36*
X978040Y-524547D02*
X969148Y-524547D01*
X969148Y-520102D01*
X978040Y-520102D01*
X978040Y-524547D01*
G37*
G36*
X969148Y-581707D02*
X978040Y-581707D01*
X978040Y-586152D01*
X969148Y-586152D01*
X969148Y-581707D01*
G37*
G54D10*
X960894Y-524547D02*
X960894Y-581707D01*
G36*
X965340Y-524547D02*
X956448Y-524547D01*
X956448Y-520102D01*
X965340Y-520102D01*
X965340Y-524547D01*
G37*
G36*
X956448Y-581707D02*
X965340Y-581707D01*
X965340Y-586152D01*
X956448Y-586152D01*
X956448Y-581707D01*
G37*
G54D10*
X948194Y-524547D02*
X948194Y-581707D01*
G36*
X952640Y-524547D02*
X943748Y-524547D01*
X943748Y-520102D01*
X952640Y-520102D01*
X952640Y-524547D01*
G37*
G36*
X943748Y-581707D02*
X952640Y-581707D01*
X952640Y-586152D01*
X943748Y-586152D01*
X943748Y-581707D01*
G37*
G54D10*
X935494Y-524547D02*
X935494Y-581707D01*
G36*
X939940Y-524547D02*
X931048Y-524547D01*
X931048Y-520102D01*
X939940Y-520102D01*
X939940Y-524547D01*
G37*
G36*
X931048Y-581707D02*
X939940Y-581707D01*
X939940Y-586152D01*
X931048Y-586152D01*
X931048Y-581707D01*
G37*
G54D10*
X922794Y-524547D02*
X922794Y-581707D01*
G36*
X927240Y-524547D02*
X918348Y-524547D01*
X918348Y-520102D01*
X927240Y-520102D01*
X927240Y-524547D01*
G37*
G36*
X918348Y-581707D02*
X927240Y-581707D01*
X927240Y-586152D01*
X918348Y-586152D01*
X918348Y-581707D01*
G37*
G54D10*
X910094Y-524547D02*
X910094Y-581707D01*
G36*
X914540Y-524547D02*
X905648Y-524547D01*
X905648Y-520102D01*
X914540Y-520102D01*
X914540Y-524547D01*
G37*
G36*
X905648Y-581707D02*
X914540Y-581707D01*
X914540Y-586152D01*
X905648Y-586152D01*
X905648Y-581707D01*
G37*
G54D10*
X897394Y-524547D02*
X897394Y-581707D01*
G36*
X901840Y-524547D02*
X892948Y-524547D01*
X892948Y-520102D01*
X901840Y-520102D01*
X901840Y-524547D01*
G37*
G36*
X892948Y-581707D02*
X901840Y-581707D01*
X901840Y-586152D01*
X892948Y-586152D01*
X892948Y-581707D01*
G37*
G54D10*
X884694Y-524547D02*
X884694Y-581707D01*
G36*
X889140Y-524547D02*
X880248Y-524547D01*
X880248Y-520102D01*
X889140Y-520102D01*
X889140Y-524547D01*
G37*
G36*
X880248Y-581707D02*
X889140Y-581707D01*
X889140Y-586152D01*
X880248Y-586152D01*
X880248Y-581707D01*
G37*
G54D10*
X871994Y-524547D02*
X871994Y-581707D01*
G36*
X876440Y-524547D02*
X867548Y-524547D01*
X867548Y-520101D01*
X876440Y-520101D01*
X876440Y-524547D01*
G37*
G36*
X867548Y-581707D02*
X876440Y-581707D01*
X876440Y-586152D01*
X867548Y-586152D01*
X867548Y-581707D01*
G37*
G54D10*
X859294Y-524547D02*
X859294Y-581707D01*
G36*
X863740Y-524547D02*
X854848Y-524547D01*
X854848Y-520101D01*
X863740Y-520101D01*
X863740Y-524547D01*
G37*
G36*
X854848Y-581707D02*
X863740Y-581707D01*
X863740Y-586152D01*
X854848Y-586152D01*
X854848Y-581707D01*
G37*
G54D10*
X846594Y-524547D02*
X846594Y-581707D01*
G36*
X851040Y-524547D02*
X842148Y-524547D01*
X842148Y-520101D01*
X851040Y-520101D01*
X851040Y-524547D01*
G37*
G36*
X842148Y-581707D02*
X851040Y-581707D01*
X851040Y-586152D01*
X842148Y-586152D01*
X842148Y-581707D01*
G37*
G54D10*
X833894Y-524547D02*
X833894Y-581707D01*
G36*
X838340Y-524547D02*
X829448Y-524547D01*
X829448Y-520101D01*
X838340Y-520101D01*
X838340Y-524547D01*
G37*
G36*
X829448Y-581707D02*
X838340Y-581707D01*
X838340Y-586152D01*
X829448Y-586152D01*
X829448Y-581707D01*
G37*
G54D10*
X821194Y-524547D02*
X821194Y-581707D01*
G36*
X825640Y-524547D02*
X816748Y-524547D01*
X816748Y-520101D01*
X825640Y-520101D01*
X825640Y-524547D01*
G37*
G36*
X816748Y-581707D02*
X825640Y-581707D01*
X825640Y-586152D01*
X816748Y-586152D01*
X816748Y-581707D01*
G37*
G54D10*
X808494Y-524547D02*
X808494Y-581707D01*
G36*
X812940Y-524547D02*
X804048Y-524547D01*
X804048Y-520101D01*
X812940Y-520101D01*
X812940Y-524547D01*
G37*
G36*
X804048Y-581707D02*
X812940Y-581707D01*
X812940Y-586152D01*
X804048Y-586152D01*
X804048Y-581707D01*
G37*
G54D10*
X795794Y-524547D02*
X795794Y-581707D01*
G36*
X800240Y-524547D02*
X791348Y-524547D01*
X791348Y-520101D01*
X800240Y-520101D01*
X800240Y-524547D01*
G37*
G36*
X791348Y-581707D02*
X800240Y-581707D01*
X800240Y-586152D01*
X791348Y-586152D01*
X791348Y-581707D01*
G37*
G54D10*
X783094Y-524547D02*
X783094Y-581707D01*
G36*
X787540Y-524547D02*
X778648Y-524547D01*
X778648Y-520101D01*
X787540Y-520101D01*
X787540Y-524547D01*
G37*
G36*
X778648Y-581707D02*
X787540Y-581707D01*
X787540Y-586152D01*
X778648Y-586152D01*
X778648Y-581707D01*
G37*
G54D10*
X770394Y-524547D02*
X770394Y-581707D01*
G36*
X774840Y-524547D02*
X765948Y-524547D01*
X765948Y-520101D01*
X774840Y-520101D01*
X774840Y-524547D01*
G37*
G36*
X765948Y-581707D02*
X774840Y-581707D01*
X774840Y-586152D01*
X765948Y-586152D01*
X765948Y-581707D01*
G37*
G54D10*
X757694Y-524547D02*
X757694Y-581707D01*
G36*
X762140Y-524547D02*
X753248Y-524547D01*
X753248Y-520101D01*
X762140Y-520101D01*
X762140Y-524547D01*
G37*
G36*
X753248Y-581707D02*
X762140Y-581707D01*
X762140Y-586152D01*
X753248Y-586152D01*
X753248Y-581707D01*
G37*
G54D10*
X744994Y-524547D02*
X744994Y-581707D01*
G36*
X749440Y-524547D02*
X740548Y-524547D01*
X740548Y-520101D01*
X749440Y-520101D01*
X749440Y-524547D01*
G37*
G36*
X740548Y-581707D02*
X749440Y-581707D01*
X749440Y-586152D01*
X740548Y-586152D01*
X740548Y-581707D01*
G37*
G54D10*
X732294Y-524547D02*
X732294Y-581707D01*
G36*
X736740Y-524547D02*
X727848Y-524547D01*
X727848Y-520101D01*
X736740Y-520101D01*
X736740Y-524547D01*
G37*
G36*
X727848Y-581707D02*
X736740Y-581707D01*
X736740Y-586152D01*
X727848Y-586152D01*
X727848Y-581707D01*
G37*
G54D10*
X719594Y-524547D02*
X719594Y-581707D01*
G36*
X724040Y-524547D02*
X715148Y-524547D01*
X715148Y-520102D01*
X724040Y-520102D01*
X724040Y-524547D01*
G37*
G36*
X715148Y-581707D02*
X724040Y-581707D01*
X724040Y-586152D01*
X715148Y-586152D01*
X715148Y-581707D01*
G37*
G54D10*
X706894Y-524547D02*
X706894Y-581707D01*
G36*
X711340Y-524547D02*
X702448Y-524547D01*
X702448Y-520102D01*
X711340Y-520102D01*
X711340Y-524547D01*
G37*
G36*
X702448Y-581707D02*
X711340Y-581707D01*
X711340Y-586152D01*
X702448Y-586152D01*
X702448Y-581707D01*
G37*
G54D10*
X694194Y-524547D02*
X694194Y-581707D01*
G36*
X698640Y-524547D02*
X689748Y-524547D01*
X689748Y-520102D01*
X698640Y-520102D01*
X698640Y-524547D01*
G37*
G36*
X689748Y-581707D02*
X698640Y-581707D01*
X698640Y-586152D01*
X689748Y-586152D01*
X689748Y-581707D01*
G37*
G54D10*
X681494Y-524547D02*
X681494Y-581707D01*
G36*
X685940Y-524547D02*
X677048Y-524547D01*
X677048Y-520102D01*
X685940Y-520102D01*
X685940Y-524547D01*
G37*
G36*
X677048Y-581707D02*
X685940Y-581707D01*
X685940Y-586152D01*
X677048Y-586152D01*
X677048Y-581707D01*
G37*
G54D10*
X668794Y-524547D02*
X668794Y-581707D01*
G36*
X673240Y-524547D02*
X664348Y-524547D01*
X664348Y-520102D01*
X673240Y-520102D01*
X673240Y-524547D01*
G37*
G36*
X664348Y-581707D02*
X673240Y-581707D01*
X673240Y-586152D01*
X664348Y-586152D01*
X664348Y-581707D01*
G37*
G54D10*
X656094Y-524547D02*
X656094Y-581707D01*
G36*
X660540Y-524547D02*
X651648Y-524547D01*
X651648Y-520102D01*
X660540Y-520102D01*
X660540Y-524547D01*
G37*
G36*
X651648Y-581707D02*
X660540Y-581707D01*
X660540Y-586152D01*
X651648Y-586152D01*
X651648Y-581707D01*
G37*
G54D10*
X643394Y-524547D02*
X643394Y-581707D01*
G36*
X647840Y-524547D02*
X638948Y-524547D01*
X638948Y-520102D01*
X647840Y-520102D01*
X647840Y-524547D01*
G37*
G36*
X638948Y-581707D02*
X647840Y-581707D01*
X647840Y-586152D01*
X638948Y-586152D01*
X638948Y-581707D01*
G37*
G54D10*
X630694Y-524547D02*
X630694Y-581707D01*
G36*
X635140Y-524547D02*
X626248Y-524547D01*
X626248Y-520102D01*
X635140Y-520102D01*
X635140Y-524547D01*
G37*
G36*
X626248Y-581707D02*
X635140Y-581707D01*
X635140Y-586152D01*
X626248Y-586152D01*
X626248Y-581707D01*
G37*
G54D10*
X617994Y-524547D02*
X617994Y-581707D01*
G36*
X622440Y-524547D02*
X613548Y-524547D01*
X613548Y-520102D01*
X622440Y-520102D01*
X622440Y-524547D01*
G37*
G36*
X613548Y-581707D02*
X622440Y-581707D01*
X622440Y-586152D01*
X613548Y-586152D01*
X613548Y-581707D01*
G37*
G54D10*
X605294Y-524547D02*
X605294Y-581707D01*
G36*
X609740Y-524547D02*
X600848Y-524547D01*
X600848Y-520102D01*
X609740Y-520102D01*
X609740Y-524547D01*
G37*
G36*
X600848Y-581707D02*
X609740Y-581707D01*
X609740Y-586152D01*
X600848Y-586152D01*
X600848Y-581707D01*
G37*
G54D10*
X592594Y-524547D02*
X592594Y-581707D01*
G36*
X597040Y-524547D02*
X588148Y-524547D01*
X588148Y-520102D01*
X597040Y-520102D01*
X597040Y-524547D01*
G37*
G36*
X588148Y-581707D02*
X597040Y-581707D01*
X597040Y-586152D01*
X588148Y-586152D01*
X588148Y-581707D01*
G37*
G54D10*
X579894Y-524547D02*
X579894Y-581707D01*
G36*
X584340Y-524547D02*
X575448Y-524547D01*
X575448Y-520101D01*
X584340Y-520101D01*
X584340Y-524547D01*
G37*
G36*
X575448Y-581707D02*
X584340Y-581707D01*
X584340Y-586152D01*
X575448Y-586152D01*
X575448Y-581707D01*
G37*
G54D10*
X541794Y-524547D02*
X541794Y-581707D01*
G36*
X546240Y-524547D02*
X537348Y-524547D01*
X537348Y-520101D01*
X546240Y-520101D01*
X546240Y-524547D01*
G37*
G36*
X537348Y-581707D02*
X546240Y-581707D01*
X546240Y-586152D01*
X537348Y-586152D01*
X537348Y-581707D01*
G37*
G54D10*
X529094Y-524547D02*
X529094Y-581707D01*
G36*
X533540Y-524547D02*
X524648Y-524547D01*
X524648Y-520101D01*
X533540Y-520101D01*
X533540Y-524547D01*
G37*
G36*
X524648Y-581707D02*
X533540Y-581707D01*
X533540Y-586152D01*
X524648Y-586152D01*
X524648Y-581707D01*
G37*
G54D10*
X516394Y-524547D02*
X516394Y-581707D01*
G36*
X520840Y-524547D02*
X511948Y-524547D01*
X511948Y-520101D01*
X520840Y-520101D01*
X520840Y-524547D01*
G37*
G36*
X511948Y-581707D02*
X520840Y-581707D01*
X520840Y-586152D01*
X511948Y-586152D01*
X511948Y-581707D01*
G37*
G54D10*
X503694Y-524547D02*
X503694Y-581707D01*
G36*
X508140Y-524547D02*
X499248Y-524547D01*
X499248Y-520101D01*
X508140Y-520101D01*
X508140Y-524547D01*
G37*
G36*
X499248Y-581707D02*
X508140Y-581707D01*
X508140Y-586152D01*
X499248Y-586152D01*
X499248Y-581707D01*
G37*
G54D10*
X490994Y-524547D02*
X490994Y-581707D01*
G36*
X495440Y-524547D02*
X486549Y-524547D01*
X486549Y-520101D01*
X495440Y-520101D01*
X495440Y-524547D01*
G37*
G36*
X486548Y-581707D02*
X495440Y-581707D01*
X495439Y-586152D01*
X486548Y-586152D01*
X486548Y-581707D01*
G37*
G54D10*
X478294Y-524547D02*
X478294Y-581707D01*
G36*
X482740Y-524547D02*
X473849Y-524547D01*
X473849Y-520101D01*
X482740Y-520101D01*
X482740Y-524547D01*
G37*
G36*
X473848Y-581707D02*
X482740Y-581707D01*
X482739Y-586152D01*
X473848Y-586152D01*
X473848Y-581707D01*
G37*
G54D10*
X465594Y-524547D02*
X465594Y-581707D01*
G36*
X470040Y-524547D02*
X461148Y-524547D01*
X461148Y-520102D01*
X470040Y-520102D01*
X470040Y-524547D01*
G37*
G36*
X461148Y-581707D02*
X470040Y-581707D01*
X470040Y-586152D01*
X461148Y-586152D01*
X461148Y-581707D01*
G37*
G54D10*
X452894Y-524547D02*
X452894Y-581707D01*
G36*
X457340Y-524547D02*
X448448Y-524547D01*
X448448Y-520101D01*
X457340Y-520101D01*
X457340Y-524547D01*
G37*
G36*
X448448Y-581707D02*
X457340Y-581707D01*
X457340Y-586152D01*
X448448Y-586152D01*
X448448Y-581707D01*
G37*
G54D10*
X440194Y-524547D02*
X440194Y-581707D01*
G36*
X444640Y-524547D02*
X435748Y-524547D01*
X435748Y-520101D01*
X444640Y-520101D01*
X444640Y-524547D01*
G37*
G36*
X435748Y-581707D02*
X444640Y-581707D01*
X444640Y-586152D01*
X435748Y-586152D01*
X435748Y-581707D01*
G37*
G54D10*
X427494Y-524547D02*
X427494Y-581707D01*
G36*
X431940Y-524547D02*
X423048Y-524547D01*
X423048Y-520101D01*
X431939Y-520101D01*
X431940Y-524547D01*
G37*
G36*
X423049Y-581707D02*
X431940Y-581707D01*
X431940Y-586152D01*
X423049Y-586152D01*
X423049Y-581707D01*
G37*
G54D10*
X414794Y-524547D02*
X414794Y-581707D01*
G36*
X419240Y-524547D02*
X410348Y-524547D01*
X410348Y-520101D01*
X419239Y-520101D01*
X419240Y-524547D01*
G37*
G36*
X410349Y-581707D02*
X419240Y-581707D01*
X419240Y-586152D01*
X410349Y-586152D01*
X410349Y-581707D01*
G37*
G54D10*
X402094Y-524547D02*
X402094Y-581707D01*
G36*
X406540Y-524547D02*
X397648Y-524547D01*
X397648Y-520101D01*
X406540Y-520101D01*
X406540Y-524547D01*
G37*
G36*
X397648Y-581707D02*
X406540Y-581707D01*
X406540Y-586152D01*
X397648Y-586152D01*
X397648Y-581707D01*
G37*
G54D10*
X389394Y-524547D02*
X389394Y-581707D01*
G36*
X393840Y-524547D02*
X384948Y-524547D01*
X384948Y-520101D01*
X393840Y-520101D01*
X393840Y-524547D01*
G37*
G36*
X384948Y-581707D02*
X393840Y-581707D01*
X393840Y-586152D01*
X384948Y-586152D01*
X384948Y-581707D01*
G37*
G54D10*
X376694Y-524547D02*
X376694Y-581707D01*
G36*
X381140Y-524547D02*
X372248Y-524547D01*
X372248Y-520101D01*
X381140Y-520101D01*
X381140Y-524547D01*
G37*
G36*
X372248Y-581707D02*
X381140Y-581707D01*
X381140Y-586152D01*
X372248Y-586152D01*
X372248Y-581707D01*
G37*
G54D10*
X363994Y-524547D02*
X363994Y-581707D01*
G36*
X368440Y-524547D02*
X359549Y-524547D01*
X359549Y-520101D01*
X368440Y-520101D01*
X368440Y-524547D01*
G37*
G36*
X359549Y-581707D02*
X368440Y-581707D01*
X368440Y-586152D01*
X359549Y-586152D01*
X359549Y-581707D01*
G37*
G54D10*
X351294Y-524547D02*
X351294Y-581707D01*
G36*
X355740Y-524547D02*
X346849Y-524547D01*
X346849Y-520101D01*
X355740Y-520101D01*
X355740Y-524547D01*
G37*
G36*
X346848Y-581707D02*
X355740Y-581707D01*
X355739Y-586152D01*
X346848Y-586152D01*
X346848Y-581707D01*
G37*
G54D10*
X338594Y-524547D02*
X338594Y-581707D01*
G36*
X343040Y-524547D02*
X334149Y-524547D01*
X334149Y-520101D01*
X343040Y-520101D01*
X343040Y-524547D01*
G37*
G36*
X334148Y-581707D02*
X343040Y-581707D01*
X343039Y-586152D01*
X334148Y-586152D01*
X334148Y-581707D01*
G37*
G54D10*
X325894Y-524547D02*
X325894Y-581707D01*
G36*
X330340Y-524547D02*
X321448Y-524547D01*
X321448Y-520102D01*
X330340Y-520102D01*
X330340Y-524547D01*
G37*
G36*
X321448Y-581707D02*
X330340Y-581707D01*
X330340Y-586152D01*
X321448Y-586152D01*
X321448Y-581707D01*
G37*
G54D10*
X313194Y-524547D02*
X313194Y-581707D01*
G36*
X317640Y-524547D02*
X308748Y-524547D01*
X308748Y-520102D01*
X317640Y-520102D01*
X317640Y-524547D01*
G37*
G36*
X308748Y-581707D02*
X317640Y-581707D01*
X317640Y-586152D01*
X308748Y-586152D01*
X308748Y-581707D01*
G37*
G54D10*
X300494Y-524547D02*
X300494Y-581707D01*
G36*
X304940Y-524547D02*
X296048Y-524547D01*
X296048Y-520102D01*
X304940Y-520102D01*
X304940Y-524547D01*
G37*
G36*
X296048Y-581707D02*
X304940Y-581707D01*
X304940Y-586152D01*
X296048Y-586152D01*
X296048Y-581707D01*
G37*
G54D10*
X287794Y-524547D02*
X287794Y-581707D01*
G36*
X292240Y-524547D02*
X283348Y-524547D01*
X283348Y-520102D01*
X292240Y-520102D01*
X292240Y-524547D01*
G37*
G36*
X283348Y-581707D02*
X292240Y-581707D01*
X292240Y-586152D01*
X283348Y-586152D01*
X283348Y-581707D01*
G37*
G54D10*
X275094Y-524547D02*
X275094Y-581707D01*
G36*
X279540Y-524547D02*
X270648Y-524547D01*
X270648Y-520102D01*
X279540Y-520102D01*
X279540Y-524547D01*
G37*
G36*
X270648Y-581707D02*
X279540Y-581707D01*
X279540Y-586152D01*
X270648Y-586152D01*
X270648Y-581707D01*
G37*
G54D10*
X262394Y-524547D02*
X262394Y-581707D01*
G36*
X266840Y-524547D02*
X257948Y-524547D01*
X257948Y-520102D01*
X266840Y-520102D01*
X266840Y-524547D01*
G37*
G36*
X257948Y-581707D02*
X266840Y-581707D01*
X266840Y-586152D01*
X257948Y-586152D01*
X257948Y-581707D01*
G37*
G54D10*
X249694Y-524547D02*
X249694Y-581707D01*
G36*
X254140Y-524547D02*
X245248Y-524547D01*
X245248Y-520102D01*
X254140Y-520102D01*
X254140Y-524547D01*
G37*
G36*
X245248Y-581707D02*
X254140Y-581707D01*
X254140Y-586152D01*
X245248Y-586152D01*
X245248Y-581707D01*
G37*
G54D10*
X236994Y-524547D02*
X236994Y-581707D01*
G36*
X241440Y-524547D02*
X232548Y-524547D01*
X232548Y-520102D01*
X241440Y-520102D01*
X241440Y-524547D01*
G37*
G36*
X232548Y-581707D02*
X241440Y-581707D01*
X241440Y-586152D01*
X232548Y-586152D01*
X232548Y-581707D01*
G37*
G54D10*
X224294Y-524547D02*
X224294Y-581707D01*
G36*
X228740Y-524547D02*
X219848Y-524547D01*
X219848Y-520102D01*
X228740Y-520102D01*
X228740Y-524547D01*
G37*
G36*
X219848Y-581707D02*
X228740Y-581707D01*
X228740Y-586152D01*
X219848Y-586152D01*
X219848Y-581707D01*
G37*
G54D10*
X211594Y-524547D02*
X211594Y-581707D01*
G36*
X216040Y-524547D02*
X207148Y-524547D01*
X207148Y-520102D01*
X216040Y-520102D01*
X216040Y-524547D01*
G37*
G36*
X207148Y-581707D02*
X216040Y-581707D01*
X216040Y-586152D01*
X207148Y-586152D01*
X207148Y-581707D01*
G37*
G54D10*
X198894Y-524547D02*
X198894Y-581707D01*
G36*
X203340Y-524547D02*
X194448Y-524547D01*
X194448Y-520102D01*
X203340Y-520102D01*
X203340Y-524547D01*
G37*
G36*
X194448Y-581707D02*
X203340Y-581707D01*
X203340Y-586152D01*
X194448Y-586152D01*
X194448Y-581707D01*
G37*
G54D10*
X186194Y-524547D02*
X186194Y-581707D01*
G36*
X190640Y-524547D02*
X181748Y-524547D01*
X181748Y-520102D01*
X190640Y-520102D01*
X190640Y-524547D01*
G37*
G36*
X181748Y-581707D02*
X190640Y-581707D01*
X190640Y-586152D01*
X181748Y-586152D01*
X181748Y-581707D01*
G37*
G54D10*
X173494Y-524547D02*
X173494Y-581707D01*
G36*
X177940Y-524547D02*
X169048Y-524547D01*
X169048Y-520102D01*
X177940Y-520102D01*
X177940Y-524547D01*
G37*
G36*
X169048Y-581707D02*
X177940Y-581707D01*
X177940Y-586152D01*
X169048Y-586152D01*
X169048Y-581707D01*
G37*
G54D10*
X160794Y-524547D02*
X160794Y-581707D01*
G36*
X165240Y-524547D02*
X156348Y-524547D01*
X156348Y-520102D01*
X165240Y-520102D01*
X165240Y-524547D01*
G37*
G36*
X156348Y-581707D02*
X165240Y-581707D01*
X165240Y-586152D01*
X156348Y-586152D01*
X156348Y-581707D01*
G37*
G54D10*
X148094Y-524547D02*
X148094Y-581707D01*
G36*
X152540Y-524547D02*
X143648Y-524547D01*
X143648Y-520102D01*
X152540Y-520102D01*
X152540Y-524547D01*
G37*
G36*
X143648Y-581707D02*
X152540Y-581707D01*
X152540Y-586152D01*
X143648Y-586152D01*
X143648Y-581707D01*
G37*
G54D10*
X135394Y-524547D02*
X135394Y-581707D01*
G36*
X139840Y-524547D02*
X130948Y-524547D01*
X130948Y-520102D01*
X139840Y-520102D01*
X139840Y-524547D01*
G37*
G36*
X130948Y-581707D02*
X139840Y-581707D01*
X139840Y-586152D01*
X130948Y-586152D01*
X130948Y-581707D01*
G37*
G54D10*
X122694Y-524547D02*
X122694Y-581707D01*
G36*
X127140Y-524547D02*
X118248Y-524547D01*
X118248Y-520102D01*
X127140Y-520102D01*
X127140Y-524547D01*
G37*
G36*
X118248Y-581707D02*
X127140Y-581707D01*
X127140Y-586152D01*
X118248Y-586152D01*
X118248Y-581707D01*
G37*
G54D10*
X109994Y-524547D02*
X109994Y-581707D01*
G36*
X114440Y-524547D02*
X105548Y-524547D01*
X105548Y-520102D01*
X114440Y-520102D01*
X114440Y-524547D01*
G37*
G36*
X105548Y-581707D02*
X114440Y-581707D01*
X114440Y-586152D01*
X105548Y-586152D01*
X105548Y-581707D01*
G37*
G54D10*
X97294Y-524547D02*
X97294Y-581707D01*
G36*
X101740Y-524547D02*
X92848Y-524547D01*
X92848Y-520101D01*
X101740Y-520101D01*
X101740Y-524547D01*
G37*
G36*
X92848Y-581707D02*
X101740Y-581707D01*
X101740Y-586152D01*
X92848Y-586152D01*
X92848Y-581707D01*
G37*
G54D10*
X84594Y-524547D02*
X84594Y-581707D01*
G36*
X89040Y-524547D02*
X80148Y-524547D01*
X80148Y-520101D01*
X89040Y-520101D01*
X89040Y-524547D01*
G37*
G36*
X80148Y-581707D02*
X89040Y-581707D01*
X89040Y-586152D01*
X80148Y-586152D01*
X80148Y-581707D01*
G37*
G54D10*
X71894Y-524547D02*
X71894Y-581707D01*
G36*
X76340Y-524547D02*
X67448Y-524547D01*
X67448Y-520101D01*
X76340Y-520101D01*
X76340Y-524547D01*
G37*
G36*
X67448Y-581707D02*
X76340Y-581707D01*
X76340Y-586152D01*
X67448Y-586152D01*
X67448Y-581707D01*
G37*
G54D10*
X59194Y-524547D02*
X59194Y-581707D01*
G36*
X63640Y-524547D02*
X54748Y-524547D01*
X54748Y-520101D01*
X63640Y-520101D01*
X63640Y-524547D01*
G37*
G36*
X54748Y-581707D02*
X63640Y-581707D01*
X63640Y-586152D01*
X54748Y-586152D01*
X54748Y-581707D01*
G37*
G54D10*
X46494Y-524547D02*
X46494Y-581707D01*
G36*
X50940Y-524547D02*
X42048Y-524547D01*
X42048Y-520101D01*
X50940Y-520101D01*
X50940Y-524547D01*
G37*
G36*
X42048Y-581707D02*
X50940Y-581707D01*
X50940Y-586152D01*
X42048Y-586152D01*
X42048Y-581707D01*
G37*
X247593Y-342018D02*
G54D11*
D03*
X247593Y-121018D02*
G54D11*
D03*
X254093Y-342018D02*
G54D11*
D03*
X254093Y-121018D02*
G54D11*
D03*
X260593Y-342018D02*
G54D11*
D03*
X260593Y-121018D02*
G54D11*
D03*
X267093Y-342018D02*
G54D11*
D03*
X267093Y-121018D02*
G54D11*
D03*
X273593Y-342018D02*
G54D11*
D03*
X273593Y-121018D02*
G54D11*
D03*
X280093Y-342018D02*
G54D11*
D03*
X280093Y-121018D02*
G54D11*
D03*
X286593Y-342018D02*
G54D11*
D03*
X286593Y-121018D02*
G54D11*
D03*
X293093Y-342018D02*
G54D11*
D03*
X293093Y-121018D02*
G54D11*
D03*
X299593Y-342018D02*
G54D11*
D03*
X299593Y-121018D02*
G54D11*
D03*
X306093Y-342018D02*
G54D11*
D03*
X306093Y-121018D02*
G54D11*
D03*
X312593Y-342018D02*
G54D11*
D03*
X312593Y-121018D02*
G54D11*
D03*
X319093Y-342018D02*
G54D11*
D03*
X319093Y-121018D02*
G54D11*
D03*
X325593Y-342018D02*
G54D11*
D03*
X325593Y-121018D02*
G54D11*
D03*
X332093Y-342018D02*
G54D11*
D03*
X332093Y-121018D02*
G54D11*
D03*
X338593Y-342018D02*
G54D11*
D03*
X338593Y-121018D02*
G54D11*
D03*
X345093Y-342018D02*
G54D11*
D03*
X345093Y-121018D02*
G54D11*
D03*
X351593Y-342018D02*
G54D11*
D03*
X351593Y-121018D02*
G54D11*
D03*
X358093Y-342018D02*
G54D11*
D03*
X358093Y-121018D02*
G54D11*
D03*
X364593Y-342018D02*
G54D11*
D03*
X364593Y-121018D02*
G54D11*
D03*
X371093Y-342018D02*
G54D11*
D03*
X371093Y-121018D02*
G54D11*
D03*
X228843Y-325768D02*
G54D12*
D03*
X389843Y-325768D02*
G54D12*
D03*
X228843Y-319268D02*
G54D12*
D03*
X389843Y-319268D02*
G54D12*
D03*
X228843Y-312768D02*
G54D12*
D03*
X389843Y-312768D02*
G54D12*
D03*
X228843Y-306268D02*
G54D12*
D03*
X389843Y-306268D02*
G54D12*
D03*
X228843Y-299768D02*
G54D12*
D03*
X389843Y-299768D02*
G54D12*
D03*
X228843Y-293268D02*
G54D12*
D03*
X389843Y-293268D02*
G54D12*
D03*
X228843Y-286768D02*
G54D12*
D03*
X389843Y-286768D02*
G54D12*
D03*
X228843Y-280268D02*
G54D12*
D03*
X389843Y-280268D02*
G54D12*
D03*
X228843Y-273768D02*
G54D12*
D03*
X389843Y-273768D02*
G54D12*
D03*
X228843Y-267268D02*
G54D12*
D03*
X389843Y-267268D02*
G54D12*
D03*
X228843Y-260768D02*
G54D12*
D03*
X389843Y-260768D02*
G54D12*
D03*
X228843Y-254268D02*
G54D12*
D03*
X389843Y-254268D02*
G54D12*
D03*
X228843Y-247768D02*
G54D12*
D03*
X389843Y-247768D02*
G54D12*
D03*
X228843Y-241268D02*
G54D12*
D03*
X389843Y-241268D02*
G54D12*
D03*
X228843Y-234768D02*
G54D12*
D03*
X389843Y-234768D02*
G54D12*
D03*
X228843Y-228268D02*
G54D12*
D03*
X389843Y-228268D02*
G54D12*
D03*
X228843Y-221768D02*
G54D12*
D03*
X389843Y-221768D02*
G54D12*
D03*
X228843Y-215268D02*
G54D12*
D03*
X389843Y-215268D02*
G54D12*
D03*
X228843Y-208768D02*
G54D12*
D03*
X389843Y-208768D02*
G54D12*
D03*
X228843Y-202268D02*
G54D12*
D03*
X389843Y-202268D02*
G54D12*
D03*
X228843Y-195768D02*
G54D12*
D03*
X389843Y-195768D02*
G54D12*
D03*
X228843Y-189268D02*
G54D12*
D03*
X389843Y-189268D02*
G54D12*
D03*
X228843Y-182768D02*
G54D12*
D03*
X389843Y-182768D02*
G54D12*
D03*
X228843Y-176268D02*
G54D12*
D03*
X389843Y-176268D02*
G54D12*
D03*
X228843Y-169768D02*
G54D12*
D03*
X389843Y-169768D02*
G54D12*
D03*
X228843Y-163268D02*
G54D12*
D03*
X389843Y-163268D02*
G54D12*
D03*
X228843Y-156768D02*
G54D12*
D03*
X389843Y-156768D02*
G54D12*
D03*
X228843Y-150268D02*
G54D12*
D03*
X389843Y-150268D02*
G54D12*
D03*
X228843Y-143768D02*
G54D12*
D03*
X389843Y-143768D02*
G54D12*
D03*
X228843Y-137268D02*
G54D12*
D03*
X389843Y-137268D02*
G54D12*
D03*
X724728Y-415065D02*
G54D13*
D03*
X712024Y-415065D02*
G54D13*
D03*
X699330Y-415065D02*
G54D14*
D03*
X610414Y-415065D02*
G54D15*
D03*
X585010Y-415065D02*
G54D13*
D03*
X559604Y-123940D02*
G54D15*
D03*
X452152Y-269504D02*
G54D16*
D03*
X648524Y-415065D02*
G54D13*
D03*
X635816Y-415065D02*
G54D13*
D03*
X635816Y-123940D02*
G54D13*
D03*
X712024Y-123940D02*
G54D13*
D03*
X661214Y-415065D02*
G54D14*
D03*
X661214Y-123940D02*
G54D14*
D03*
X585010Y-123940D02*
G54D13*
D03*
X610414Y-123940D02*
G54D15*
D03*
X483392Y-415065D02*
G54D14*
D03*
X452152Y-256796D02*
G54D16*
D03*
X452152Y-244094D02*
G54D16*
D03*
X452152Y-231400D02*
G54D17*
D03*
X724728Y-123940D02*
G54D13*
D03*
X699330Y-123940D02*
G54D14*
D03*
X686624Y-123940D02*
G54D13*
D03*
X673920Y-415065D02*
G54D14*
D03*
X673920Y-123940D02*
G54D14*
D03*
X572304Y-415065D02*
G54D14*
D03*
X496098Y-415065D02*
G54D13*
D03*
X508804Y-415065D02*
G54D14*
D03*
X559604Y-415065D02*
G54D15*
D03*
X521497Y-123940D02*
G54D13*
D03*
X546907Y-415065D02*
G54D13*
D03*
X546907Y-123940D02*
G54D13*
D03*
X597714Y-415065D02*
G54D14*
D03*
X597709Y-269496D02*
G54D18*
D03*
X521497Y-415065D02*
G54D13*
D03*
X648524Y-123940D02*
G54D13*
D03*
X496098Y-123940D02*
G54D13*
D03*
X483392Y-123940D02*
G54D14*
D03*
X508804Y-123940D02*
G54D14*
D03*
X572304Y-123940D02*
G54D14*
D03*
X534200Y-123940D02*
G54D13*
D03*
X534200Y-415065D02*
G54D13*
D03*
X470688Y-415065D02*
G54D13*
D03*
X743276Y-333004D02*
G54D19*
D03*
X743276Y-345708D02*
G54D20*
D03*
X743276Y-358414D02*
G54D19*
D03*
X743276Y-371120D02*
G54D19*
D03*
X746963Y-418752D02*
G54D18*
D03*
X743276Y-396518D02*
G54D20*
D03*
X743276Y-383811D02*
G54D19*
D03*
X743276Y-320311D02*
G54D19*
D03*
X743276Y-307605D02*
G54D19*
D03*
X743276Y-294900D02*
G54D20*
D03*
X743276Y-282200D02*
G54D21*
D03*
X743276Y-269504D02*
G54D19*
D03*
X743276Y-256796D02*
G54D19*
D03*
X743276Y-244094D02*
G54D19*
D03*
X743276Y-231400D02*
G54D20*
D03*
X743276Y-218695D02*
G54D19*
D03*
X743276Y-205990D02*
G54D20*
D03*
X743276Y-193282D02*
G54D20*
D03*
X743276Y-180594D02*
G54D19*
D03*
X743276Y-142482D02*
G54D21*
D03*
X743276Y-155180D02*
G54D19*
D03*
X743276Y-167886D02*
G54D19*
D03*
X452152Y-205990D02*
G54D17*
D03*
X452152Y-218695D02*
G54D16*
D03*
X452152Y-345708D02*
G54D17*
D03*
X452152Y-358414D02*
G54D16*
D03*
X452152Y-371120D02*
G54D16*
D03*
X452152Y-383811D02*
G54D16*
D03*
X452152Y-396518D02*
G54D17*
D03*
X452152Y-320311D02*
G54D16*
D03*
X452152Y-333004D02*
G54D16*
D03*
X452152Y-282200D02*
G54D22*
D03*
X452152Y-294900D02*
G54D17*
D03*
X452152Y-307605D02*
G54D16*
D03*
X597714Y-123940D02*
G54D14*
D03*
X452152Y-180594D02*
G54D16*
D03*
X452152Y-193282D02*
G54D17*
D03*
X452152Y-167886D02*
G54D16*
D03*
X452152Y-155180D02*
G54D16*
D03*
X448466Y-120253D02*
G54D18*
D03*
X452152Y-142482D02*
G54D22*
D03*
X470688Y-123940D02*
G54D13*
D03*
X623110Y-415065D02*
G54D13*
D03*
X623110Y-123940D02*
G54D13*
D03*
X686624Y-415065D02*
G54D13*
D03*
X823088Y-294653D02*
G54D17*
D03*
X943242Y-313194D02*
G54D23*
D03*
X943242Y-123682D02*
G54D13*
D03*
X930540Y-313194D02*
G54D24*
D03*
X930540Y-123682D02*
G54D15*
D03*
X994048Y-313194D02*
G54D25*
D03*
X994048Y-123682D02*
G54D14*
D03*
X841630Y-313194D02*
G54D24*
D03*
X841630Y-123682D02*
G54D15*
D03*
X823089Y-154933D02*
G54D16*
D03*
X823089Y-167633D02*
G54D22*
D03*
X823088Y-142229D02*
G54D16*
D03*
X823089Y-231139D02*
G54D16*
D03*
X854330Y-123682D02*
G54D14*
D03*
X867034Y-123682D02*
G54D13*
D03*
X879742Y-123682D02*
G54D13*
D03*
X892433Y-123682D02*
G54D13*
D03*
X905138Y-123682D02*
G54D14*
D03*
X917844Y-123682D02*
G54D13*
D03*
X955945Y-313194D02*
G54D23*
D03*
X955945Y-123682D02*
G54D13*
D03*
X968652Y-123682D02*
G54D13*
D03*
X981351Y-123682D02*
G54D15*
D03*
X892433Y-313194D02*
G54D23*
D03*
X905138Y-313194D02*
G54D25*
D03*
X917844Y-313194D02*
G54D23*
D03*
X854330Y-313194D02*
G54D25*
D03*
X867034Y-313194D02*
G54D23*
D03*
X879742Y-313194D02*
G54D23*
D03*
X981351Y-313194D02*
G54D24*
D03*
X968652Y-313194D02*
G54D23*
D03*
X1012596Y-294653D02*
G54D20*
D03*
X1012596Y-193035D02*
G54D20*
D03*
X1012596Y-205743D02*
G54D20*
D03*
X1012596Y-218440D02*
G54D21*
D03*
X1012596Y-231139D02*
G54D19*
D03*
X1012596Y-243847D02*
G54D19*
D03*
X1012596Y-256549D02*
G54D19*
D03*
X1012596Y-269243D02*
G54D20*
D03*
X1012596Y-281948D02*
G54D19*
D03*
X1012596Y-180331D02*
G54D19*
D03*
X1012596Y-167633D02*
G54D21*
D03*
X1012596Y-154933D02*
G54D19*
D03*
X1012596Y-142229D02*
G54D19*
D03*
X823088Y-281948D02*
G54D16*
D03*
X823088Y-269243D02*
G54D17*
D03*
X823089Y-256549D02*
G54D16*
D03*
X823088Y-243847D02*
G54D16*
D03*
X823089Y-218440D02*
G54D22*
D03*
X823089Y-205743D02*
G54D17*
D03*
X823088Y-193035D02*
G54D17*
D03*
X823089Y-180331D02*
G54D16*
D03*
X1084766Y-256405D02*
G54D17*
D03*
X1103314Y-123534D02*
G54D13*
D03*
X1116020Y-123534D02*
G54D13*
D03*
X1081088Y-119856D02*
G54D26*
D03*
X1084766Y-180185D02*
G54D16*
D03*
X1141418Y-123534D02*
G54D14*
D03*
X1154124Y-123534D02*
G54D13*
D03*
X1084766Y-218295D02*
G54D22*
D03*
X1084766Y-230995D02*
G54D17*
D03*
X1243034Y-123534D02*
G54D13*
D03*
X1306550Y-414667D02*
G54D23*
D03*
X1357358Y-123534D02*
G54D14*
D03*
X1319247Y-414667D02*
G54D24*
D03*
X1331947Y-414667D02*
G54D25*
D03*
X1255740Y-123534D02*
G54D13*
D03*
X1268438Y-123534D02*
G54D15*
D03*
X1281138Y-123534D02*
G54D14*
D03*
X1255740Y-414667D02*
G54D23*
D03*
X1268438Y-414667D02*
G54D24*
D03*
X1281138Y-414667D02*
G54D25*
D03*
X1375900Y-180185D02*
G54D27*
D03*
X1375900Y-167488D02*
G54D28*
D03*
X1375900Y-154788D02*
G54D29*
D03*
X1375900Y-142084D02*
G54D27*
D03*
X1375900Y-218295D02*
G54D28*
D03*
X1375900Y-205598D02*
G54D27*
D03*
X1375900Y-192892D02*
G54D27*
D03*
X1357358Y-414667D02*
G54D25*
D03*
X1379579Y-418344D02*
G54D18*
D03*
X1179521Y-414667D02*
G54D23*
D03*
X1192226Y-414667D02*
G54D23*
D03*
X1084766Y-370713D02*
G54D17*
D03*
X1084766Y-358016D02*
G54D22*
D03*
X1084766Y-345317D02*
G54D16*
D03*
X1217638Y-414667D02*
G54D25*
D03*
X1230328Y-414667D02*
G54D25*
D03*
X1243034Y-414667D02*
G54D23*
D03*
X1141418Y-414667D02*
G54D25*
D03*
X1154124Y-414667D02*
G54D23*
D03*
X1128720Y-414667D02*
G54D24*
D03*
X1179521Y-123534D02*
G54D13*
D03*
X1192226Y-123534D02*
G54D13*
D03*
X1319247Y-123534D02*
G54D15*
D03*
X1331947Y-123534D02*
G54D14*
D03*
X1293842Y-123534D02*
G54D13*
D03*
X1293842Y-414667D02*
G54D23*
D03*
X1344652Y-123534D02*
G54D13*
D03*
X1166828Y-123534D02*
G54D14*
D03*
X1166828Y-414667D02*
G54D25*
D03*
X1084766Y-383419D02*
G54D16*
D03*
X1084766Y-269098D02*
G54D16*
D03*
X1230337Y-269104D02*
G54D30*
D03*
X1217638Y-123534D02*
G54D14*
D03*
X1230328Y-123534D02*
G54D14*
D03*
X1306550Y-123534D02*
G54D13*
D03*
X1204932Y-414667D02*
G54D23*
D03*
X1084766Y-307213D02*
G54D17*
D03*
X1084766Y-319905D02*
G54D17*
D03*
X1084766Y-281802D02*
G54D16*
D03*
X1084766Y-294509D02*
G54D16*
D03*
X1128720Y-123534D02*
G54D15*
D03*
X1344652Y-414667D02*
G54D23*
D03*
X1204932Y-123534D02*
G54D13*
D03*
X1375900Y-358016D02*
G54D28*
D03*
X1375900Y-396123D02*
G54D29*
D03*
X1375900Y-383419D02*
G54D27*
D03*
X1375900Y-370713D02*
G54D29*
D03*
X1084766Y-396123D02*
G54D17*
D03*
X1103314Y-414667D02*
G54D23*
D03*
X1116020Y-414667D02*
G54D23*
D03*
X1084766Y-205598D02*
G54D16*
D03*
X1375900Y-256405D02*
G54D29*
D03*
X1375900Y-269098D02*
G54D27*
D03*
X1375900Y-230995D02*
G54D29*
D03*
X1375900Y-243699D02*
G54D27*
D03*
X1375900Y-332611D02*
G54D27*
D03*
X1375900Y-319905D02*
G54D29*
D03*
X1375900Y-345317D02*
G54D27*
D03*
X1375900Y-307213D02*
G54D29*
D03*
X1375900Y-281802D02*
G54D27*
D03*
X1375900Y-294509D02*
G54D27*
D03*
X1084766Y-142084D02*
G54D16*
D03*
X1084766Y-167488D02*
G54D22*
D03*
X1084766Y-154788D02*
G54D17*
D03*
X1084766Y-243699D02*
G54D16*
D03*
X1084766Y-332611D02*
G54D16*
D03*
X1084766Y-192892D02*
G54D16*
D03*
X1466850Y-425253D02*
G54D31*
D03*
X1466850Y-120253D02*
G54D31*
D03*
X1473350Y-425253D02*
G54D31*
D03*
X1473350Y-120253D02*
G54D31*
D03*
X1479850Y-425253D02*
G54D31*
D03*
X1479850Y-120253D02*
G54D31*
D03*
X1486350Y-425253D02*
G54D31*
D03*
X1486350Y-120253D02*
G54D31*
D03*
X1492850Y-425253D02*
G54D31*
D03*
X1492850Y-120253D02*
G54D31*
D03*
X1499350Y-425253D02*
G54D31*
D03*
X1499350Y-120253D02*
G54D31*
D03*
X1505850Y-425253D02*
G54D31*
D03*
X1505850Y-120253D02*
G54D31*
D03*
X1512350Y-425253D02*
G54D31*
D03*
X1512350Y-120253D02*
G54D31*
D03*
X1518850Y-425253D02*
G54D31*
D03*
X1518850Y-120253D02*
G54D31*
D03*
X1525350Y-425253D02*
G54D31*
D03*
X1525350Y-120253D02*
G54D31*
D03*
X1531850Y-425253D02*
G54D31*
D03*
X1531850Y-120253D02*
G54D31*
D03*
X1538350Y-425253D02*
G54D31*
D03*
X1538350Y-120253D02*
G54D31*
D03*
X1544850Y-425253D02*
G54D31*
D03*
X1544850Y-120253D02*
G54D31*
D03*
X1551350Y-425253D02*
G54D31*
D03*
X1551350Y-120253D02*
G54D31*
D03*
X1557850Y-425253D02*
G54D31*
D03*
X1557850Y-120253D02*
G54D31*
D03*
X1564350Y-425253D02*
G54D31*
D03*
X1564350Y-120253D02*
G54D31*
D03*
X1570850Y-425253D02*
G54D31*
D03*
X1570850Y-120253D02*
G54D31*
D03*
X1577350Y-425253D02*
G54D31*
D03*
X1577350Y-120253D02*
G54D31*
D03*
X1583850Y-425253D02*
G54D31*
D03*
X1583850Y-120253D02*
G54D31*
D03*
X1590350Y-425253D02*
G54D31*
D03*
X1590350Y-120253D02*
G54D31*
D03*
X1596850Y-425253D02*
G54D31*
D03*
X1596850Y-120253D02*
G54D31*
D03*
X1603350Y-425253D02*
G54D31*
D03*
X1603350Y-120253D02*
G54D31*
D03*
X1609850Y-425253D02*
G54D31*
D03*
X1609850Y-120253D02*
G54D31*
D03*
X1616350Y-425253D02*
G54D31*
D03*
X1616350Y-120253D02*
G54D31*
D03*
X1622850Y-425253D02*
G54D31*
D03*
X1622850Y-120253D02*
G54D31*
D03*
X1629350Y-425253D02*
G54D31*
D03*
X1629350Y-120253D02*
G54D31*
D03*
X1635850Y-425253D02*
G54D31*
D03*
X1635850Y-120253D02*
G54D31*
D03*
X1642350Y-425253D02*
G54D31*
D03*
X1642350Y-120253D02*
G54D31*
D03*
X1648850Y-425253D02*
G54D31*
D03*
X1648850Y-120253D02*
G54D31*
D03*
X1655350Y-425253D02*
G54D31*
D03*
X1655350Y-120253D02*
G54D31*
D03*
X1661850Y-425253D02*
G54D31*
D03*
X1661850Y-120253D02*
G54D31*
D03*
X1668350Y-425253D02*
G54D31*
D03*
X1668350Y-120253D02*
G54D31*
D03*
X1674850Y-425253D02*
G54D31*
D03*
X1674850Y-120253D02*
G54D31*
D03*
X1681350Y-425253D02*
G54D31*
D03*
X1681350Y-120253D02*
G54D31*
D03*
X1687850Y-425253D02*
G54D31*
D03*
X1687850Y-120253D02*
G54D31*
D03*
X1694350Y-425253D02*
G54D31*
D03*
X1694350Y-120253D02*
G54D31*
D03*
X1700850Y-425253D02*
G54D31*
D03*
X1700850Y-120253D02*
G54D31*
D03*
X1707350Y-425253D02*
G54D31*
D03*
X1707350Y-120253D02*
G54D31*
D03*
X1713850Y-425253D02*
G54D31*
D03*
X1713850Y-120253D02*
G54D31*
D03*
X1720350Y-425253D02*
G54D31*
D03*
X1720350Y-120253D02*
G54D31*
D03*
X1441100Y-399503D02*
G54D32*
D03*
X1746105Y-399503D02*
G54D32*
D03*
X1441100Y-393003D02*
G54D32*
D03*
X1746104Y-393003D02*
G54D32*
D03*
X1441100Y-386503D02*
G54D32*
D03*
X1746104Y-386503D02*
G54D32*
D03*
X1441100Y-380003D02*
G54D32*
D03*
X1746104Y-380003D02*
G54D32*
D03*
X1441100Y-373503D02*
G54D32*
D03*
X1746105Y-373503D02*
G54D32*
D03*
X1441100Y-367003D02*
G54D32*
D03*
X1746105Y-367003D02*
G54D32*
D03*
X1441100Y-360503D02*
G54D32*
D03*
X1746105Y-360503D02*
G54D32*
D03*
X1441100Y-354003D02*
G54D32*
D03*
X1746105Y-354003D02*
G54D32*
D03*
X1441100Y-347503D02*
G54D32*
D03*
X1746105Y-347503D02*
G54D32*
D03*
X1441100Y-341003D02*
G54D32*
D03*
X1746105Y-341003D02*
G54D32*
D03*
X1441100Y-334503D02*
G54D32*
D03*
X1746104Y-334503D02*
G54D32*
D03*
X1441100Y-328003D02*
G54D32*
D03*
X1746104Y-328003D02*
G54D32*
D03*
X1441100Y-321503D02*
G54D32*
D03*
X1746104Y-321503D02*
G54D32*
D03*
X1441100Y-315003D02*
G54D32*
D03*
X1746104Y-315003D02*
G54D32*
D03*
X1441100Y-308503D02*
G54D32*
D03*
X1746104Y-308503D02*
G54D32*
D03*
X1441100Y-302003D02*
G54D32*
D03*
X1746104Y-302003D02*
G54D32*
D03*
X1441100Y-295503D02*
G54D32*
D03*
X1746105Y-295503D02*
G54D32*
D03*
X1441100Y-289003D02*
G54D32*
D03*
X1746105Y-289003D02*
G54D32*
D03*
X1441100Y-282503D02*
G54D32*
D03*
X1746104Y-282503D02*
G54D32*
D03*
X1441100Y-276003D02*
G54D32*
D03*
X1746105Y-276003D02*
G54D32*
D03*
X1441100Y-269503D02*
G54D32*
D03*
X1746105Y-269503D02*
G54D32*
D03*
X1441100Y-263003D02*
G54D32*
D03*
X1746104Y-263003D02*
G54D32*
D03*
X1441100Y-256503D02*
G54D32*
D03*
X1746104Y-256503D02*
G54D32*
D03*
X1441100Y-250003D02*
G54D32*
D03*
X1746105Y-250003D02*
G54D32*
D03*
X1441100Y-243503D02*
G54D32*
D03*
X1746105Y-243503D02*
G54D32*
D03*
X1441100Y-237003D02*
G54D32*
D03*
X1746104Y-237003D02*
G54D32*
D03*
X1441100Y-230503D02*
G54D32*
D03*
X1746104Y-230503D02*
G54D32*
D03*
X1441100Y-224003D02*
G54D32*
D03*
X1746105Y-224003D02*
G54D32*
D03*
X1441100Y-217503D02*
G54D32*
D03*
X1746105Y-217503D02*
G54D32*
D03*
X1441100Y-211003D02*
G54D32*
D03*
X1746105Y-211003D02*
G54D32*
D03*
X1441100Y-204503D02*
G54D32*
D03*
X1746104Y-204503D02*
G54D32*
D03*
X1441100Y-198003D02*
G54D32*
D03*
X1746104Y-198003D02*
G54D32*
D03*
X1441100Y-191503D02*
G54D32*
D03*
X1746104Y-191503D02*
G54D32*
D03*
X1441100Y-185003D02*
G54D32*
D03*
X1746105Y-185003D02*
G54D32*
D03*
X1441100Y-178503D02*
G54D32*
D03*
X1746105Y-178503D02*
G54D32*
D03*
X1441100Y-172003D02*
G54D32*
D03*
X1746104Y-172003D02*
G54D32*
D03*
X1441100Y-165503D02*
G54D32*
D03*
X1746104Y-165503D02*
G54D32*
D03*
X1441100Y-159003D02*
G54D32*
D03*
X1746104Y-159003D02*
G54D32*
D03*
X1441100Y-152503D02*
G54D32*
D03*
X1746105Y-152503D02*
G54D32*
D03*
X1441100Y-146003D02*
G54D32*
D03*
X1746105Y-146003D02*
G54D32*
D03*
X3351675Y-228997D02*
G54D33*
D03*
X3497747Y-273459D02*
G54D17*
D03*
X3497747Y-286149D02*
G54D16*
D03*
X3497747Y-260752D02*
G54D17*
D03*
X3497747Y-248048D02*
G54D16*
D03*
X3497747Y-336959D02*
G54D17*
D03*
X3497747Y-324259D02*
G54D22*
D03*
X3453289Y-394119D02*
G54D14*
D03*
X3332623Y-311563D02*
G54D27*
D03*
X3497747Y-311563D02*
G54D16*
D03*
X3332623Y-375063D02*
G54D27*
D03*
X3377079Y-394119D02*
G54D15*
D03*
X3364379Y-394119D02*
G54D14*
D03*
X3351675Y-394119D02*
G54D13*
D03*
X3332623Y-248048D02*
G54D27*
D03*
X3332623Y-260752D02*
G54D29*
D03*
X3478687Y-228997D02*
G54D33*
D03*
X3497747Y-349664D02*
G54D16*
D03*
X3332623Y-349664D02*
G54D27*
D03*
X3497747Y-362369D02*
G54D17*
D03*
X3332623Y-362369D02*
G54D29*
D03*
X3332623Y-336959D02*
G54D29*
D03*
X3332623Y-324259D02*
G54D28*
D03*
X3332623Y-273459D02*
G54D29*
D03*
X3332623Y-286149D02*
G54D27*
D03*
X3332623Y-298856D02*
G54D27*
D03*
X3497747Y-298856D02*
G54D16*
D03*
X3389777Y-394119D02*
G54D13*
D03*
X3402483Y-394119D02*
G54D13*
D03*
X3415187Y-394119D02*
G54D13*
D03*
X3440585Y-394119D02*
G54D13*
D03*
X3427879Y-394119D02*
G54D14*
D03*
X3465989Y-394119D02*
G54D15*
D03*
X3478687Y-394119D02*
G54D13*
D03*
X3497747Y-375063D02*
G54D16*
D03*
X3364379Y-228997D02*
G54D34*
D03*
X3377079Y-228997D02*
G54D35*
D03*
X3389777Y-228997D02*
G54D33*
D03*
X3402483Y-228997D02*
G54D33*
D03*
X3415187Y-228997D02*
G54D33*
D03*
X3465989Y-228997D02*
G54D35*
D03*
X3453289Y-228997D02*
G54D34*
D03*
X3440585Y-228997D02*
G54D33*
D03*
X3427879Y-228997D02*
G54D34*
D03*
X3654859Y-165136D02*
G54D36*
D03*
X3642159Y-165136D02*
G54D37*
D03*
X3629463Y-165136D02*
G54D38*
D03*
X3616756Y-165136D02*
G54D38*
D03*
X3604052Y-165136D02*
G54D38*
D03*
X3591352Y-165136D02*
G54D37*
D03*
X3578653Y-165136D02*
G54D38*
D03*
X3565950Y-165136D02*
G54D36*
D03*
X3591352Y-102898D02*
G54D39*
D03*
X3578653Y-102898D02*
G54D40*
D03*
X3565950Y-102898D02*
G54D41*
D03*
X3654859Y-102898D02*
G54D41*
D03*
X3642159Y-102898D02*
G54D39*
D03*
X3604052Y-102898D02*
G54D40*
D03*
X3616756Y-102898D02*
G54D40*
D03*
X3629463Y-102898D02*
G54D40*
D03*
X827886Y-459452D02*
G54D42*
D03*
X815185Y-459452D02*
G54D43*
D03*
X827886Y-397213D02*
G54D40*
D03*
X815185Y-397213D02*
G54D39*
D03*
X802486Y-459452D02*
G54D42*
D03*
X802486Y-397213D02*
G54D40*
D03*
X789782Y-397213D02*
G54D41*
D03*
X789782Y-459452D02*
G54D44*
D03*
X874966Y-462729D02*
G54D13*
D03*
X874966Y-393633D02*
G54D13*
D03*
X862260Y-393633D02*
G54D14*
D03*
X862260Y-462729D02*
G54D14*
D03*
X1001978Y-393633D02*
G54D14*
D03*
X989274Y-393633D02*
G54D13*
D03*
X963876Y-393633D02*
G54D13*
D03*
X976582Y-393633D02*
G54D13*
D03*
X887665Y-393633D02*
G54D15*
D03*
X887665Y-462729D02*
G54D15*
D03*
X900365Y-393633D02*
G54D13*
D03*
X1001978Y-462729D02*
G54D14*
D03*
X989274Y-462729D02*
G54D13*
D03*
X976582Y-462729D02*
G54D13*
D03*
X963876Y-462729D02*
G54D13*
D03*
X938470Y-462729D02*
G54D15*
D03*
X938470Y-393633D02*
G54D15*
D03*
X925774Y-462729D02*
G54D13*
D03*
X913068Y-462729D02*
G54D14*
D03*
X925774Y-393633D02*
G54D13*
D03*
X913068Y-393633D02*
G54D14*
D03*
X951172Y-393633D02*
G54D13*
D03*
X951172Y-462729D02*
G54D13*
D03*
X900365Y-462729D02*
G54D13*
D03*
X2379894Y-215994D02*
G54D45*
D03*
X2392601Y-215994D02*
G54D45*
D03*
X2405305Y-215994D02*
G54D46*
D03*
X2379894Y-121998D02*
G54D45*
D03*
X2392601Y-121998D02*
G54D45*
D03*
X2405305Y-121998D02*
G54D46*
D03*
X2418011Y-121998D02*
G54D45*
D03*
X2418011Y-215994D02*
G54D45*
D03*
X2430704Y-121998D02*
G54D46*
D03*
X2443407Y-121998D02*
G54D46*
D03*
X2456115Y-121998D02*
G54D46*
D03*
X2468811Y-121998D02*
G54D47*
D03*
X2481512Y-121998D02*
G54D45*
D03*
X2456115Y-215994D02*
G54D46*
D03*
X2468811Y-215994D02*
G54D47*
D03*
X2481512Y-215994D02*
G54D45*
D03*
X2494216Y-121998D02*
G54D46*
D03*
X2494216Y-215994D02*
G54D46*
D03*
X2506924Y-215994D02*
G54D46*
D03*
X2506924Y-121998D02*
G54D46*
D03*
X2519620Y-121998D02*
G54D47*
D03*
X2519620Y-215994D02*
G54D47*
D03*
X2532315Y-121998D02*
G54D45*
D03*
X2545017Y-121998D02*
G54D46*
D03*
X2532315Y-215994D02*
G54D45*
D03*
X2545017Y-215994D02*
G54D46*
D03*
X2443407Y-215994D02*
G54D46*
D03*
X2430704Y-215994D02*
G54D46*
D03*
X2741988Y-286044D02*
G54D44*
D03*
X2741988Y-348286D02*
G54D41*
D03*
X2754678Y-348286D02*
G54D41*
D03*
X2767384Y-348286D02*
G54D40*
D03*
X2780091Y-348286D02*
G54D40*
D03*
X2792788Y-348286D02*
G54D39*
D03*
X2716576Y-348286D02*
G54D40*
D03*
X2729282Y-348286D02*
G54D40*
D03*
X2729282Y-286044D02*
G54D42*
D03*
X2716576Y-286044D02*
G54D42*
D03*
X2754678Y-286044D02*
G54D44*
D03*
X2767384Y-286044D02*
G54D42*
D03*
X2780092Y-286044D02*
G54D42*
D03*
X2792788Y-286044D02*
G54D43*
D03*
X2676147Y-286049D02*
G54D41*
D03*
X2663441Y-286049D02*
G54D40*
D03*
X2650735Y-286049D02*
G54D40*
D03*
X2638036Y-286049D02*
G54D39*
D03*
X2638036Y-348295D02*
G54D39*
D03*
X2650735Y-348295D02*
G54D40*
D03*
X2663441Y-348295D02*
G54D40*
D03*
X2676147Y-348295D02*
G54D41*
D03*
X2595972Y-348290D02*
G54D42*
D03*
X2583282Y-286050D02*
G54D40*
D03*
X2570576Y-286050D02*
G54D41*
D03*
X2557872Y-286050D02*
G54D40*
D03*
X2583282Y-348290D02*
G54D42*
D03*
X2570576Y-348290D02*
G54D44*
D03*
X2557872Y-348290D02*
G54D42*
D03*
X2595972Y-286050D02*
G54D40*
D03*
X3722691Y-101325D02*
G54D38*
D03*
X3735391Y-101325D02*
G54D38*
D03*
X3748091Y-101325D02*
G54D38*
D03*
X3709991Y-101325D02*
G54D38*
D03*
X3709991Y-163564D02*
G54D40*
D03*
X3722691Y-163564D02*
G54D40*
D03*
X3735391Y-163564D02*
G54D40*
D03*
X3748091Y-163564D02*
G54D40*
D03*
X3760804Y-101325D02*
G54D48*
D03*
X3760804Y-163564D02*
G54D49*
D03*
X3773517Y-163564D02*
G54D40*
D03*
X3786191Y-163564D02*
G54D40*
D03*
X3773517Y-101325D02*
G54D38*
D03*
X3786191Y-101325D02*
G54D38*
D03*
X3879159Y-101718D02*
G54D43*
D03*
X3879159Y-163957D02*
G54D39*
D03*
X3866461Y-163957D02*
G54D40*
D03*
X3853755Y-163957D02*
G54D40*
D03*
X3841049Y-163957D02*
G54D41*
D03*
X3841049Y-101718D02*
G54D44*
D03*
X3853755Y-101718D02*
G54D42*
D03*
X3866461Y-101718D02*
G54D42*
D03*
X3341472Y-102888D02*
G54D36*
D03*
X3354178Y-102888D02*
G54D38*
D03*
X3366882Y-102888D02*
G54D36*
D03*
X3379576Y-102888D02*
G54D38*
D03*
X3379576Y-165128D02*
G54D40*
D03*
X3366882Y-165128D02*
G54D41*
D03*
X3354178Y-165128D02*
G54D40*
D03*
X3341472Y-165128D02*
G54D41*
D03*
X3112692Y-286040D02*
G54D38*
D03*
X3125398Y-286040D02*
G54D38*
D03*
X3138096Y-286040D02*
G54D37*
D03*
X3150796Y-286040D02*
G54D36*
D03*
X3074590Y-286040D02*
G54D38*
D03*
X3087288Y-286040D02*
G54D37*
D03*
X3099988Y-286040D02*
G54D38*
D03*
X3112692Y-348278D02*
G54D40*
D03*
X3125398Y-348278D02*
G54D40*
D03*
X3138096Y-348278D02*
G54D39*
D03*
X3150796Y-348278D02*
G54D41*
D03*
X3099988Y-348278D02*
G54D40*
D03*
X3087288Y-348278D02*
G54D39*
D03*
X3074590Y-348278D02*
G54D40*
D03*
X2954396Y-286049D02*
G54D41*
D03*
X2967102Y-286049D02*
G54D40*
D03*
X2979806Y-286049D02*
G54D41*
D03*
X2992506Y-286049D02*
G54D39*
D03*
X3005204Y-286049D02*
G54D40*
D03*
X3017910Y-286049D02*
G54D40*
D03*
X3030616Y-286049D02*
G54D40*
D03*
X3030616Y-348288D02*
G54D42*
D03*
X3017910Y-348288D02*
G54D42*
D03*
X3005204Y-348288D02*
G54D42*
D03*
X2992506Y-348288D02*
G54D43*
D03*
X2954396Y-348288D02*
G54D44*
D03*
X2967102Y-348288D02*
G54D42*
D03*
X2979806Y-348288D02*
G54D44*
D03*
X2398717Y-376235D02*
G54D36*
D03*
X2398717Y-286049D02*
G54D41*
D03*
X2436820Y-286049D02*
G54D40*
D03*
X2436820Y-376235D02*
G54D38*
D03*
X2424113Y-376235D02*
G54D38*
D03*
X2424113Y-286049D02*
G54D40*
D03*
X2411421Y-376235D02*
G54D38*
D03*
X2411421Y-286049D02*
G54D40*
D03*
X2449524Y-376235D02*
G54D38*
D03*
X2449524Y-286049D02*
G54D40*
D03*
X2513024Y-286049D02*
G54D40*
D03*
X2500331Y-286049D02*
G54D40*
D03*
X2487627Y-286049D02*
G54D41*
D03*
X2513024Y-376235D02*
G54D38*
D03*
X2500331Y-376235D02*
G54D38*
D03*
X2487627Y-376235D02*
G54D36*
D03*
X2474921Y-376235D02*
G54D38*
D03*
X2474921Y-286049D02*
G54D40*
D03*
X2462225Y-286049D02*
G54D39*
D03*
X2462225Y-376235D02*
G54D37*
D03*
X3279094Y-286040D02*
G54D38*
D03*
X3266388Y-286040D02*
G54D38*
D03*
X3253690Y-286040D02*
G54D37*
D03*
X3240991Y-286040D02*
G54D36*
D03*
X3228286Y-286040D02*
G54D38*
D03*
X3215580Y-286040D02*
G54D38*
D03*
X3202887Y-286040D02*
G54D38*
D03*
X3190182Y-286040D02*
G54D38*
D03*
X3253690Y-348279D02*
G54D39*
D03*
X3190182Y-348279D02*
G54D40*
D03*
X3202887Y-348279D02*
G54D40*
D03*
X3215580Y-348279D02*
G54D40*
D03*
X3228286Y-348279D02*
G54D40*
D03*
X3240991Y-348279D02*
G54D41*
D03*
X3266388Y-348279D02*
G54D40*
D03*
X3279094Y-348279D02*
G54D40*
D03*
X3933138Y-162755D02*
G54D36*
D03*
X3933138Y-100516D02*
G54D41*
D03*
X3945843Y-100516D02*
G54D40*
D03*
X3945843Y-162755D02*
G54D38*
D03*
X3920445Y-162755D02*
G54D36*
D03*
X3920445Y-100516D02*
G54D41*
D03*
X3958549Y-100516D02*
G54D40*
D03*
X3971255Y-100516D02*
G54D41*
D03*
X3971255Y-162755D02*
G54D36*
D03*
X3958549Y-162755D02*
G54D38*
D03*
X3996652Y-100516D02*
G54D40*
D03*
X3983945Y-100516D02*
G54D41*
D03*
X3983945Y-162755D02*
G54D36*
D03*
X3996652Y-162755D02*
G54D38*
D03*
X3444952Y-165127D02*
G54D41*
D03*
X3457660Y-165127D02*
G54D41*
D03*
X3470356Y-165127D02*
G54D39*
D03*
X3483056Y-165127D02*
G54D40*
D03*
X3483056Y-102888D02*
G54D38*
D03*
X3470356Y-102888D02*
G54D37*
D03*
X3457660Y-102888D02*
G54D36*
D03*
X3444952Y-102888D02*
G54D36*
D03*
X3287796Y-109200D02*
G54D33*
D03*
X3148076Y-109200D02*
G54D34*
D03*
X3160782Y-109200D02*
G54D33*
D03*
X3173480Y-109200D02*
G54D35*
D03*
X3198885Y-221492D02*
G54D23*
D03*
X3186180Y-221492D02*
G54D23*
D03*
X3173480Y-221492D02*
G54D24*
D03*
X3160782Y-221492D02*
G54D23*
D03*
X3148076Y-221492D02*
G54D25*
D03*
X3287796Y-221492D02*
G54D23*
D03*
X3275090Y-221492D02*
G54D23*
D03*
X3262398Y-221492D02*
G54D23*
D03*
X3249694Y-221492D02*
G54D25*
D03*
X3211590Y-221492D02*
G54D23*
D03*
X3224290Y-221492D02*
G54D24*
D03*
X3236986Y-221492D02*
G54D23*
D03*
X3186180Y-109200D02*
G54D33*
D03*
X3198885Y-109200D02*
G54D33*
D03*
X3211590Y-109200D02*
G54D33*
D03*
X3224290Y-109200D02*
G54D35*
D03*
X3236986Y-109200D02*
G54D33*
D03*
X3249694Y-109200D02*
G54D34*
D03*
X3275090Y-109200D02*
G54D33*
D03*
X3262398Y-109200D02*
G54D33*
D03*
G54D10*
X33794Y-524547D02*
X33794Y-581707D01*
G36*
X38240Y-524547D02*
X29348Y-524547D01*
X29348Y-520102D01*
X38240Y-520102D01*
X38240Y-524547D01*
G37*
G36*
X29348Y-581707D02*
X38240Y-581707D01*
X38240Y-586152D01*
X29348Y-586152D01*
X29348Y-581707D01*
G37*
G54D10*
X21094Y-524547D02*
X21094Y-581707D01*
G36*
X25540Y-524547D02*
X16648Y-524547D01*
X16648Y-520102D01*
X25540Y-520102D01*
X25540Y-524547D01*
G37*
G36*
X16648Y-581707D02*
X25540Y-581707D01*
X25540Y-586152D01*
X16648Y-586152D01*
X16648Y-581707D01*
G37*
X2607302Y-215988D02*
G54D50*
D03*
X2607302Y-121998D02*
G54D45*
D03*
X2734287Y-215988D02*
G54D51*
D03*
X2721585Y-215988D02*
G54D50*
D03*
X2708891Y-215988D02*
G54D52*
D03*
X2696196Y-215988D02*
G54D51*
D03*
X2683490Y-215988D02*
G54D51*
D03*
X2594596Y-215988D02*
G54D51*
D03*
X2632692Y-215988D02*
G54D51*
D03*
X2619994Y-215988D02*
G54D51*
D03*
X2632692Y-121998D02*
G54D46*
D03*
X2619994Y-121998D02*
G54D46*
D03*
X2594596Y-121998D02*
G54D46*
D03*
X2581892Y-121998D02*
G54D45*
D03*
X2569186Y-121998D02*
G54D45*
D03*
X2734287Y-121998D02*
G54D46*
D03*
X2721585Y-121998D02*
G54D45*
D03*
X2708891Y-121998D02*
G54D47*
D03*
X2696196Y-121998D02*
G54D46*
D03*
X2683490Y-121998D02*
G54D46*
D03*
X2581892Y-215988D02*
G54D50*
D03*
X2569186Y-215988D02*
G54D50*
D03*
X2670785Y-121998D02*
G54D45*
D03*
X2670785Y-215988D02*
G54D50*
D03*
X2658088Y-215988D02*
G54D52*
D03*
X2658088Y-121998D02*
G54D47*
D03*
X2645396Y-215988D02*
G54D51*
D03*
X2645396Y-121998D02*
G54D46*
D03*
X2872532Y-215994D02*
G54D53*
D03*
X2885239Y-215994D02*
G54D53*
D03*
X2897937Y-215994D02*
G54D54*
D03*
X2910635Y-215994D02*
G54D55*
D03*
X2923341Y-215994D02*
G54D53*
D03*
X2783634Y-121998D02*
G54D46*
D03*
X2809026Y-215994D02*
G54D53*
D03*
X2821725Y-215994D02*
G54D53*
D03*
X2847127Y-121998D02*
G54D47*
D03*
X2847127Y-215994D02*
G54D54*
D03*
X2859827Y-215994D02*
G54D55*
D03*
X2859827Y-121998D02*
G54D45*
D03*
X2834431Y-215994D02*
G54D53*
D03*
X2834431Y-121998D02*
G54D46*
D03*
X2923341Y-121998D02*
G54D46*
D03*
X2783634Y-215994D02*
G54D53*
D03*
X2758232Y-215994D02*
G54D55*
D03*
X2770934Y-215994D02*
G54D55*
D03*
X2796336Y-121998D02*
G54D45*
D03*
X2796336Y-215994D02*
G54D55*
D03*
X2770934Y-121998D02*
G54D45*
D03*
X2758232Y-121998D02*
G54D45*
D03*
X2821725Y-121998D02*
G54D46*
D03*
X2809026Y-121998D02*
G54D46*
D03*
X2885239Y-121998D02*
G54D46*
D03*
X2872532Y-121998D02*
G54D46*
D03*
X2910635Y-121998D02*
G54D45*
D03*
X2897937Y-121998D02*
G54D47*
D03*
X3011020Y-122004D02*
G54D53*
D03*
X2998318Y-122004D02*
G54D53*
D03*
X2972918Y-216000D02*
G54D46*
D03*
X3049124Y-216000D02*
G54D45*
D03*
X3036424Y-216000D02*
G54D47*
D03*
X3023728Y-216000D02*
G54D46*
D03*
X3112638Y-216000D02*
G54D46*
D03*
X3112638Y-122004D02*
G54D53*
D03*
X2985624Y-216000D02*
G54D45*
D03*
X2985624Y-122004D02*
G54D55*
D03*
X2972918Y-122004D02*
G54D53*
D03*
X2960214Y-122004D02*
G54D55*
D03*
X2947508Y-122004D02*
G54D55*
D03*
X2960214Y-216000D02*
G54D45*
D03*
X2947508Y-216000D02*
G54D45*
D03*
X3011020Y-216000D02*
G54D46*
D03*
X2998318Y-216000D02*
G54D46*
D03*
X3023728Y-122004D02*
G54D53*
D03*
X3036424Y-122004D02*
G54D54*
D03*
X3049124Y-122004D02*
G54D55*
D03*
X3074536Y-122004D02*
G54D53*
D03*
X3074536Y-216000D02*
G54D46*
D03*
X3061830Y-122004D02*
G54D53*
D03*
X3061830Y-216000D02*
G54D46*
D03*
X3099932Y-122004D02*
G54D55*
D03*
X3099932Y-216000D02*
G54D45*
D03*
X3087234Y-122004D02*
G54D54*
D03*
X3087234Y-216000D02*
G54D47*
D03*
X2837219Y-286050D02*
G54D40*
D03*
X2837219Y-348288D02*
G54D38*
D03*
X2849918Y-348288D02*
G54D37*
D03*
X2862617Y-348288D02*
G54D38*
D03*
X2875322Y-348288D02*
G54D38*
D03*
X2875322Y-286050D02*
G54D40*
D03*
X2862617Y-286050D02*
G54D40*
D03*
X2849918Y-286050D02*
G54D39*
D03*
X2888028Y-286050D02*
G54D40*
D03*
X2888028Y-348288D02*
G54D38*
D03*
X2913426Y-348288D02*
G54D36*
D03*
X2913426Y-286050D02*
G54D41*
D03*
X2900718Y-348288D02*
G54D38*
D03*
X2900718Y-286050D02*
G54D40*
D03*
G36*
X3832182Y-466367D02*
X3851182Y-466367D01*
X3851182Y-485367D01*
X3832182Y-485367D01*
X3832182Y-466367D01*
G37*
X3892482Y-475867D02*
G54D56*
D03*
X3867078Y-475867D02*
G54D56*
D03*
X1818334Y-102638D02*
G54D57*
D03*
X1843736Y-102626D02*
G54D57*
D03*
X1869139Y-102626D02*
G54D57*
D03*
X1894523Y-102626D02*
G54D57*
D03*
X1919949Y-102638D02*
G54D57*
D03*
X1945351Y-102626D02*
G54D57*
D03*
X1970754Y-102626D02*
G54D57*
D03*
X1996138Y-102626D02*
G54D57*
D03*
X2021564Y-102638D02*
G54D57*
D03*
X2072348Y-102626D02*
G54D57*
D03*
X2097750Y-102614D02*
G54D57*
D03*
X2123162Y-102614D02*
G54D57*
D03*
X2148553Y-102614D02*
G54D57*
D03*
X2173988Y-102626D02*
G54D57*
D03*
X2199398Y-102614D02*
G54D57*
D03*
X2224808Y-102614D02*
G54D57*
D03*
X2250200Y-102614D02*
G54D57*
D03*
X2275634Y-102626D02*
G54D57*
D03*
X2046948Y-102626D02*
G54D57*
D03*
X2301036Y-102626D02*
G54D57*
D03*
G36*
X2319623Y-95788D02*
X2333323Y-95788D01*
X2333323Y-109488D01*
X2319623Y-109488D01*
X2319623Y-95788D01*
G37*
X1818334Y-255038D02*
G54D57*
D03*
X1843736Y-255026D02*
G54D57*
D03*
X1869139Y-255026D02*
G54D57*
D03*
X1894523Y-255026D02*
G54D57*
D03*
X1919949Y-255038D02*
G54D57*
D03*
X1945351Y-255026D02*
G54D57*
D03*
X1970754Y-255026D02*
G54D57*
D03*
X1996138Y-255026D02*
G54D57*
D03*
X2021564Y-255038D02*
G54D57*
D03*
X2072348Y-255026D02*
G54D57*
D03*
X2097750Y-255014D02*
G54D57*
D03*
X2123162Y-255014D02*
G54D57*
D03*
X2148553Y-255014D02*
G54D57*
D03*
X2173988Y-255026D02*
G54D57*
D03*
X2199398Y-255014D02*
G54D57*
D03*
X2224808Y-255014D02*
G54D57*
D03*
X2250200Y-255014D02*
G54D57*
D03*
X2275634Y-255026D02*
G54D57*
D03*
X2046948Y-255026D02*
G54D57*
D03*
X2301036Y-255026D02*
G54D57*
D03*
X2326473Y-255064D02*
G54D57*
D03*
X1818338Y-293485D02*
G54D57*
D03*
X1843741Y-293472D02*
G54D57*
D03*
X1869144Y-293473D02*
G54D57*
D03*
X1894527Y-293473D02*
G54D57*
D03*
X1919954Y-293485D02*
G54D57*
D03*
X1945356Y-293472D02*
G54D57*
D03*
X1970759Y-293473D02*
G54D57*
D03*
X1996142Y-293473D02*
G54D57*
D03*
X2021569Y-293485D02*
G54D57*
D03*
X2072353Y-293473D02*
G54D57*
D03*
X2097755Y-293460D02*
G54D57*
D03*
X2123166Y-293461D02*
G54D57*
D03*
X2148558Y-293461D02*
G54D57*
D03*
X2173992Y-293473D02*
G54D57*
D03*
X2199402Y-293460D02*
G54D57*
D03*
X2224813Y-293461D02*
G54D57*
D03*
X2250205Y-293461D02*
G54D57*
D03*
X2275640Y-293473D02*
G54D57*
D03*
X2046952Y-293472D02*
G54D57*
D03*
X2301041Y-293473D02*
G54D57*
D03*
G36*
X2319628Y-286635D02*
X2333328Y-286635D01*
X2333328Y-300335D01*
X2319628Y-300335D01*
X2319628Y-286635D01*
G37*
X1818338Y-445908D02*
G54D57*
D03*
X1843740Y-445895D02*
G54D57*
D03*
X1869144Y-445896D02*
G54D57*
D03*
X1894527Y-445896D02*
G54D57*
D03*
X1919954Y-445908D02*
G54D57*
D03*
X1945356Y-445895D02*
G54D57*
D03*
X1970758Y-445896D02*
G54D57*
D03*
X1996142Y-445896D02*
G54D57*
D03*
X2021568Y-445908D02*
G54D57*
D03*
X2072352Y-445896D02*
G54D57*
D03*
X2097755Y-445883D02*
G54D57*
D03*
X2123166Y-445884D02*
G54D57*
D03*
X2148558Y-445884D02*
G54D57*
D03*
X2173992Y-445896D02*
G54D57*
D03*
X2199402Y-445883D02*
G54D57*
D03*
X2224813Y-445884D02*
G54D57*
D03*
X2250204Y-445884D02*
G54D57*
D03*
X2275639Y-445896D02*
G54D57*
D03*
X2046952Y-445896D02*
G54D57*
D03*
X2301041Y-445896D02*
G54D57*
D03*
X2326478Y-445934D02*
G54D57*
D03*
X2512568Y-466727D02*
G54D58*
D03*
X2678959Y-451493D02*
G54D59*
D03*
X2540254Y-466727D02*
G54D58*
D03*
X2567689Y-466727D02*
G54D58*
D03*
X2595390Y-466727D02*
G54D58*
D03*
X2526287Y-438278D02*
G54D60*
D03*
X2428990Y-451493D02*
G54D59*
D03*
X2609354Y-438278D02*
G54D60*
D03*
X2581662Y-438278D02*
G54D60*
D03*
X2553975Y-438278D02*
G54D60*
D03*
G36*
X2489095Y-447778D02*
X2489095Y-428778D01*
X2508095Y-428778D01*
X2508095Y-447778D01*
X2489095Y-447778D01*
G37*
X3635760Y-365064D02*
G54D61*
D03*
X3635760Y-403168D02*
G54D61*
D03*
X3637034Y-530192D02*
G54D62*
D03*
X3587492Y-326960D02*
G54D63*
D03*
X3587492Y-365064D02*
G54D63*
D03*
X3587492Y-403168D02*
G54D63*
D03*
X3586226Y-530191D02*
G54D62*
D03*
X3635760Y-326960D02*
G54D61*
D03*
X3422056Y-483700D02*
G54D64*
D03*
X3422056Y-508595D02*
G54D65*
D03*
X3443142Y-508594D02*
G54D65*
D03*
X3469048Y-508594D02*
G54D65*
D03*
X3490132Y-508594D02*
G54D65*
D03*
X3523411Y-538828D02*
G54D66*
D03*
X3456094Y-546951D02*
G54D67*
D03*
X3388772Y-538828D02*
G54D66*
D03*
X3490132Y-483700D02*
G54D64*
D03*
X3173411Y-568543D02*
G54D68*
D03*
X3173246Y-443809D02*
G54D68*
D03*
X3198395Y-468711D02*
G54D68*
D03*
X3148352Y-568545D02*
G54D58*
D03*
X3148351Y-543649D02*
G54D58*
D03*
X3123450Y-543650D02*
G54D62*
D03*
X3073669Y-568543D02*
G54D68*
D03*
X3098561Y-568545D02*
G54D58*
D03*
X3098562Y-543649D02*
G54D58*
D03*
X3073669Y-443809D02*
G54D68*
D03*
X3048521Y-468712D02*
G54D68*
D03*
X3173500Y-468456D02*
G54D58*
D03*
X3148353Y-443556D02*
G54D58*
D03*
X3098561Y-443556D02*
G54D58*
D03*
X3073414Y-468456D02*
G54D58*
D03*
X3783878Y-215183D02*
G54D69*
D03*
X3885220Y-339130D02*
G54D70*
D03*
X3721898Y-459570D02*
G54D71*
D03*
X4012513Y-357953D02*
G54D72*
D03*
X3707664Y-357953D02*
G54D71*
D03*
X3891838Y-570833D02*
G54D72*
D03*
X3809282Y-215184D02*
G54D73*
D03*
X3834684Y-215184D02*
G54D74*
D03*
X3860089Y-215184D02*
G54D73*
D03*
X4007690Y-459569D02*
G54D72*
D03*
X2829625Y-466727D02*
G54D58*
D03*
X2996015Y-451493D02*
G54D59*
D03*
X2857311Y-466727D02*
G54D58*
D03*
X2884745Y-466727D02*
G54D58*
D03*
X2912447Y-466727D02*
G54D58*
D03*
X2843343Y-438278D02*
G54D60*
D03*
X2746046Y-451493D02*
G54D59*
D03*
X2926410Y-438278D02*
G54D60*
D03*
X2898718Y-438278D02*
G54D60*
D03*
X2871032Y-438278D02*
G54D60*
D03*
G36*
X2806151Y-447778D02*
X2806151Y-428778D01*
X2825151Y-428778D01*
X2825151Y-447778D01*
X2806151Y-447778D01*
G37*
X106759Y-274638D02*
G54D75*
D03*
X3363686Y-517051D02*
G54D76*
D03*
X3283408Y-546721D02*
G54D69*
D03*
X3262314Y-546721D02*
G54D73*
D03*
X3262314Y-572127D02*
G54D73*
D03*
X3296356Y-509054D02*
G54D76*
D03*
X3309316Y-546721D02*
G54D69*
D03*
X3330398Y-546721D02*
G54D69*
D03*
X3330398Y-572127D02*
G54D69*
D03*
X3229038Y-517051D02*
G54D76*
D03*
X3305248Y-572127D02*
G54D74*
D03*
X3287466Y-572127D02*
G54D73*
D03*
X1997728Y-531416D02*
G54D64*
D03*
X1897765Y-531416D02*
G54D64*
D03*
X1877776Y-531416D02*
G54D65*
D03*
X2017716Y-531416D02*
G54D65*
D03*
X2037713Y-531416D02*
G54D65*
D03*
X2057707Y-531416D02*
G54D65*
D03*
X1917753Y-531416D02*
G54D65*
D03*
X1937748Y-531416D02*
G54D65*
D03*
X1957743Y-531416D02*
G54D65*
D03*
X1977739Y-531416D02*
G54D65*
D03*
X1614854Y-551688D02*
G54D65*
D03*
X1818080Y-551688D02*
G54D65*
D03*
X1792681Y-551688D02*
G54D65*
D03*
X1767272Y-551688D02*
G54D65*
D03*
X1779976Y-531623D02*
G54D65*
D03*
X1805382Y-531623D02*
G54D65*
D03*
X1754574Y-577099D02*
G54D65*
D03*
X1754574Y-531622D02*
G54D65*
D03*
X1538642Y-551688D02*
G54D65*
D03*
X1513242Y-551688D02*
G54D65*
D03*
X1525936Y-577099D02*
G54D65*
D03*
X1779976Y-577099D02*
G54D65*
D03*
X1805381Y-577099D02*
G54D65*
D03*
X1627552Y-531623D02*
G54D65*
D03*
X1652964Y-531623D02*
G54D65*
D03*
X1678360Y-531623D02*
G54D65*
D03*
X1703771Y-531623D02*
G54D65*
D03*
X1729168Y-531623D02*
G54D65*
D03*
X1551347Y-531623D02*
G54D65*
D03*
X1576742Y-531623D02*
G54D65*
D03*
X1602156Y-531623D02*
G54D65*
D03*
X1525936Y-531623D02*
G54D65*
D03*
X1703772Y-577099D02*
G54D65*
D03*
X1729168Y-577099D02*
G54D65*
D03*
X1741875Y-551688D02*
G54D65*
D03*
X1691066Y-551688D02*
G54D65*
D03*
X1716464Y-551688D02*
G54D65*
D03*
X1678360Y-577099D02*
G54D65*
D03*
X1627551Y-577099D02*
G54D65*
D03*
X1652964Y-577099D02*
G54D65*
D03*
X1640258Y-551688D02*
G54D65*
D03*
X1665662Y-551688D02*
G54D65*
D03*
X1602156Y-577099D02*
G54D65*
D03*
X1576742Y-577099D02*
G54D65*
D03*
X1551348Y-577099D02*
G54D65*
D03*
X1564052Y-551688D02*
G54D65*
D03*
X1589450Y-551688D02*
G54D65*
D03*
G36*
X1492938Y-539223D02*
X1492938Y-524023D01*
X1508138Y-524023D01*
X1508138Y-539223D01*
X1492938Y-539223D01*
G37*
G36*
X1492937Y-584699D02*
X1492937Y-569499D01*
X1508137Y-569499D01*
X1508137Y-584699D01*
X1492937Y-584699D01*
G37*
X1373754Y-518414D02*
G54D77*
D03*
X1373754Y-533298D02*
G54D77*
D03*
X1369949Y-556808D02*
G54D77*
D03*
X1369922Y-541608D02*
G54D78*
D03*
X1366443Y-518414D02*
G54D79*
D03*
X1366341Y-533532D02*
G54D77*
D03*
X1354957Y-556808D02*
G54D77*
D03*
X1384936Y-556808D02*
G54D79*
D03*
X2172253Y-526490D02*
G54D80*
D03*
X2134660Y-566380D02*
G54D81*
D03*
X2097061Y-526490D02*
G54D80*
D03*
X2276631Y-526490D02*
G54D80*
D03*
X2239038Y-566380D02*
G54D81*
D03*
X2201439Y-526490D02*
G54D80*
D03*
X2381008Y-526490D02*
G54D80*
D03*
X2343414Y-566380D02*
G54D81*
D03*
X2305816Y-526490D02*
G54D80*
D03*
G36*
X1409705Y-548368D02*
X1422395Y-548368D01*
X1422396Y-563608D01*
X1409706Y-563608D01*
X1409705Y-548368D01*
G37*
X1431040Y-555988D02*
G54D78*
D03*
G36*
X1439676Y-548368D02*
X1452386Y-548368D01*
X1452387Y-563608D01*
X1439677Y-563608D01*
X1439676Y-548368D01*
G37*
X1427428Y-532712D02*
G54D77*
D03*
X1431010Y-540802D02*
G54D77*
D03*
X1434848Y-532493D02*
G54D79*
D03*
G36*
X1421181Y-509972D02*
X1433891Y-509971D01*
X1433892Y-525231D01*
X1421182Y-525232D01*
X1421181Y-509972D01*
G37*
X1434848Y-517601D02*
G54D82*
D03*
G36*
X1317034Y-548708D02*
X1329744Y-548708D01*
X1329744Y-563958D01*
X1317034Y-563958D01*
X1317034Y-548708D01*
G37*
X1293416Y-556333D02*
G54D83*
D03*
X1308402Y-556333D02*
G54D84*
D03*
G36*
X1298444Y-525439D02*
X1311154Y-525439D01*
X1311154Y-540679D01*
X1298444Y-540679D01*
X1298444Y-525439D01*
G37*
X1308382Y-541133D02*
G54D77*
D03*
X1312213Y-532831D02*
G54D85*
D03*
G36*
X1298540Y-510322D02*
X1311250Y-510322D01*
X1311250Y-525562D01*
X1298540Y-525562D01*
X1298540Y-510322D01*
G37*
G36*
X1305858Y-510322D02*
X1318568Y-510322D01*
X1318568Y-525562D01*
X1305858Y-525562D01*
X1305858Y-510322D01*
G37*
M02*
