; Drill file
; Format: 2.4 (00.0000)
M48
INCH
T01C0.0314
T02C0.0315
T03C0.0441
T04C0.062
T05C0.0714
T06C0.0756
T07C0.079
T08C0.1062
T09C0.1181
T10C0.1334
%
G05
G90
T01
X060080Y-022720
X061080Y-022720
X062080Y-022720
X063080Y-022720
X064080Y-022720
X065080Y-022720
X066080Y-022720
X067080Y-022720
X068080Y-022720
X069080Y-022720
X070080Y-022720
X071080Y-022720
X071580Y-021720
X071080Y-020930
X070580Y-021720
X070080Y-020930
X069580Y-021720
X069080Y-020930
X068580Y-021720
X068080Y-020930
X067580Y-021720
X067080Y-020930
X066580Y-021720
X066080Y-020930
X065580Y-021720
X065080Y-020930
X064580Y-021720
X064080Y-020930
X063580Y-021720
X063080Y-020930
X062580Y-021720
X062080Y-020930
X061580Y-021720
X061080Y-020930
X060580Y-021720
X060080Y-020930
X059580Y-021720
X073930Y-020920
X074720Y-020920
X075500Y-020920
X076290Y-020920
X077080Y-020920
X077860Y-020920
X078650Y-020920
X079440Y-020920
X080220Y-020920
X081010Y-020920
X128440Y-021520
X129270Y-021520
X129430Y-022520
X130130Y-022520
X131120Y-022520
X131120Y-021520
X130290Y-021520
X128440Y-022520
X134730Y-020020
X135560Y-020020
X136580Y-020020
X137410Y-020020
X137410Y-019040
X134730Y-019040
X148970Y-008470
X149970Y-008470
X150970Y-008470
X151970Y-008470
X153780Y-015380
X154780Y-015380
X155780Y-015380
X156780Y-015380
T02
X059080Y-022720
X059080Y-020930
X071590Y-017560
X072590Y-017550
X073590Y-017550
X074590Y-017550
X075590Y-017560
X076590Y-017550
X077590Y-017550
X078590Y-017550
X079590Y-017560
X080590Y-017550
X081590Y-017550
X082590Y-017550
X083590Y-017550
X084590Y-017550
X085590Y-017550
X086590Y-017550
X087590Y-017550
X088590Y-017550
X089590Y-017550
X090590Y-017550
X091590Y-017560
X091590Y-011550
X090590Y-011550
X089590Y-011550
X088590Y-011550
X087590Y-011550
X086590Y-011550
X085590Y-011550
X084590Y-011550
X083590Y-011550
X082590Y-011550
X081590Y-011550
X080590Y-011550
X079590Y-011550
X078590Y-011550
X077590Y-011550
X076590Y-011550
X075590Y-011550
X074590Y-011550
X073590Y-011550
X072590Y-011550
X071590Y-011550
X071590Y-010040
X072590Y-010040
X073590Y-010040
X074590Y-010040
X075590Y-010040
X076590Y-010040
X077590Y-010040
X078590Y-010040
X079590Y-010040
X080590Y-010040
X081590Y-010040
X082590Y-010040
X083590Y-010040
X084590Y-010040
X085590Y-010040
X086590Y-010040
X087590Y-010040
X088590Y-010040
X089590Y-010040
X090590Y-010040
X091590Y-010040
X091590Y-004040
X090590Y-004040
X089590Y-004040
X088590Y-004040
X087590Y-004040
X086590Y-004040
X085590Y-004040
X084590Y-004040
X083590Y-004040
X082590Y-004040
X081590Y-004040
X080590Y-004040
X079590Y-004040
X078590Y-004040
X077590Y-004040
X076590Y-004040
X075590Y-004040
X074590Y-004040
X073590Y-004040
X072590Y-004040
X071590Y-004040
T03
X098920Y-018380
X100010Y-018380
X101090Y-018380
X102180Y-018380
X101640Y-017260
X100550Y-017260
X099460Y-017260
X098370Y-017260
X102730Y-017260
X110850Y-017260
X111940Y-017260
X113030Y-017260
X114120Y-017260
X115210Y-017260
X114660Y-018380
X113570Y-018380
X112490Y-018380
X111400Y-018380
X121000Y-018440
X121990Y-017460
X123950Y-017460
X124940Y-018440
X123950Y-021400
X123950Y-022380
X121990Y-022380
X121990Y-021400
X151250Y-018730
X152250Y-018730
X153250Y-018730
T04
X121010Y-022380
X122970Y-021400
X124940Y-022380
X125920Y-018450
X124930Y-017470
X121010Y-017470
X120020Y-018450
X141190Y-020870
X143190Y-020870
X143140Y-015870
X143140Y-014370
X143140Y-012870
X141240Y-012870
X141240Y-014370
X141240Y-015870
T05
X127130Y-020360
X129780Y-020040
X132430Y-020360
T06
X146530Y-018090
X145970Y-014090
X153220Y-022470
X157780Y-018090
X157970Y-014090
T07
X133420Y-021210
X136070Y-021530
X138720Y-021210
T08
X095630Y-017780
X105470Y-017780
X108110Y-017780
X117950Y-017780
T09
X004200Y-010810
T10
X152960Y-013350
M30
