%FSLAX34Y34*%
%MOMM*%
%LNSILK_BOTTOM*%
G71*
G01*
%ADD10R,2.461X2.461*%
%ADD11R,0.821X0.820*%
%ADD12R,0.821X0.820*%
%ADD13R,0.820X0.820*%
%ADD14R,0.820X0.821*%
%ADD15R,0.820X0.821*%
%ADD16R,0.821X0.821*%
%ADD17R,0.821X0.820*%
%ADD18R,0.820X0.820*%
%ADD19R,0.820X0.820*%
%ADD20R,0.821X0.820*%
%LPD*%
G36*
X1712833Y-391641D02*
X1688222Y-391641D01*
X1688222Y-367030D01*
X1712833Y-367030D01*
X1712833Y-391641D01*
G37*
X1487261Y-166070D02*
G54D10*
D03*
X1700527Y-166070D02*
G54D10*
D03*
G36*
X1680436Y-350631D02*
X1680436Y-359244D01*
X1680436Y-399427D01*
X1720634Y-399427D01*
X1720634Y-359244D01*
X1680436Y-359244D01*
X1680436Y-350631D01*
X1720634Y-350631D01*
X1729244Y-350631D01*
X1729244Y-359244D01*
X1729244Y-399427D01*
X1729244Y-408040D01*
X1720634Y-408040D01*
X1680436Y-408040D01*
X1671823Y-408040D01*
X1671823Y-399427D01*
X1671823Y-359244D01*
X1671823Y-350631D01*
X1680436Y-350631D01*
G37*
G36*
X1467170Y-137362D02*
X1507352Y-137362D01*
X1515966Y-137362D01*
X1515966Y-145981D01*
X1507352Y-145981D01*
X1467170Y-145981D01*
X1467170Y-186164D01*
X1507352Y-186164D01*
X1507352Y-145981D01*
X1515966Y-145981D01*
X1515966Y-186164D01*
X1515966Y-194774D01*
X1507352Y-194774D01*
X1467170Y-194774D01*
X1458559Y-194774D01*
X1458559Y-186164D01*
X1458559Y-145981D01*
X1458559Y-137362D01*
X1467170Y-137362D01*
G37*
G36*
X1680436Y-137362D02*
X1720634Y-137362D01*
X1729244Y-137362D01*
X1729244Y-145981D01*
X1720634Y-145981D01*
X1680436Y-145981D01*
X1680436Y-186164D01*
X1720634Y-186164D01*
X1720634Y-145981D01*
X1729244Y-145981D01*
X1729244Y-186164D01*
X1729244Y-194774D01*
X1720634Y-194774D01*
X1680436Y-194774D01*
X1671823Y-194774D01*
X1671823Y-186164D01*
X1671823Y-145981D01*
X1671823Y-137362D01*
X1680436Y-137362D01*
G37*
G36*
X1499568Y-408043D02*
X1491368Y-408043D01*
X1491368Y-399844D01*
X1499568Y-399844D01*
X1499568Y-408043D01*
G37*
X1520073Y-403943D02*
G54D11*
D03*
G36*
X1540578Y-408043D02*
X1532379Y-408043D01*
X1532379Y-399844D01*
X1540578Y-399844D01*
X1540578Y-408043D01*
G37*
X1552885Y-403943D02*
G54D11*
D03*
G36*
X1573390Y-408043D02*
X1565191Y-408043D01*
X1565191Y-399844D01*
X1573390Y-399844D01*
X1573390Y-408043D01*
G37*
G36*
X1581590Y-408043D02*
X1573390Y-408043D01*
X1573390Y-399844D01*
X1581590Y-399844D01*
X1581590Y-408043D01*
G37*
X1585696Y-403943D02*
G54D11*
D03*
G36*
X1598000Y-408043D02*
X1589801Y-408043D01*
X1589801Y-399843D01*
X1598000Y-399843D01*
X1598000Y-408043D01*
G37*
X1626705Y-403943D02*
G54D11*
D03*
G36*
X1639011Y-408043D02*
X1630812Y-408043D01*
X1630812Y-399843D01*
X1639011Y-399843D01*
X1639011Y-408043D01*
G37*
X1659516Y-403943D02*
G54D11*
D03*
G36*
X1466758Y-399844D02*
X1458559Y-399844D01*
X1458559Y-391644D01*
X1466758Y-391644D01*
X1466758Y-399844D01*
G37*
G36*
X1499568Y-399844D02*
X1491368Y-399844D01*
X1491368Y-391644D01*
X1499568Y-391644D01*
X1499568Y-399844D01*
G37*
G36*
X1507766Y-399844D02*
X1499568Y-399844D01*
X1499568Y-391644D01*
X1507766Y-391644D01*
X1507766Y-399844D01*
G37*
X1520073Y-395744D02*
G54D11*
D03*
G36*
X1532380Y-399844D02*
X1524180Y-399844D01*
X1524180Y-391644D01*
X1532380Y-391644D01*
X1532380Y-399844D01*
G37*
G36*
X1540578Y-399844D02*
X1532379Y-399844D01*
X1532379Y-391644D01*
X1540578Y-391644D01*
X1540578Y-399844D01*
G37*
G36*
X1548778Y-399844D02*
X1540578Y-399844D01*
X1540578Y-391644D01*
X1548778Y-391644D01*
X1548778Y-399844D01*
G37*
G36*
X1565191Y-399844D02*
X1556992Y-399844D01*
X1556992Y-391644D01*
X1565191Y-391644D01*
X1565191Y-399844D01*
G37*
X1585696Y-395744D02*
G54D11*
D03*
G36*
X1614401Y-399844D02*
X1606202Y-399844D01*
X1606202Y-391644D01*
X1614401Y-391644D01*
X1614401Y-399844D01*
G37*
X1626705Y-395744D02*
G54D11*
D03*
G36*
X1639011Y-399844D02*
X1630812Y-399844D01*
X1630812Y-391644D01*
X1639011Y-391644D01*
X1639011Y-399844D01*
G37*
G36*
X1655410Y-399844D02*
X1647210Y-399844D01*
X1647210Y-391644D01*
X1655410Y-391644D01*
X1655410Y-399844D01*
G37*
X1487264Y-387542D02*
G54D12*
D03*
X1503667Y-387542D02*
G54D13*
D03*
X1511866Y-387542D02*
G54D13*
D03*
X1544678Y-387542D02*
G54D13*
D03*
X1561091Y-387542D02*
G54D13*
D03*
X1577490Y-387542D02*
G54D13*
D03*
X1585696Y-387542D02*
G54D12*
D03*
X1593901Y-387542D02*
G54D13*
D03*
X1602100Y-387542D02*
G54D13*
D03*
X1626705Y-387542D02*
G54D12*
D03*
X1634912Y-387542D02*
G54D13*
D03*
X1659516Y-387542D02*
G54D12*
D03*
G36*
X1466758Y-383443D02*
X1458559Y-383443D01*
X1458559Y-375244D01*
X1466758Y-375244D01*
X1466758Y-383443D01*
G37*
G36*
X1507767Y-383443D02*
X1499567Y-383443D01*
X1499567Y-375244D01*
X1507767Y-375244D01*
X1507767Y-383443D01*
G37*
G36*
X1540578Y-383443D02*
X1532379Y-383443D01*
X1532379Y-375244D01*
X1540578Y-375244D01*
X1540578Y-383443D01*
G37*
X1552885Y-379344D02*
G54D11*
D03*
G36*
X1573390Y-383443D02*
X1565191Y-383443D01*
X1565191Y-375244D01*
X1573390Y-375244D01*
X1573390Y-383443D01*
G37*
G36*
X1598000Y-383443D02*
X1589801Y-383443D01*
X1589801Y-375244D01*
X1598000Y-375244D01*
X1598000Y-383443D01*
G37*
G36*
X1622600Y-383443D02*
X1614401Y-383443D01*
X1614401Y-375244D01*
X1622600Y-375244D01*
X1622600Y-383443D01*
G37*
G36*
X1647210Y-383443D02*
X1639011Y-383443D01*
X1639011Y-375244D01*
X1647210Y-375244D01*
X1647210Y-383443D01*
G37*
G36*
X1655410Y-383443D02*
X1647210Y-383443D01*
X1647210Y-375244D01*
X1655410Y-375244D01*
X1655410Y-383443D01*
G37*
X1659516Y-379344D02*
G54D11*
D03*
X1462659Y-371136D02*
G54D14*
D03*
X1470858Y-371136D02*
G54D14*
D03*
X1479057Y-371136D02*
G54D14*
D03*
X1495468Y-371136D02*
G54D14*
D03*
X1503667Y-371136D02*
G54D14*
D03*
X1511866Y-371136D02*
G54D14*
D03*
G36*
X1524180Y-375243D02*
X1515966Y-375243D01*
X1515966Y-367030D01*
X1524180Y-367030D01*
X1524180Y-375243D01*
G37*
X1528280Y-371136D02*
G54D14*
D03*
X1536479Y-371136D02*
G54D14*
D03*
G36*
X1556991Y-375243D02*
X1548778Y-375243D01*
X1548778Y-367030D01*
X1556991Y-367030D01*
X1556991Y-375243D01*
G37*
X1561091Y-371136D02*
G54D14*
D03*
X1569290Y-371136D02*
G54D14*
D03*
X1577490Y-371136D02*
G54D14*
D03*
G36*
X1589802Y-375243D02*
X1581590Y-375243D01*
X1581590Y-367030D01*
X1589802Y-367030D01*
X1589802Y-375243D01*
G37*
X1593901Y-371136D02*
G54D14*
D03*
X1610301Y-371136D02*
G54D14*
D03*
G36*
X1630811Y-375243D02*
X1622598Y-375243D01*
X1622598Y-367030D01*
X1630811Y-367030D01*
X1630811Y-375243D01*
G37*
X1634912Y-371136D02*
G54D14*
D03*
X1643111Y-371136D02*
G54D14*
D03*
X1651310Y-371136D02*
G54D14*
D03*
G36*
X1483156Y-367032D02*
X1474958Y-367032D01*
X1474958Y-358833D01*
X1483156Y-358833D01*
X1483156Y-367032D01*
G37*
X1487264Y-362932D02*
G54D11*
D03*
G36*
X1499568Y-367032D02*
X1491368Y-367032D01*
X1491368Y-358833D01*
X1499568Y-358833D01*
X1499568Y-367032D01*
G37*
G36*
X1532380Y-367032D02*
X1524180Y-367032D01*
X1524180Y-358833D01*
X1532380Y-358833D01*
X1532380Y-367032D01*
G37*
G36*
X1540578Y-367032D02*
X1532379Y-367032D01*
X1532379Y-358833D01*
X1540578Y-358833D01*
X1540578Y-367032D01*
G37*
G36*
X1548778Y-367032D02*
X1540578Y-367032D01*
X1540578Y-358833D01*
X1548778Y-358833D01*
X1548778Y-367032D01*
G37*
X1552885Y-362932D02*
G54D11*
D03*
G36*
X1565191Y-367032D02*
X1556992Y-367032D01*
X1556992Y-358833D01*
X1565191Y-358833D01*
X1565191Y-367032D01*
G37*
G36*
X1581590Y-367032D02*
X1573390Y-367032D01*
X1573390Y-358833D01*
X1581590Y-358833D01*
X1581590Y-367032D01*
G37*
X1585696Y-362932D02*
G54D11*
D03*
G36*
X1598000Y-367032D02*
X1589801Y-367032D01*
X1589801Y-358833D01*
X1598000Y-358833D01*
X1598000Y-367032D01*
G37*
G36*
X1606200Y-367032D02*
X1598000Y-367032D01*
X1598000Y-358833D01*
X1606200Y-358833D01*
X1606200Y-367032D01*
G37*
G36*
X1622600Y-367032D02*
X1614401Y-367032D01*
X1614401Y-358833D01*
X1622600Y-358833D01*
X1622600Y-367032D01*
G37*
G36*
X1639011Y-367032D02*
X1630812Y-367032D01*
X1630812Y-358833D01*
X1639011Y-358833D01*
X1639011Y-367032D01*
G37*
G36*
X1647210Y-367032D02*
X1639011Y-367032D01*
X1639011Y-358833D01*
X1647210Y-358833D01*
X1647210Y-367032D01*
G37*
G36*
X1655410Y-367032D02*
X1647210Y-367032D01*
X1647210Y-358833D01*
X1655410Y-358833D01*
X1655410Y-367032D01*
G37*
X1659516Y-362932D02*
G54D11*
D03*
G36*
X1474958Y-358831D02*
X1466758Y-358831D01*
X1466758Y-350631D01*
X1474958Y-350631D01*
X1474958Y-358831D01*
G37*
G36*
X1499568Y-358831D02*
X1491368Y-358831D01*
X1491368Y-350631D01*
X1499568Y-350631D01*
X1499568Y-358831D01*
G37*
G36*
X1515966Y-358831D02*
X1507766Y-358831D01*
X1507766Y-350631D01*
X1515966Y-350631D01*
X1515966Y-358831D01*
G37*
G36*
X1532380Y-358831D02*
X1524180Y-358831D01*
X1524180Y-350631D01*
X1532380Y-350631D01*
X1532380Y-358831D01*
G37*
G36*
X1540578Y-358831D02*
X1532379Y-358831D01*
X1532379Y-350631D01*
X1540578Y-350631D01*
X1540578Y-358831D01*
G37*
G36*
X1565191Y-358831D02*
X1556992Y-358831D01*
X1556992Y-350631D01*
X1565191Y-350631D01*
X1565191Y-358831D01*
G37*
G36*
X1573390Y-358830D02*
X1565191Y-358830D01*
X1565191Y-350631D01*
X1573390Y-350631D01*
X1573390Y-358830D01*
G37*
G36*
X1581590Y-358830D02*
X1573390Y-358830D01*
X1573390Y-350631D01*
X1581590Y-350631D01*
X1581590Y-358830D01*
G37*
X1585696Y-354731D02*
G54D11*
D03*
G36*
X1614401Y-358831D02*
X1606202Y-358831D01*
X1606202Y-350631D01*
X1614401Y-350631D01*
X1614401Y-358831D01*
G37*
G36*
X1622600Y-358831D02*
X1614401Y-358831D01*
X1614401Y-350631D01*
X1622600Y-350631D01*
X1622600Y-358831D01*
G37*
G36*
X1639011Y-358831D02*
X1630812Y-358831D01*
X1630812Y-350631D01*
X1639011Y-350631D01*
X1639011Y-358831D01*
G37*
G36*
X1655410Y-358831D02*
X1647210Y-358831D01*
X1647210Y-350631D01*
X1655410Y-350631D01*
X1655410Y-358831D01*
G37*
X1659516Y-354731D02*
G54D11*
D03*
X1470858Y-346532D02*
G54D13*
D03*
X1487264Y-346532D02*
G54D12*
D03*
X1495468Y-346532D02*
G54D13*
D03*
X1528280Y-346532D02*
G54D13*
D03*
X1552885Y-346532D02*
G54D12*
D03*
X1561091Y-346532D02*
G54D13*
D03*
X1569290Y-346532D02*
G54D13*
D03*
X1577490Y-346532D02*
G54D13*
D03*
X1593901Y-346532D02*
G54D13*
D03*
X1602100Y-346532D02*
G54D13*
D03*
X1610301Y-346532D02*
G54D13*
D03*
X1626705Y-346532D02*
G54D12*
D03*
X1643111Y-346532D02*
G54D13*
D03*
X1659516Y-346532D02*
G54D12*
D03*
X1479057Y-338325D02*
G54D14*
D03*
X1495468Y-338325D02*
G54D14*
D03*
X1503667Y-338325D02*
G54D14*
D03*
X1511866Y-338325D02*
G54D14*
D03*
G36*
X1524180Y-342431D02*
X1515966Y-342431D01*
X1515966Y-334219D01*
X1524180Y-334219D01*
X1524180Y-342431D01*
G37*
X1528280Y-338325D02*
G54D14*
D03*
X1544678Y-338325D02*
G54D14*
D03*
X1569290Y-338325D02*
G54D14*
D03*
G36*
X1589802Y-342431D02*
X1581590Y-342431D01*
X1581590Y-334219D01*
X1589802Y-334219D01*
X1589802Y-342431D01*
G37*
X1610301Y-338325D02*
G54D14*
D03*
G36*
X1630811Y-342431D02*
X1622598Y-342431D01*
X1622598Y-334219D01*
X1630811Y-334219D01*
X1630811Y-342431D01*
G37*
X1643111Y-338325D02*
G54D14*
D03*
X1651310Y-338325D02*
G54D14*
D03*
X1667723Y-338325D02*
G54D14*
D03*
X1675922Y-338325D02*
G54D14*
D03*
G36*
X1696434Y-342431D02*
X1688222Y-342431D01*
X1688222Y-334219D01*
X1696434Y-334219D01*
X1696434Y-342431D01*
G37*
G36*
X1729246Y-342431D02*
X1721034Y-342431D01*
X1721034Y-334219D01*
X1729246Y-334219D01*
X1729246Y-342431D01*
G37*
X1487264Y-330118D02*
G54D11*
D03*
G36*
X1499568Y-334218D02*
X1491368Y-334218D01*
X1491368Y-326018D01*
X1499568Y-326018D01*
X1499568Y-334218D01*
G37*
G36*
X1515966Y-334218D02*
X1507766Y-334218D01*
X1507766Y-326018D01*
X1515966Y-326018D01*
X1515966Y-334218D01*
G37*
G36*
X1532380Y-334218D02*
X1524180Y-334218D01*
X1524180Y-326018D01*
X1532380Y-326018D01*
X1532380Y-334218D01*
G37*
G36*
X1565191Y-334218D02*
X1556992Y-334218D01*
X1556992Y-326018D01*
X1565191Y-326018D01*
X1565191Y-334218D01*
G37*
G36*
X1606200Y-334218D02*
X1598000Y-334218D01*
X1598000Y-326018D01*
X1606200Y-326018D01*
X1606200Y-334218D01*
G37*
G36*
X1622600Y-334218D02*
X1614401Y-334218D01*
X1614401Y-326018D01*
X1622600Y-326018D01*
X1622600Y-334218D01*
G37*
G36*
X1655410Y-334218D02*
X1647210Y-334218D01*
X1647210Y-326018D01*
X1655410Y-326018D01*
X1655410Y-334218D01*
G37*
X1659516Y-330118D02*
G54D11*
D03*
G36*
X1704634Y-334218D02*
X1696435Y-334218D01*
X1696435Y-326018D01*
X1704634Y-326018D01*
X1704634Y-334218D01*
G37*
G36*
X1712834Y-334218D02*
X1704634Y-334218D01*
X1704634Y-326018D01*
X1712834Y-326018D01*
X1712834Y-334218D01*
G37*
G36*
X1721033Y-334218D02*
X1712834Y-334218D01*
X1712834Y-326018D01*
X1721033Y-326018D01*
X1721033Y-334218D01*
G37*
G36*
X1466758Y-326019D02*
X1458559Y-326019D01*
X1458559Y-317819D01*
X1466758Y-317819D01*
X1466758Y-326019D01*
G37*
G36*
X1474958Y-326019D02*
X1466758Y-326019D01*
X1466758Y-317819D01*
X1474958Y-317819D01*
X1474958Y-326019D01*
G37*
X1487264Y-321919D02*
G54D11*
D03*
G36*
X1499568Y-326019D02*
X1491368Y-326019D01*
X1491368Y-317819D01*
X1499568Y-317819D01*
X1499568Y-326019D01*
G37*
G36*
X1515966Y-326019D02*
X1507766Y-326019D01*
X1507766Y-317819D01*
X1515966Y-317819D01*
X1515966Y-326019D01*
G37*
X1520073Y-321919D02*
G54D11*
D03*
G36*
X1532380Y-326019D02*
X1524180Y-326019D01*
X1524180Y-317819D01*
X1532380Y-317819D01*
X1532380Y-326019D01*
G37*
G36*
X1540578Y-326019D02*
X1532379Y-326019D01*
X1532379Y-317819D01*
X1540578Y-317819D01*
X1540578Y-326019D01*
G37*
X1552885Y-321919D02*
G54D11*
D03*
G36*
X1565191Y-326018D02*
X1556992Y-326018D01*
X1556992Y-317819D01*
X1565191Y-317819D01*
X1565191Y-326018D01*
G37*
G36*
X1573390Y-326018D02*
X1565191Y-326018D01*
X1565191Y-317819D01*
X1573390Y-317819D01*
X1573390Y-326018D01*
G37*
G36*
X1581590Y-326018D02*
X1573390Y-326018D01*
X1573390Y-317819D01*
X1581590Y-317819D01*
X1581590Y-326018D01*
G37*
G36*
X1606200Y-326018D02*
X1598000Y-326018D01*
X1598000Y-317819D01*
X1606200Y-317819D01*
X1606200Y-326018D01*
G37*
G36*
X1614401Y-326018D02*
X1606202Y-326018D01*
X1606202Y-317819D01*
X1614401Y-317819D01*
X1614401Y-326018D01*
G37*
G36*
X1622600Y-326019D02*
X1614401Y-326019D01*
X1614401Y-317819D01*
X1622600Y-317819D01*
X1622600Y-326019D01*
G37*
X1626705Y-321919D02*
G54D11*
D03*
G36*
X1639011Y-326019D02*
X1630812Y-326019D01*
X1630812Y-317819D01*
X1639011Y-317819D01*
X1639011Y-326019D01*
G37*
G36*
X1647210Y-326019D02*
X1639011Y-326019D01*
X1639011Y-317819D01*
X1647210Y-317819D01*
X1647210Y-326019D01*
G37*
G36*
X1671823Y-326019D02*
X1663624Y-326019D01*
X1663624Y-317819D01*
X1671823Y-317819D01*
X1671823Y-326019D01*
G37*
G36*
X1680022Y-326018D02*
X1671822Y-326018D01*
X1671822Y-317819D01*
X1680022Y-317819D01*
X1680022Y-326018D01*
G37*
G36*
X1688221Y-326019D02*
X1680022Y-326019D01*
X1680022Y-317819D01*
X1688221Y-317819D01*
X1688221Y-326019D01*
G37*
G36*
X1712834Y-326019D02*
X1704634Y-326019D01*
X1704634Y-317819D01*
X1712834Y-317819D01*
X1712834Y-326019D01*
G37*
G36*
X1466758Y-317822D02*
X1458559Y-317822D01*
X1458559Y-309623D01*
X1466758Y-309623D01*
X1466758Y-317822D01*
G37*
G36*
X1483156Y-317822D02*
X1474958Y-317822D01*
X1474958Y-309623D01*
X1483156Y-309623D01*
X1483156Y-317822D01*
G37*
G36*
X1507766Y-317822D02*
X1499568Y-317822D01*
X1499568Y-309623D01*
X1507766Y-309623D01*
X1507766Y-317822D01*
G37*
G36*
X1515966Y-317822D02*
X1507766Y-317822D01*
X1507766Y-309623D01*
X1515966Y-309623D01*
X1515966Y-317822D01*
G37*
G36*
X1540578Y-317822D02*
X1532379Y-317822D01*
X1532379Y-309623D01*
X1540578Y-309623D01*
X1540578Y-317822D01*
G37*
X1552885Y-313722D02*
G54D11*
D03*
G36*
X1565191Y-317822D02*
X1556992Y-317822D01*
X1556992Y-309623D01*
X1565191Y-309623D01*
X1565191Y-317822D01*
G37*
G36*
X1598000Y-317822D02*
X1589801Y-317822D01*
X1589801Y-309623D01*
X1598000Y-309623D01*
X1598000Y-317822D01*
G37*
G36*
X1606200Y-317822D02*
X1598000Y-317822D01*
X1598000Y-309623D01*
X1606200Y-309623D01*
X1606200Y-317822D01*
G37*
G36*
X1647210Y-317822D02*
X1639011Y-317822D01*
X1639011Y-309623D01*
X1647210Y-309623D01*
X1647210Y-317822D01*
G37*
G36*
X1655410Y-317822D02*
X1647210Y-317822D01*
X1647210Y-309623D01*
X1655410Y-309623D01*
X1655410Y-317822D01*
G37*
X1659516Y-313722D02*
G54D11*
D03*
G36*
X1671823Y-317822D02*
X1663624Y-317822D01*
X1663624Y-309623D01*
X1671823Y-309623D01*
X1671823Y-317822D01*
G37*
X1692328Y-313722D02*
G54D11*
D03*
G36*
X1704634Y-317822D02*
X1696435Y-317822D01*
X1696435Y-309623D01*
X1704634Y-309623D01*
X1704634Y-317822D01*
G37*
G36*
X1712834Y-317822D02*
X1704634Y-317822D01*
X1704634Y-309623D01*
X1712834Y-309623D01*
X1712834Y-317822D01*
G37*
X1725140Y-313722D02*
G54D11*
D03*
X1470858Y-305513D02*
G54D15*
D03*
X1479057Y-305513D02*
G54D15*
D03*
X1487264Y-305513D02*
G54D16*
D03*
X1528280Y-305513D02*
G54D15*
D03*
X1544678Y-305513D02*
G54D15*
D03*
X1552885Y-305513D02*
G54D16*
D03*
X1593901Y-305513D02*
G54D15*
D03*
X1618500Y-305513D02*
G54D15*
D03*
X1643111Y-305513D02*
G54D15*
D03*
X1651310Y-305513D02*
G54D15*
D03*
X1659516Y-305513D02*
G54D16*
D03*
X1667723Y-305513D02*
G54D15*
D03*
X1675922Y-305513D02*
G54D15*
D03*
X1708734Y-305513D02*
G54D15*
D03*
X1716933Y-305513D02*
G54D15*
D03*
X1725140Y-305513D02*
G54D16*
D03*
G36*
X1474958Y-301409D02*
X1466758Y-301409D01*
X1466758Y-293209D01*
X1474958Y-293209D01*
X1474958Y-301409D01*
G37*
G36*
X1499568Y-301409D02*
X1491368Y-301409D01*
X1491368Y-293209D01*
X1499568Y-293209D01*
X1499568Y-301409D01*
G37*
G36*
X1515966Y-301409D02*
X1507766Y-301409D01*
X1507766Y-293209D01*
X1515966Y-293209D01*
X1515966Y-301409D01*
G37*
X1520073Y-297309D02*
G54D11*
D03*
G36*
X1532380Y-301408D02*
X1524180Y-301408D01*
X1524180Y-293209D01*
X1532380Y-293209D01*
X1532380Y-301408D01*
G37*
G36*
X1540578Y-301408D02*
X1532379Y-301408D01*
X1532379Y-293209D01*
X1540578Y-293209D01*
X1540578Y-301408D01*
G37*
G36*
X1573390Y-301408D02*
X1565191Y-301408D01*
X1565191Y-293209D01*
X1573390Y-293209D01*
X1573390Y-301408D01*
G37*
G36*
X1581590Y-301408D02*
X1573390Y-301408D01*
X1573390Y-293209D01*
X1581590Y-293209D01*
X1581590Y-301408D01*
G37*
X1585696Y-297309D02*
G54D11*
D03*
G36*
X1614401Y-301409D02*
X1606202Y-301409D01*
X1606202Y-293209D01*
X1614401Y-293209D01*
X1614401Y-301409D01*
G37*
X1626705Y-297309D02*
G54D11*
D03*
G36*
X1647210Y-301409D02*
X1639011Y-301409D01*
X1639011Y-293209D01*
X1647210Y-293209D01*
X1647210Y-301409D01*
G37*
G36*
X1671823Y-301409D02*
X1663624Y-301409D01*
X1663624Y-293209D01*
X1671823Y-293209D01*
X1671823Y-301409D01*
G37*
G36*
X1688221Y-301409D02*
X1680022Y-301409D01*
X1680022Y-293209D01*
X1688221Y-293209D01*
X1688221Y-301409D01*
G37*
G36*
X1704634Y-301409D02*
X1696435Y-301409D01*
X1696435Y-293209D01*
X1704634Y-293209D01*
X1704634Y-301409D01*
G37*
G36*
X1721033Y-301409D02*
X1712834Y-301409D01*
X1712834Y-293209D01*
X1721033Y-293209D01*
X1721033Y-301409D01*
G37*
G36*
X1483156Y-293210D02*
X1474958Y-293210D01*
X1474958Y-285010D01*
X1483156Y-285010D01*
X1483156Y-293210D01*
G37*
G36*
X1499568Y-285010D02*
X1491368Y-285010D01*
X1491368Y-293210D01*
X1499568Y-293210D01*
X1499568Y-285010D01*
G37*
G36*
X1507766Y-293210D02*
X1499568Y-293210D01*
X1499568Y-285010D01*
X1507766Y-285010D01*
X1507766Y-293210D01*
G37*
X1520073Y-289110D02*
G54D11*
D03*
G36*
X1532380Y-293210D02*
X1524180Y-293210D01*
X1524180Y-285010D01*
X1532380Y-285010D01*
X1532380Y-293210D01*
G37*
G36*
X1548778Y-293210D02*
X1540578Y-293210D01*
X1540578Y-285010D01*
X1548778Y-285010D01*
X1548778Y-293210D01*
G37*
G36*
X1565191Y-293210D02*
X1556992Y-293210D01*
X1556992Y-285010D01*
X1565191Y-285010D01*
X1565191Y-293210D01*
G37*
G36*
X1581590Y-293210D02*
X1573390Y-293210D01*
X1573390Y-285010D01*
X1581590Y-285010D01*
X1581590Y-293210D01*
G37*
G36*
X1598000Y-293210D02*
X1589801Y-293210D01*
X1589801Y-285010D01*
X1598000Y-285010D01*
X1598000Y-293210D01*
G37*
G36*
X1606200Y-293210D02*
X1598000Y-293210D01*
X1598000Y-285010D01*
X1606200Y-285010D01*
X1606200Y-293210D01*
G37*
G36*
X1614401Y-293210D02*
X1606202Y-293210D01*
X1606202Y-285010D01*
X1614401Y-285010D01*
X1614401Y-293210D01*
G37*
G36*
X1639011Y-293210D02*
X1630812Y-293210D01*
X1630812Y-285010D01*
X1639011Y-285010D01*
X1639011Y-293210D01*
G37*
G36*
X1647210Y-293210D02*
X1639011Y-293210D01*
X1639011Y-285010D01*
X1647210Y-285010D01*
X1647210Y-293210D01*
G37*
G36*
X1655410Y-293210D02*
X1647210Y-293210D01*
X1647210Y-285010D01*
X1655410Y-285010D01*
X1655410Y-293210D01*
G37*
G36*
X1680022Y-293210D02*
X1671822Y-293210D01*
X1671822Y-285010D01*
X1680022Y-285010D01*
X1680022Y-293210D01*
G37*
G36*
X1704634Y-293210D02*
X1696435Y-293210D01*
X1696435Y-285010D01*
X1704634Y-285010D01*
X1704634Y-293210D01*
G37*
G36*
X1712834Y-293210D02*
X1704634Y-293210D01*
X1704634Y-285010D01*
X1712834Y-285010D01*
X1712834Y-293210D01*
G37*
G36*
X1721033Y-293210D02*
X1712834Y-293210D01*
X1712834Y-285010D01*
X1721033Y-285010D01*
X1721033Y-293210D01*
G37*
X1725140Y-289110D02*
G54D11*
D03*
G36*
X1466758Y-285008D02*
X1458559Y-285008D01*
X1458559Y-276808D01*
X1466758Y-276808D01*
X1466758Y-285008D01*
G37*
X1487264Y-280908D02*
G54D11*
D03*
G36*
X1499568Y-285008D02*
X1491368Y-285008D01*
X1491368Y-276808D01*
X1499568Y-276808D01*
X1499568Y-285008D01*
G37*
G36*
X1515966Y-285008D02*
X1507766Y-285008D01*
X1507766Y-276808D01*
X1515966Y-276808D01*
X1515966Y-285008D01*
G37*
X1520073Y-280908D02*
G54D11*
D03*
G36*
X1532380Y-285008D02*
X1524180Y-285008D01*
X1524180Y-276808D01*
X1532380Y-276808D01*
X1532380Y-285008D01*
G37*
G36*
X1540578Y-276808D02*
X1532379Y-276808D01*
X1532379Y-285008D01*
X1540578Y-285008D01*
X1540578Y-276808D01*
G37*
G36*
X1548778Y-276808D02*
X1540578Y-276808D01*
X1540578Y-285008D01*
X1548778Y-285008D01*
X1548778Y-276808D01*
G37*
G36*
X1565191Y-285008D02*
X1556992Y-285008D01*
X1556992Y-276808D01*
X1565191Y-276808D01*
X1565191Y-285008D01*
G37*
G36*
X1606200Y-285008D02*
X1598000Y-285008D01*
X1598000Y-276808D01*
X1606200Y-276808D01*
X1606200Y-285008D01*
G37*
G36*
X1614401Y-285008D02*
X1606202Y-285008D01*
X1606202Y-276808D01*
X1614401Y-276808D01*
X1614401Y-285008D01*
G37*
X1626705Y-280908D02*
G54D11*
D03*
G36*
X1639011Y-285008D02*
X1630812Y-285008D01*
X1630812Y-276808D01*
X1639011Y-276808D01*
X1639011Y-285008D01*
G37*
X1659516Y-280908D02*
G54D11*
D03*
G36*
X1671823Y-285008D02*
X1663624Y-285008D01*
X1663624Y-276808D01*
X1671823Y-276808D01*
X1671823Y-285008D01*
G37*
G36*
X1688221Y-285008D02*
X1680022Y-285008D01*
X1680022Y-276808D01*
X1688221Y-276808D01*
X1688221Y-285008D01*
G37*
G36*
X1704634Y-285008D02*
X1696435Y-285008D01*
X1696435Y-276808D01*
X1704634Y-276808D01*
X1704634Y-285008D01*
G37*
X1495468Y-272704D02*
G54D14*
D03*
X1511866Y-272704D02*
G54D14*
D03*
G36*
X1524180Y-276810D02*
X1515966Y-276810D01*
X1515966Y-268598D01*
X1524180Y-268598D01*
X1524180Y-276810D01*
G37*
X1536479Y-272704D02*
G54D14*
D03*
X1544678Y-272704D02*
G54D14*
D03*
G36*
X1556991Y-276810D02*
X1548778Y-276810D01*
X1548778Y-268598D01*
X1556991Y-268598D01*
X1556991Y-276810D01*
G37*
X1561091Y-272704D02*
G54D14*
D03*
X1577490Y-272704D02*
G54D14*
D03*
G36*
X1630811Y-276810D02*
X1622598Y-276810D01*
X1622598Y-268598D01*
X1630811Y-268598D01*
X1630811Y-276810D01*
G37*
X1634912Y-272704D02*
G54D14*
D03*
X1643111Y-272704D02*
G54D14*
D03*
X1651310Y-272704D02*
G54D14*
D03*
G36*
X1663623Y-276810D02*
X1655410Y-276810D01*
X1655410Y-268598D01*
X1663623Y-268598D01*
X1663623Y-276810D01*
G37*
X1675922Y-272704D02*
G54D14*
D03*
G36*
X1696434Y-276810D02*
X1688222Y-276810D01*
X1688222Y-268598D01*
X1696434Y-268598D01*
X1696434Y-276810D01*
G37*
X1700535Y-272704D02*
G54D14*
D03*
X1716933Y-272704D02*
G54D14*
D03*
G36*
X1729246Y-276810D02*
X1721034Y-276810D01*
X1721034Y-268598D01*
X1729246Y-268598D01*
X1729246Y-276810D01*
G37*
X1479057Y-264498D02*
G54D13*
D03*
X1487264Y-264498D02*
G54D12*
D03*
X1495468Y-264498D02*
G54D13*
D03*
X1511866Y-264498D02*
G54D13*
D03*
X1520073Y-264498D02*
G54D12*
D03*
X1528280Y-264498D02*
G54D13*
D03*
X1536479Y-264498D02*
G54D13*
D03*
X1552885Y-264498D02*
G54D12*
D03*
X1577490Y-264498D02*
G54D13*
D03*
X1602100Y-264498D02*
G54D13*
D03*
X1618500Y-264498D02*
G54D13*
D03*
X1626705Y-264498D02*
G54D12*
D03*
X1634912Y-264498D02*
G54D13*
D03*
X1643111Y-264498D02*
G54D13*
D03*
X1651310Y-264498D02*
G54D13*
D03*
X1684121Y-264498D02*
G54D13*
D03*
X1708734Y-264498D02*
G54D13*
D03*
X1716933Y-264498D02*
G54D13*
D03*
X1725140Y-264498D02*
G54D12*
D03*
X1487264Y-256298D02*
G54D11*
D03*
G36*
X1499568Y-260398D02*
X1491368Y-260398D01*
X1491368Y-252198D01*
X1499568Y-252198D01*
X1499568Y-260398D01*
G37*
G36*
X1507766Y-260398D02*
X1499568Y-260398D01*
X1499568Y-252198D01*
X1507766Y-252198D01*
X1507766Y-260398D01*
G37*
G36*
X1515966Y-260398D02*
X1507766Y-260398D01*
X1507766Y-252198D01*
X1515966Y-252198D01*
X1515966Y-260398D01*
G37*
X1552885Y-256298D02*
G54D11*
D03*
G36*
X1565191Y-260398D02*
X1556992Y-260398D01*
X1556992Y-252198D01*
X1565191Y-252198D01*
X1565191Y-260398D01*
G37*
G36*
X1573390Y-260398D02*
X1565191Y-260398D01*
X1565191Y-252198D01*
X1573390Y-252198D01*
X1573390Y-260398D01*
G37*
X1585696Y-256298D02*
G54D11*
D03*
G36*
X1614401Y-260398D02*
X1606202Y-260398D01*
X1606202Y-252198D01*
X1614401Y-252198D01*
X1614401Y-260398D01*
G37*
G36*
X1622600Y-260398D02*
X1614401Y-260398D01*
X1614401Y-252198D01*
X1622600Y-252198D01*
X1622600Y-260398D01*
G37*
G36*
X1680022Y-260398D02*
X1671822Y-260398D01*
X1671822Y-252198D01*
X1680022Y-252198D01*
X1680022Y-260398D01*
G37*
G36*
X1688221Y-260398D02*
X1680022Y-260398D01*
X1680022Y-252198D01*
X1688221Y-252198D01*
X1688221Y-260398D01*
G37*
G36*
X1704634Y-260398D02*
X1696435Y-260398D01*
X1696435Y-252198D01*
X1704634Y-252198D01*
X1704634Y-260398D01*
G37*
G36*
X1712834Y-260398D02*
X1704634Y-260398D01*
X1704634Y-252198D01*
X1712834Y-252198D01*
X1712834Y-260398D01*
G37*
G36*
X1474958Y-252199D02*
X1466758Y-252199D01*
X1466758Y-243999D01*
X1474958Y-243999D01*
X1474958Y-252199D01*
G37*
G36*
X1483157Y-252198D02*
X1474957Y-252198D01*
X1474957Y-243999D01*
X1483157Y-243999D01*
X1483157Y-252198D01*
G37*
G36*
X1507766Y-252199D02*
X1499568Y-252199D01*
X1499568Y-243999D01*
X1507766Y-243999D01*
X1507766Y-252199D01*
G37*
X1520073Y-248099D02*
G54D11*
D03*
G36*
X1548778Y-252199D02*
X1540578Y-252199D01*
X1540578Y-243999D01*
X1548778Y-243999D01*
X1548778Y-252199D01*
G37*
X1552885Y-248099D02*
G54D11*
D03*
G36*
X1565191Y-252199D02*
X1556992Y-252199D01*
X1556992Y-243999D01*
X1565191Y-243999D01*
X1565191Y-252199D01*
G37*
X1585696Y-248099D02*
G54D11*
D03*
G36*
X1614401Y-252199D02*
X1606202Y-252199D01*
X1606202Y-243999D01*
X1614401Y-243999D01*
X1614401Y-252199D01*
G37*
G36*
X1622600Y-252199D02*
X1614401Y-252199D01*
X1614401Y-243999D01*
X1622600Y-243999D01*
X1622600Y-252199D01*
G37*
X1626705Y-248099D02*
G54D11*
D03*
G36*
X1639011Y-252199D02*
X1630812Y-252199D01*
X1630812Y-243999D01*
X1639011Y-243999D01*
X1639011Y-252199D01*
G37*
G36*
X1647210Y-252199D02*
X1639011Y-252199D01*
X1639011Y-243999D01*
X1647210Y-243999D01*
X1647210Y-252199D01*
G37*
G36*
X1688221Y-252199D02*
X1680022Y-252199D01*
X1680022Y-243999D01*
X1688221Y-243999D01*
X1688221Y-252199D01*
G37*
X1692328Y-248099D02*
G54D11*
D03*
G36*
X1704634Y-252199D02*
X1696435Y-252199D01*
X1696435Y-243999D01*
X1704634Y-243999D01*
X1704634Y-252199D01*
G37*
X1487264Y-239900D02*
G54D17*
D03*
X1495468Y-239900D02*
G54D18*
D03*
X1520073Y-239900D02*
G54D17*
D03*
X1528280Y-239900D02*
G54D18*
D03*
X1536479Y-239900D02*
G54D18*
D03*
X1544678Y-239900D02*
G54D18*
D03*
X1561091Y-239900D02*
G54D18*
D03*
X1593901Y-239900D02*
G54D18*
D03*
X1610301Y-239900D02*
G54D18*
D03*
X1643111Y-239900D02*
G54D18*
D03*
X1659516Y-239900D02*
G54D17*
D03*
X1675922Y-239900D02*
G54D18*
D03*
X1684121Y-239900D02*
G54D18*
D03*
X1692328Y-239900D02*
G54D17*
D03*
X1462659Y-231693D02*
G54D15*
D03*
X1470858Y-231693D02*
G54D15*
D03*
X1487264Y-231693D02*
G54D16*
D03*
X1503667Y-231693D02*
G54D15*
D03*
X1511866Y-231693D02*
G54D15*
D03*
X1520073Y-231693D02*
G54D16*
D03*
X1585696Y-231693D02*
G54D16*
D03*
X1593901Y-231693D02*
G54D15*
D03*
X1602100Y-231693D02*
G54D15*
D03*
X1634912Y-231693D02*
G54D15*
D03*
X1659516Y-231693D02*
G54D16*
D03*
X1684121Y-231693D02*
G54D15*
D03*
X1708734Y-231693D02*
G54D15*
D03*
X1716933Y-231693D02*
G54D15*
D03*
X1725140Y-231693D02*
G54D16*
D03*
X1462659Y-223486D02*
G54D13*
D03*
X1487264Y-223486D02*
G54D12*
D03*
X1495468Y-223486D02*
G54D13*
D03*
X1503667Y-223486D02*
G54D13*
D03*
X1511866Y-223486D02*
G54D13*
D03*
X1536479Y-223486D02*
G54D13*
D03*
X1544678Y-223486D02*
G54D13*
D03*
X1577490Y-223486D02*
G54D13*
D03*
X1593901Y-223486D02*
G54D13*
D03*
X1618500Y-223486D02*
G54D13*
D03*
X1634912Y-223486D02*
G54D13*
D03*
X1651310Y-223486D02*
G54D13*
D03*
X1667723Y-223486D02*
G54D13*
D03*
X1675922Y-223486D02*
G54D13*
D03*
X1700535Y-223486D02*
G54D13*
D03*
X1716933Y-223486D02*
G54D13*
D03*
X1725140Y-223486D02*
G54D12*
D03*
G36*
X1466758Y-219384D02*
X1458559Y-219384D01*
X1458559Y-211185D01*
X1466758Y-211185D01*
X1466758Y-219384D01*
G37*
G36*
X1483156Y-219384D02*
X1474958Y-219384D01*
X1474958Y-211185D01*
X1483156Y-211185D01*
X1483156Y-219384D01*
G37*
X1487264Y-215284D02*
G54D11*
D03*
G36*
X1507766Y-219384D02*
X1499568Y-219384D01*
X1499568Y-211185D01*
X1507766Y-211185D01*
X1507766Y-219384D01*
G37*
G36*
X1515966Y-219384D02*
X1507766Y-219384D01*
X1507766Y-211185D01*
X1515966Y-211185D01*
X1515966Y-219384D01*
G37*
G36*
X1540578Y-219384D02*
X1532379Y-219384D01*
X1532379Y-211185D01*
X1540578Y-211185D01*
X1540578Y-219384D01*
G37*
X1552885Y-215284D02*
G54D11*
D03*
G36*
X1565191Y-219384D02*
X1556992Y-219384D01*
X1556992Y-211185D01*
X1565191Y-211185D01*
X1565191Y-219384D01*
G37*
G36*
X1573390Y-219384D02*
X1565191Y-219384D01*
X1565191Y-211185D01*
X1573390Y-211185D01*
X1573390Y-219384D01*
G37*
X1585696Y-215284D02*
G54D11*
D03*
G36*
X1622600Y-219384D02*
X1614401Y-219384D01*
X1614401Y-211185D01*
X1622600Y-211185D01*
X1622600Y-219384D01*
G37*
G36*
X1655410Y-219384D02*
X1647210Y-219384D01*
X1647210Y-211185D01*
X1655410Y-211185D01*
X1655410Y-219384D01*
G37*
X1659516Y-215284D02*
G54D11*
D03*
G36*
X1671823Y-219384D02*
X1663624Y-219384D01*
X1663624Y-211185D01*
X1671823Y-211185D01*
X1671823Y-219384D01*
G37*
G36*
X1721033Y-219384D02*
X1712834Y-219384D01*
X1712834Y-211185D01*
X1721033Y-211185D01*
X1721033Y-219384D01*
G37*
X1725140Y-215284D02*
G54D11*
D03*
X1462659Y-207088D02*
G54D18*
D03*
X1470858Y-207088D02*
G54D18*
D03*
X1487264Y-207088D02*
G54D17*
D03*
X1511866Y-207088D02*
G54D18*
D03*
X1528280Y-207088D02*
G54D18*
D03*
X1536479Y-207088D02*
G54D18*
D03*
X1544678Y-207088D02*
G54D18*
D03*
X1552885Y-207088D02*
G54D17*
D03*
X1585696Y-207088D02*
G54D17*
D03*
X1593901Y-207088D02*
G54D18*
D03*
X1602100Y-207088D02*
G54D18*
D03*
X1610301Y-207088D02*
G54D18*
D03*
X1618500Y-207088D02*
G54D18*
D03*
X1634912Y-207088D02*
G54D18*
D03*
X1651310Y-207088D02*
G54D18*
D03*
X1667723Y-207088D02*
G54D18*
D03*
X1675922Y-207088D02*
G54D18*
D03*
X1684121Y-207088D02*
G54D18*
D03*
X1700535Y-207088D02*
G54D18*
D03*
X1708734Y-207088D02*
G54D18*
D03*
X1725140Y-207088D02*
G54D17*
D03*
X1528280Y-198882D02*
G54D15*
D03*
X1536479Y-198882D02*
G54D15*
D03*
X1569290Y-198882D02*
G54D15*
D03*
X1577490Y-198882D02*
G54D15*
D03*
X1585696Y-198882D02*
G54D16*
D03*
X1593901Y-198882D02*
G54D15*
D03*
X1602100Y-198882D02*
G54D15*
D03*
X1634912Y-198882D02*
G54D15*
D03*
X1643111Y-198882D02*
G54D15*
D03*
X1659516Y-198882D02*
G54D16*
D03*
G36*
X1532380Y-194777D02*
X1524180Y-194777D01*
X1524180Y-186577D01*
X1532380Y-186577D01*
X1532380Y-194777D01*
G37*
G36*
X1548778Y-194777D02*
X1540578Y-194777D01*
X1540578Y-186577D01*
X1548778Y-186577D01*
X1548778Y-194777D01*
G37*
G36*
X1565191Y-194777D02*
X1556992Y-194777D01*
X1556992Y-186577D01*
X1565191Y-186577D01*
X1565191Y-194777D01*
G37*
G36*
X1581590Y-194777D02*
X1573390Y-194777D01*
X1573390Y-186577D01*
X1581590Y-186577D01*
X1581590Y-194777D01*
G37*
G36*
X1598000Y-194777D02*
X1589801Y-194777D01*
X1589801Y-186577D01*
X1598000Y-186577D01*
X1598000Y-194777D01*
G37*
G36*
X1614401Y-194777D02*
X1606202Y-194777D01*
X1606202Y-186577D01*
X1614401Y-186577D01*
X1614401Y-194777D01*
G37*
X1626705Y-190677D02*
G54D11*
D03*
G36*
X1647210Y-194777D02*
X1639011Y-194777D01*
X1639011Y-186577D01*
X1647210Y-186577D01*
X1647210Y-194777D01*
G37*
X1659516Y-190677D02*
G54D11*
D03*
X1528280Y-182476D02*
G54D13*
D03*
X1544678Y-182476D02*
G54D13*
D03*
X1552885Y-182476D02*
G54D12*
D03*
X1585696Y-182476D02*
G54D12*
D03*
X1593901Y-182476D02*
G54D13*
D03*
X1602100Y-182476D02*
G54D13*
D03*
X1634912Y-182476D02*
G54D13*
D03*
X1651310Y-182476D02*
G54D13*
D03*
G36*
X1532380Y-178376D02*
X1524180Y-178376D01*
X1524180Y-170177D01*
X1532380Y-170177D01*
X1532380Y-178376D01*
G37*
G36*
X1540578Y-178376D02*
X1532379Y-178376D01*
X1532379Y-170177D01*
X1540578Y-170177D01*
X1540578Y-178376D01*
G37*
G36*
X1581590Y-178376D02*
X1573390Y-178376D01*
X1573390Y-170177D01*
X1581590Y-170177D01*
X1581590Y-178376D01*
G37*
X1585696Y-174276D02*
G54D11*
D03*
G36*
X1598000Y-178376D02*
X1589801Y-178376D01*
X1589801Y-170177D01*
X1598000Y-170177D01*
X1598000Y-178376D01*
G37*
X1626705Y-174276D02*
G54D11*
D03*
G36*
X1639011Y-178376D02*
X1630812Y-178376D01*
X1630812Y-170177D01*
X1639011Y-170177D01*
X1639011Y-178376D01*
G37*
G36*
X1655410Y-178376D02*
X1647210Y-178376D01*
X1647210Y-170177D01*
X1655410Y-170177D01*
X1655410Y-178376D01*
G37*
X1544678Y-166070D02*
G54D14*
D03*
X1577490Y-166070D02*
G54D14*
D03*
G36*
X1630811Y-170176D02*
X1622598Y-170176D01*
X1622598Y-161963D01*
X1630811Y-161963D01*
X1630811Y-170176D01*
G37*
X1643111Y-166070D02*
G54D14*
D03*
X1651310Y-166070D02*
G54D14*
D03*
G36*
X1663623Y-170176D02*
X1655410Y-170176D01*
X1655410Y-161963D01*
X1663623Y-161963D01*
X1663623Y-170176D01*
G37*
G36*
X1532380Y-161963D02*
X1524180Y-161963D01*
X1524180Y-153763D01*
X1532380Y-153763D01*
X1532380Y-161963D01*
G37*
G36*
X1548778Y-161963D02*
X1540578Y-161963D01*
X1540578Y-153763D01*
X1548778Y-153763D01*
X1548778Y-161963D01*
G37*
G36*
X1565191Y-161963D02*
X1556992Y-161963D01*
X1556992Y-153763D01*
X1565191Y-153763D01*
X1565191Y-161963D01*
G37*
G36*
X1573390Y-161963D02*
X1565191Y-161963D01*
X1565191Y-153763D01*
X1573390Y-153763D01*
X1573390Y-161963D01*
G37*
G36*
X1581590Y-161963D02*
X1573390Y-161963D01*
X1573390Y-153763D01*
X1581590Y-153763D01*
X1581590Y-161963D01*
G37*
G36*
X1606200Y-161963D02*
X1598000Y-161963D01*
X1598000Y-153763D01*
X1606200Y-153763D01*
X1606200Y-161963D01*
G37*
G36*
X1614401Y-161962D02*
X1606202Y-161962D01*
X1606202Y-153764D01*
X1614401Y-153764D01*
X1614401Y-161962D01*
G37*
G36*
X1622600Y-161963D02*
X1614401Y-161963D01*
X1614401Y-153763D01*
X1622600Y-153763D01*
X1622600Y-161963D01*
G37*
X1626705Y-157863D02*
G54D11*
D03*
G36*
X1639011Y-161963D02*
X1630812Y-161963D01*
X1630812Y-153763D01*
X1639011Y-153763D01*
X1639011Y-161963D01*
G37*
G36*
X1647210Y-161963D02*
X1639011Y-161963D01*
X1639011Y-153763D01*
X1647210Y-153763D01*
X1647210Y-161963D01*
G37*
G36*
X1655410Y-161963D02*
X1647210Y-161963D01*
X1647210Y-153763D01*
X1655410Y-153763D01*
X1655410Y-161963D01*
G37*
X1528280Y-149666D02*
G54D18*
D03*
X1536479Y-149666D02*
G54D18*
D03*
X1552885Y-149666D02*
G54D17*
D03*
X1561091Y-149666D02*
G54D18*
D03*
X1585696Y-149666D02*
G54D17*
D03*
X1593901Y-149666D02*
G54D18*
D03*
X1610301Y-149666D02*
G54D18*
D03*
X1659516Y-149666D02*
G54D17*
D03*
X1536479Y-141465D02*
G54D19*
D03*
X1552885Y-141465D02*
G54D20*
D03*
X1569290Y-141465D02*
G54D19*
D03*
X1593901Y-141465D02*
G54D19*
D03*
X1602100Y-141465D02*
G54D19*
D03*
X1626705Y-141465D02*
G54D20*
D03*
X1634912Y-141465D02*
G54D19*
D03*
X1643111Y-141465D02*
G54D19*
D03*
X1651310Y-141465D02*
G54D19*
D03*
X1659516Y-141465D02*
G54D20*
D03*
M02*
